<?xml version="1.0" encoding="utf-8"?>
<svg xmlns="http://www.w3.org/2000/svg" xmlns:xlink="http://www.w3.org/1999/xlink" width="600" height="400" viewBox="0 0 2400 1600">
<defs>
  <clipPath id="clip520">
    <rect x="0" y="0" width="2400" height="1600"/>
  </clipPath>
</defs>
<path clip-path="url(#clip520)" d="M0 1600 L2400 1600 L2400 0 L0 0  Z" fill="#ffffff" fill-rule="evenodd" fill-opacity="1"/>
<defs>
  <clipPath id="clip521">
    <rect x="207" y="47" width="2146" height="1377"/>
  </clipPath>
</defs>
<path clip-path="url(#clip520)" d="M207.967 1423.18 L2352.76 1423.18 L2352.76 47.2441 L207.967 47.2441  Z" fill="#ffffff" fill-rule="evenodd" fill-opacity="1"/>
<polyline clip-path="url(#clip521)" style="stroke:#000000; stroke-linecap:round; stroke-linejoin:round; stroke-width:2; stroke-opacity:0.1; fill:none" points="371.243,1423.18 371.243,47.2441 "/>
<polyline clip-path="url(#clip521)" style="stroke:#000000; stroke-linecap:round; stroke-linejoin:round; stroke-width:2; stroke-opacity:0.1; fill:none" points="721.29,1423.18 721.29,47.2441 "/>
<polyline clip-path="url(#clip521)" style="stroke:#000000; stroke-linecap:round; stroke-linejoin:round; stroke-width:2; stroke-opacity:0.1; fill:none" points="1071.34,1423.18 1071.34,47.2441 "/>
<polyline clip-path="url(#clip521)" style="stroke:#000000; stroke-linecap:round; stroke-linejoin:round; stroke-width:2; stroke-opacity:0.1; fill:none" points="1421.39,1423.18 1421.39,47.2441 "/>
<polyline clip-path="url(#clip521)" style="stroke:#000000; stroke-linecap:round; stroke-linejoin:round; stroke-width:2; stroke-opacity:0.1; fill:none" points="1771.43,1423.18 1771.43,47.2441 "/>
<polyline clip-path="url(#clip521)" style="stroke:#000000; stroke-linecap:round; stroke-linejoin:round; stroke-width:2; stroke-opacity:0.1; fill:none" points="2121.48,1423.18 2121.48,47.2441 "/>
<polyline clip-path="url(#clip521)" style="stroke:#000000; stroke-linecap:round; stroke-linejoin:round; stroke-width:2; stroke-opacity:0.1; fill:none" points="207.967,1419.3 2352.76,1419.3 "/>
<polyline clip-path="url(#clip521)" style="stroke:#000000; stroke-linecap:round; stroke-linejoin:round; stroke-width:2; stroke-opacity:0.1; fill:none" points="207.967,1030.55 2352.76,1030.55 "/>
<polyline clip-path="url(#clip521)" style="stroke:#000000; stroke-linecap:round; stroke-linejoin:round; stroke-width:2; stroke-opacity:0.1; fill:none" points="207.967,641.806 2352.76,641.806 "/>
<polyline clip-path="url(#clip521)" style="stroke:#000000; stroke-linecap:round; stroke-linejoin:round; stroke-width:2; stroke-opacity:0.1; fill:none" points="207.967,253.058 2352.76,253.058 "/>
<polyline clip-path="url(#clip520)" style="stroke:#000000; stroke-linecap:round; stroke-linejoin:round; stroke-width:4; stroke-opacity:1; fill:none" points="207.967,1423.18 2352.76,1423.18 "/>
<polyline clip-path="url(#clip520)" style="stroke:#000000; stroke-linecap:round; stroke-linejoin:round; stroke-width:4; stroke-opacity:1; fill:none" points="371.243,1423.18 371.243,1404.28 "/>
<polyline clip-path="url(#clip520)" style="stroke:#000000; stroke-linecap:round; stroke-linejoin:round; stroke-width:4; stroke-opacity:1; fill:none" points="721.29,1423.18 721.29,1404.28 "/>
<polyline clip-path="url(#clip520)" style="stroke:#000000; stroke-linecap:round; stroke-linejoin:round; stroke-width:4; stroke-opacity:1; fill:none" points="1071.34,1423.18 1071.34,1404.28 "/>
<polyline clip-path="url(#clip520)" style="stroke:#000000; stroke-linecap:round; stroke-linejoin:round; stroke-width:4; stroke-opacity:1; fill:none" points="1421.39,1423.18 1421.39,1404.28 "/>
<polyline clip-path="url(#clip520)" style="stroke:#000000; stroke-linecap:round; stroke-linejoin:round; stroke-width:4; stroke-opacity:1; fill:none" points="1771.43,1423.18 1771.43,1404.28 "/>
<polyline clip-path="url(#clip520)" style="stroke:#000000; stroke-linecap:round; stroke-linejoin:round; stroke-width:4; stroke-opacity:1; fill:none" points="2121.48,1423.18 2121.48,1404.28 "/>
<path clip-path="url(#clip520)" d="M355.346 1472.22 Q355.642 1472.51 355.642 1472.93 Q355.642 1473.35 355.346 1473.65 Q355.049 1473.94 354.63 1473.94 L322.96 1473.94 Q322.54 1473.94 322.243 1473.65 Q321.947 1473.35 321.947 1472.93 Q321.947 1472.51 322.243 1472.22 Q322.54 1471.92 322.96 1471.92 L354.63 1471.92 Q355.049 1471.92 355.346 1472.22 Z" fill="#000000" fill-rule="nonzero" fill-opacity="1" /><path clip-path="url(#clip520)" d="M362.955 1456.7 L362.955 1455.12 Q369.032 1455.12 372.169 1451.88 Q373.034 1451.88 373.182 1452.08 Q373.33 1452.28 373.33 1453.19 L373.33 1481.58 Q373.33 1483.08 374.071 1483.55 Q374.812 1484.02 378.048 1484.02 L379.654 1484.02 L379.654 1485.58 Q377.875 1485.43 371.452 1485.43 Q365.03 1485.43 363.276 1485.58 L363.276 1484.02 L364.881 1484.02 Q368.068 1484.02 368.834 1483.58 Q369.6 1483.11 369.6 1481.58 L369.6 1455.37 Q366.956 1456.7 362.955 1456.7 Z" fill="#000000" fill-rule="nonzero" fill-opacity="1" /><path clip-path="url(#clip520)" d="M388.819 1484.76 Q388.053 1483.95 388.053 1482.89 Q388.053 1481.82 388.819 1481.06 Q389.585 1480.27 390.746 1480.27 Q391.857 1480.27 392.599 1481.01 Q393.364 1481.73 393.364 1482.91 Q393.364 1484.07 392.549 1484.84 Q391.759 1485.58 390.746 1485.58 Q389.585 1485.58 388.819 1484.76 Z" fill="#000000" fill-rule="nonzero" fill-opacity="1" /><path clip-path="url(#clip520)" d="M400.331 1477.43 Q400.331 1475.92 401.146 1475.35 Q401.961 1474.76 402.826 1474.76 Q403.987 1474.76 404.654 1475.5 Q405.345 1476.22 405.345 1477.23 Q405.345 1478.24 404.654 1478.98 Q403.987 1479.7 402.826 1479.7 Q402.258 1479.7 401.961 1479.6 Q402.628 1481.92 404.654 1483.6 Q406.704 1485.28 409.397 1485.28 Q412.781 1485.28 414.807 1482 Q416.017 1479.87 416.017 1475.06 Q416.017 1470.81 415.103 1468.68 Q413.695 1465.45 410.805 1465.45 Q406.704 1465.45 404.283 1468.98 Q403.987 1469.42 403.641 1469.45 Q403.147 1469.45 403.023 1469.18 Q402.925 1468.88 402.925 1468.11 L402.925 1453.14 Q402.925 1451.93 403.419 1451.93 Q403.616 1451.93 404.036 1452.08 Q407.223 1453.49 410.756 1453.51 Q414.387 1453.51 417.648 1452.03 Q417.895 1451.88 418.043 1451.88 Q418.537 1451.88 418.562 1452.45 Q418.562 1452.65 418.142 1453.24 Q417.747 1453.81 416.882 1454.58 Q416.017 1455.32 414.906 1456.03 Q413.794 1456.75 412.164 1457.25 Q410.558 1457.71 408.779 1457.71 Q406.655 1457.71 404.481 1457.05 L404.481 1466.9 Q407.099 1464.33 410.904 1464.33 Q414.955 1464.33 417.747 1467.6 Q420.538 1470.86 420.538 1475.4 Q420.538 1480.17 417.228 1483.43 Q413.942 1486.69 409.496 1486.69 Q405.444 1486.69 402.875 1483.8 Q400.331 1480.91 400.331 1477.43 Z" fill="#000000" fill-rule="nonzero" fill-opacity="1" /><path clip-path="url(#clip520)" d="M705.122 1472.22 Q705.418 1472.51 705.418 1472.93 Q705.418 1473.35 705.122 1473.65 Q704.826 1473.94 704.406 1473.94 L672.736 1473.94 Q672.316 1473.94 672.02 1473.65 Q671.723 1473.35 671.723 1472.93 Q671.723 1472.51 672.02 1472.22 Q672.316 1471.92 672.736 1471.92 L704.406 1471.92 Q704.826 1471.92 705.122 1472.22 Z" fill="#000000" fill-rule="nonzero" fill-opacity="1" /><path clip-path="url(#clip520)" d="M712.731 1456.7 L712.731 1455.12 Q718.808 1455.12 721.945 1451.88 Q722.81 1451.88 722.958 1452.08 Q723.106 1452.28 723.106 1453.19 L723.106 1481.58 Q723.106 1483.08 723.847 1483.55 Q724.588 1484.02 727.824 1484.02 L729.43 1484.02 L729.43 1485.58 Q727.652 1485.43 721.229 1485.43 Q714.806 1485.43 713.052 1485.58 L713.052 1484.02 L714.658 1484.02 Q717.844 1484.02 718.61 1483.58 Q719.376 1483.11 719.376 1481.58 L719.376 1455.37 Q716.733 1456.7 712.731 1456.7 Z" fill="#000000" fill-rule="nonzero" fill-opacity="1" /><path clip-path="url(#clip520)" d="M738.595 1484.76 Q737.829 1483.95 737.829 1482.89 Q737.829 1481.82 738.595 1481.06 Q739.361 1480.27 740.522 1480.27 Q741.634 1480.27 742.375 1481.01 Q743.141 1481.73 743.141 1482.91 Q743.141 1484.07 742.325 1484.84 Q741.535 1485.58 740.522 1485.58 Q739.361 1485.58 738.595 1484.76 Z" fill="#000000" fill-rule="nonzero" fill-opacity="1" /><path clip-path="url(#clip520)" d="M749.563 1469.4 Q749.563 1461.96 751.441 1457.91 Q754.059 1451.88 760.235 1451.88 Q761.545 1451.88 762.903 1452.26 Q764.287 1452.6 766.016 1453.96 Q767.77 1455.32 768.832 1457.54 Q770.858 1461.84 770.858 1469.4 Q770.858 1476.79 768.98 1480.81 Q766.238 1486.69 760.186 1486.69 Q757.913 1486.69 755.591 1485.53 Q753.294 1484.37 751.836 1481.58 Q749.563 1477.4 749.563 1469.4 M753.763 1468.78 Q753.763 1476.41 754.306 1479.45 Q754.924 1482.74 756.604 1484.17 Q758.308 1485.58 760.186 1485.58 Q762.212 1485.58 763.891 1484.07 Q765.596 1482.54 766.115 1479.26 Q766.683 1476.02 766.658 1468.78 Q766.658 1461.74 766.164 1458.92 Q765.497 1455.64 763.718 1454.33 Q761.964 1453 760.186 1453 Q759.519 1453 758.802 1453.19 Q758.111 1453.39 757.098 1453.96 Q756.085 1454.53 755.295 1455.94 Q754.529 1457.34 754.158 1459.47 Q753.763 1462.21 753.763 1468.78 Z" fill="#000000" fill-rule="nonzero" fill-opacity="1" /><path clip-path="url(#clip520)" d="M1055.44 1472.22 Q1055.74 1472.51 1055.74 1472.93 Q1055.74 1473.35 1055.44 1473.65 Q1055.15 1473.94 1054.73 1473.94 L1023.06 1473.94 Q1022.64 1473.94 1022.34 1473.65 Q1022.04 1473.35 1022.04 1472.93 Q1022.04 1472.51 1022.34 1472.22 Q1022.64 1471.92 1023.06 1471.92 L1054.73 1471.92 Q1055.15 1471.92 1055.44 1472.22 Z" fill="#000000" fill-rule="nonzero" fill-opacity="1" /><path clip-path="url(#clip520)" d="M1060.53 1469.4 Q1060.53 1461.96 1062.41 1457.91 Q1065.03 1451.88 1071.2 1451.88 Q1072.51 1451.88 1073.87 1452.26 Q1075.25 1452.6 1076.98 1453.96 Q1078.74 1455.32 1079.8 1457.54 Q1081.82 1461.84 1081.82 1469.4 Q1081.82 1476.79 1079.95 1480.81 Q1077.21 1486.69 1071.15 1486.69 Q1068.88 1486.69 1066.56 1485.53 Q1064.26 1484.37 1062.8 1481.58 Q1060.53 1477.4 1060.53 1469.4 M1064.73 1468.78 Q1064.73 1476.41 1065.27 1479.45 Q1065.89 1482.74 1067.57 1484.17 Q1069.28 1485.58 1071.15 1485.58 Q1073.18 1485.58 1074.86 1484.07 Q1076.56 1482.54 1077.08 1479.26 Q1077.65 1476.02 1077.63 1468.78 Q1077.63 1461.74 1077.13 1458.92 Q1076.46 1455.64 1074.69 1454.33 Q1072.93 1453 1071.15 1453 Q1070.49 1453 1069.77 1453.19 Q1069.08 1453.39 1068.07 1453.96 Q1067.05 1454.53 1066.26 1455.94 Q1065.5 1457.34 1065.13 1459.47 Q1064.73 1462.21 1064.73 1468.78 Z" fill="#000000" fill-rule="nonzero" fill-opacity="1" /><path clip-path="url(#clip520)" d="M1088.91 1484.76 Q1088.15 1483.95 1088.15 1482.89 Q1088.15 1481.82 1088.91 1481.06 Q1089.68 1480.27 1090.84 1480.27 Q1091.95 1480.27 1092.69 1481.01 Q1093.46 1481.73 1093.46 1482.91 Q1093.46 1484.07 1092.64 1484.84 Q1091.85 1485.58 1090.84 1485.58 Q1089.68 1485.58 1088.91 1484.76 Z" fill="#000000" fill-rule="nonzero" fill-opacity="1" /><path clip-path="url(#clip520)" d="M1100.43 1477.43 Q1100.43 1475.92 1101.24 1475.35 Q1102.06 1474.76 1102.92 1474.76 Q1104.08 1474.76 1104.75 1475.5 Q1105.44 1476.22 1105.44 1477.23 Q1105.44 1478.24 1104.75 1478.98 Q1104.08 1479.7 1102.92 1479.7 Q1102.35 1479.7 1102.06 1479.6 Q1102.72 1481.92 1104.75 1483.6 Q1106.8 1485.28 1109.49 1485.28 Q1112.88 1485.28 1114.9 1482 Q1116.11 1479.87 1116.11 1475.06 Q1116.11 1470.81 1115.2 1468.68 Q1113.79 1465.45 1110.9 1465.45 Q1106.8 1465.45 1104.38 1468.98 Q1104.08 1469.42 1103.74 1469.45 Q1103.24 1469.45 1103.12 1469.18 Q1103.02 1468.88 1103.02 1468.11 L1103.02 1453.14 Q1103.02 1451.93 1103.51 1451.93 Q1103.71 1451.93 1104.13 1452.08 Q1107.32 1453.49 1110.85 1453.51 Q1114.48 1453.51 1117.74 1452.03 Q1117.99 1451.88 1118.14 1451.88 Q1118.63 1451.88 1118.66 1452.45 Q1118.66 1452.65 1118.24 1453.24 Q1117.84 1453.81 1116.98 1454.58 Q1116.11 1455.32 1115 1456.03 Q1113.89 1456.75 1112.26 1457.25 Q1110.65 1457.71 1108.88 1457.71 Q1106.75 1457.71 1104.58 1457.05 L1104.58 1466.9 Q1107.2 1464.33 1111 1464.33 Q1115.05 1464.33 1117.84 1467.6 Q1120.63 1470.86 1120.63 1475.4 Q1120.63 1480.17 1117.32 1483.43 Q1114.04 1486.69 1109.59 1486.69 Q1105.54 1486.69 1102.97 1483.8 Q1100.43 1480.91 1100.43 1477.43 Z" fill="#000000" fill-rule="nonzero" fill-opacity="1" /><path clip-path="url(#clip520)" d="M1391.06 1469.4 Q1391.06 1461.96 1392.94 1457.91 Q1395.56 1451.88 1401.73 1451.88 Q1403.04 1451.88 1404.4 1452.26 Q1405.79 1452.6 1407.52 1453.96 Q1409.27 1455.32 1410.33 1457.54 Q1412.36 1461.84 1412.36 1469.4 Q1412.36 1476.79 1410.48 1480.81 Q1407.74 1486.69 1401.69 1486.69 Q1399.41 1486.69 1397.09 1485.53 Q1394.79 1484.37 1393.34 1481.58 Q1391.06 1477.4 1391.06 1469.4 M1395.26 1468.78 Q1395.26 1476.41 1395.81 1479.45 Q1396.42 1482.74 1398.1 1484.17 Q1399.81 1485.58 1401.69 1485.58 Q1403.71 1485.58 1405.39 1484.07 Q1407.1 1482.54 1407.61 1479.26 Q1408.18 1476.02 1408.16 1468.78 Q1408.16 1461.74 1407.66 1458.92 Q1407 1455.64 1405.22 1454.33 Q1403.46 1453 1401.69 1453 Q1401.02 1453 1400.3 1453.19 Q1399.61 1453.39 1398.6 1453.96 Q1397.58 1454.53 1396.79 1455.94 Q1396.03 1457.34 1395.66 1459.47 Q1395.26 1462.21 1395.26 1468.78 Z" fill="#000000" fill-rule="nonzero" fill-opacity="1" /><path clip-path="url(#clip520)" d="M1419.45 1484.76 Q1418.68 1483.95 1418.68 1482.89 Q1418.68 1481.82 1419.45 1481.06 Q1420.21 1480.27 1421.37 1480.27 Q1422.49 1480.27 1423.23 1481.01 Q1423.99 1481.73 1423.99 1482.91 Q1423.99 1484.07 1423.18 1484.84 Q1422.39 1485.58 1421.37 1485.58 Q1420.21 1485.58 1419.45 1484.76 Z" fill="#000000" fill-rule="nonzero" fill-opacity="1" /><path clip-path="url(#clip520)" d="M1430.42 1469.4 Q1430.42 1461.96 1432.29 1457.91 Q1434.91 1451.88 1441.09 1451.88 Q1442.4 1451.88 1443.76 1452.26 Q1445.14 1452.6 1446.87 1453.96 Q1448.62 1455.32 1449.68 1457.54 Q1451.71 1461.84 1451.71 1469.4 Q1451.71 1476.79 1449.83 1480.81 Q1447.09 1486.69 1441.04 1486.69 Q1438.77 1486.69 1436.44 1485.53 Q1434.15 1484.37 1432.69 1481.58 Q1430.42 1477.4 1430.42 1469.4 M1434.61 1468.78 Q1434.61 1476.41 1435.16 1479.45 Q1435.78 1482.74 1437.46 1484.17 Q1439.16 1485.58 1441.04 1485.58 Q1443.06 1485.58 1444.74 1484.07 Q1446.45 1482.54 1446.97 1479.26 Q1447.53 1476.02 1447.51 1468.78 Q1447.51 1461.74 1447.02 1458.92 Q1446.35 1455.64 1444.57 1454.33 Q1442.82 1453 1441.04 1453 Q1440.37 1453 1439.65 1453.19 Q1438.96 1453.39 1437.95 1453.96 Q1436.94 1454.53 1436.15 1455.94 Q1435.38 1457.34 1435.01 1459.47 Q1434.61 1462.21 1434.61 1468.78 Z" fill="#000000" fill-rule="nonzero" fill-opacity="1" /><path clip-path="url(#clip520)" d="M1741.38 1469.4 Q1741.38 1461.96 1743.26 1457.91 Q1745.88 1451.88 1752.05 1451.88 Q1753.36 1451.88 1754.72 1452.26 Q1756.11 1452.6 1757.83 1453.96 Q1759.59 1455.32 1760.65 1457.54 Q1762.68 1461.84 1762.68 1469.4 Q1762.68 1476.79 1760.8 1480.81 Q1758.06 1486.69 1752 1486.69 Q1749.73 1486.69 1747.41 1485.53 Q1745.11 1484.37 1743.66 1481.58 Q1741.38 1477.4 1741.38 1469.4 M1745.58 1468.78 Q1745.58 1476.41 1746.13 1479.45 Q1746.74 1482.74 1748.42 1484.17 Q1750.13 1485.58 1752 1485.58 Q1754.03 1485.58 1755.71 1484.07 Q1757.41 1482.54 1757.93 1479.26 Q1758.5 1476.02 1758.48 1468.78 Q1758.48 1461.74 1757.98 1458.92 Q1757.32 1455.64 1755.54 1454.33 Q1753.78 1453 1752 1453 Q1751.34 1453 1750.62 1453.19 Q1749.93 1453.39 1748.92 1453.96 Q1747.9 1454.53 1747.11 1455.94 Q1746.35 1457.34 1745.98 1459.47 Q1745.58 1462.21 1745.58 1468.78 Z" fill="#000000" fill-rule="nonzero" fill-opacity="1" /><path clip-path="url(#clip520)" d="M1769.77 1484.76 Q1769 1483.95 1769 1482.89 Q1769 1481.82 1769.77 1481.06 Q1770.53 1480.27 1771.69 1480.27 Q1772.81 1480.27 1773.55 1481.01 Q1774.31 1481.73 1774.31 1482.91 Q1774.31 1484.07 1773.5 1484.84 Q1772.71 1485.58 1771.69 1485.58 Q1770.53 1485.58 1769.77 1484.76 Z" fill="#000000" fill-rule="nonzero" fill-opacity="1" /><path clip-path="url(#clip520)" d="M1781.28 1477.43 Q1781.28 1475.92 1782.09 1475.35 Q1782.91 1474.76 1783.77 1474.76 Q1784.93 1474.76 1785.6 1475.5 Q1786.29 1476.22 1786.29 1477.23 Q1786.29 1478.24 1785.6 1478.98 Q1784.93 1479.7 1783.77 1479.7 Q1783.21 1479.7 1782.91 1479.6 Q1783.58 1481.92 1785.6 1483.6 Q1787.65 1485.28 1790.34 1485.28 Q1793.73 1485.28 1795.75 1482 Q1796.97 1479.87 1796.97 1475.06 Q1796.97 1470.81 1796.05 1468.68 Q1794.64 1465.45 1791.75 1465.45 Q1787.65 1465.45 1785.23 1468.98 Q1784.93 1469.42 1784.59 1469.45 Q1784.09 1469.45 1783.97 1469.18 Q1783.87 1468.88 1783.87 1468.11 L1783.87 1453.14 Q1783.87 1451.93 1784.37 1451.93 Q1784.56 1451.93 1784.98 1452.08 Q1788.17 1453.49 1791.7 1453.51 Q1795.33 1453.51 1798.6 1452.03 Q1798.84 1451.88 1798.99 1451.88 Q1799.48 1451.88 1799.51 1452.45 Q1799.51 1452.65 1799.09 1453.24 Q1798.69 1453.81 1797.83 1454.58 Q1796.97 1455.32 1795.85 1456.03 Q1794.74 1456.75 1793.11 1457.25 Q1791.51 1457.71 1789.73 1457.71 Q1787.6 1457.71 1785.43 1457.05 L1785.43 1466.9 Q1788.05 1464.33 1791.85 1464.33 Q1795.9 1464.33 1798.69 1467.6 Q1801.49 1470.86 1801.49 1475.4 Q1801.49 1480.17 1798.18 1483.43 Q1794.89 1486.69 1790.44 1486.69 Q1786.39 1486.69 1783.82 1483.8 Q1781.28 1480.91 1781.28 1477.43 Z" fill="#000000" fill-rule="nonzero" fill-opacity="1" /><path clip-path="url(#clip520)" d="M2092.42 1456.7 L2092.42 1455.12 Q2098.5 1455.12 2101.63 1451.88 Q2102.5 1451.88 2102.65 1452.08 Q2102.79 1452.28 2102.79 1453.19 L2102.79 1481.58 Q2102.79 1483.08 2103.53 1483.55 Q2104.28 1484.02 2107.51 1484.02 L2109.12 1484.02 L2109.12 1485.58 Q2107.34 1485.43 2100.92 1485.43 Q2094.49 1485.43 2092.74 1485.58 L2092.74 1484.02 L2094.35 1484.02 Q2097.53 1484.02 2098.3 1483.58 Q2099.06 1483.11 2099.06 1481.58 L2099.06 1455.37 Q2096.42 1456.7 2092.42 1456.7 Z" fill="#000000" fill-rule="nonzero" fill-opacity="1" /><path clip-path="url(#clip520)" d="M2118.28 1484.76 Q2117.52 1483.95 2117.52 1482.89 Q2117.52 1481.82 2118.28 1481.06 Q2119.05 1480.27 2120.21 1480.27 Q2121.32 1480.27 2122.06 1481.01 Q2122.83 1481.73 2122.83 1482.91 Q2122.83 1484.07 2122.01 1484.84 Q2121.22 1485.58 2120.21 1485.58 Q2119.05 1485.58 2118.28 1484.76 Z" fill="#000000" fill-rule="nonzero" fill-opacity="1" /><path clip-path="url(#clip520)" d="M2129.25 1469.4 Q2129.25 1461.96 2131.13 1457.91 Q2133.75 1451.88 2139.92 1451.88 Q2141.23 1451.88 2142.59 1452.26 Q2143.97 1452.6 2145.7 1453.96 Q2147.46 1455.32 2148.52 1457.54 Q2150.55 1461.84 2150.55 1469.4 Q2150.55 1476.79 2148.67 1480.81 Q2145.93 1486.69 2139.87 1486.69 Q2137.6 1486.69 2135.28 1485.53 Q2132.98 1484.37 2131.52 1481.58 Q2129.25 1477.4 2129.25 1469.4 M2133.45 1468.78 Q2133.45 1476.41 2133.99 1479.45 Q2134.61 1482.74 2136.29 1484.17 Q2138 1485.58 2139.87 1485.58 Q2141.9 1485.58 2143.58 1484.07 Q2145.28 1482.54 2145.8 1479.26 Q2146.37 1476.02 2146.35 1468.78 Q2146.35 1461.74 2145.85 1458.92 Q2145.18 1455.64 2143.41 1454.33 Q2141.65 1453 2139.87 1453 Q2139.21 1453 2138.49 1453.19 Q2137.8 1453.39 2136.79 1453.96 Q2135.77 1454.53 2134.98 1455.94 Q2134.22 1457.34 2133.85 1459.47 Q2133.45 1462.21 2133.45 1468.78 Z" fill="#000000" fill-rule="nonzero" fill-opacity="1" /><path clip-path="url(#clip520)" d="M1142.46 1555.46 L1142.46 1553.43 Q1145.97 1553.43 1146.77 1553.01 Q1147.58 1552.56 1147.58 1550.44 L1147.58 1532.76 Q1147.58 1530.31 1146.71 1529.7 Q1145.87 1529.08 1142.46 1529.08 L1142.46 1527.02 L1151.73 1526.32 L1151.73 1533.24 Q1154.83 1526.32 1161.49 1526.32 Q1169.22 1526.32 1170.29 1532.76 Q1171.41 1530.24 1173.76 1528.28 Q1176.15 1526.32 1179.85 1526.32 Q1184.81 1526.32 1186.77 1528.76 Q1188.22 1530.41 1188.51 1532.24 Q1188.8 1534.08 1188.8 1538.84 L1188.8 1551.44 Q1188.87 1552.82 1189.93 1553.14 Q1190.99 1553.43 1193.96 1553.43 L1193.96 1555.46 Q1187.23 1555.27 1186.58 1555.27 Q1186.07 1555.27 1179.11 1555.46 L1179.11 1553.43 Q1182.62 1553.43 1183.43 1553.01 Q1184.26 1552.56 1184.26 1550.44 L1184.26 1535.08 Q1184.26 1531.73 1183.23 1529.76 Q1182.2 1527.76 1179.37 1527.76 Q1175.95 1527.76 1173.22 1530.63 Q1170.48 1533.5 1170.48 1538.33 L1170.48 1550.44 Q1170.48 1552.56 1171.28 1553.01 Q1172.12 1553.43 1175.63 1553.43 L1175.63 1555.46 Q1168.9 1555.27 1168.22 1555.27 Q1167.71 1555.27 1160.78 1555.46 L1160.78 1553.43 Q1164.29 1553.43 1165.1 1553.01 Q1165.94 1552.56 1165.94 1550.44 L1165.94 1535.08 Q1165.94 1531.73 1164.91 1529.76 Q1163.88 1527.76 1161.04 1527.76 Q1157.63 1527.76 1154.89 1530.63 Q1152.15 1533.5 1152.15 1538.33 L1152.15 1550.44 Q1152.15 1552.56 1152.96 1553.01 Q1153.8 1553.43 1157.27 1553.43 L1157.27 1555.46 Q1150.54 1555.27 1149.9 1555.27 Q1149.38 1555.27 1142.46 1555.46 Z" fill="#000000" fill-rule="nonzero" fill-opacity="1" /><path clip-path="url(#clip520)" d="M1197.64 1549.18 Q1197.64 1543.58 1204.24 1540.61 Q1208.2 1538.71 1216.38 1538.23 L1216.38 1535.82 Q1216.38 1531.73 1214.22 1529.57 Q1212.1 1527.38 1209.39 1527.38 Q1204.56 1527.38 1202.24 1530.41 Q1204.21 1530.47 1204.92 1531.47 Q1205.63 1532.43 1205.63 1533.43 Q1205.63 1534.75 1204.79 1535.62 Q1203.98 1536.46 1202.6 1536.46 Q1201.28 1536.46 1200.41 1535.65 Q1199.54 1534.82 1199.54 1533.37 Q1199.54 1530.15 1202.44 1528.02 Q1205.37 1525.9 1209.52 1525.9 Q1214.93 1525.9 1218.54 1529.54 Q1219.67 1530.66 1220.21 1532.11 Q1220.79 1533.56 1220.86 1534.53 Q1220.92 1535.46 1220.92 1537.33 L1220.92 1550.5 Q1220.92 1550.89 1221.05 1551.53 Q1221.18 1552.18 1221.76 1553.01 Q1222.37 1553.82 1223.37 1553.82 Q1225.75 1553.82 1225.72 1549.6 L1225.72 1545.9 L1227.4 1545.9 L1227.4 1549.6 Q1227.4 1553.11 1225.53 1554.5 Q1223.69 1555.85 1221.99 1555.85 Q1219.8 1555.85 1218.41 1554.24 Q1217.03 1552.63 1216.83 1550.44 Q1215.83 1552.95 1213.55 1554.59 Q1211.29 1556.2 1208.2 1556.2 Q1205.82 1556.2 1203.56 1555.59 Q1201.34 1555.01 1199.47 1553.37 Q1197.64 1551.69 1197.64 1549.18 M1202.73 1549.12 Q1202.73 1551.56 1204.47 1553.14 Q1206.2 1554.72 1208.65 1554.72 Q1211.42 1554.72 1213.9 1552.6 Q1216.38 1550.44 1216.38 1546.22 L1216.38 1539.62 Q1209.07 1539.87 1205.88 1542.8 Q1202.73 1545.7 1202.73 1549.12 Z" fill="#000000" fill-rule="nonzero" fill-opacity="1" /><path clip-path="url(#clip520)" d="M1230.3 1554.59 L1230.3 1545.9 Q1230.3 1545.16 1230.33 1544.9 Q1230.37 1544.64 1230.56 1544.45 Q1230.75 1544.25 1231.14 1544.25 Q1231.59 1544.25 1231.75 1544.45 Q1231.94 1544.64 1232.07 1545.38 Q1233.07 1549.92 1235.2 1552.34 Q1237.36 1554.72 1241.25 1554.72 Q1244.96 1554.72 1246.82 1553.08 Q1248.69 1551.44 1248.69 1548.73 Q1248.69 1543.9 1241.83 1542.68 Q1237.87 1541.87 1236.23 1541.36 Q1234.59 1540.81 1233.14 1539.62 Q1230.3 1537.3 1230.3 1534.01 Q1230.3 1530.73 1232.78 1528.31 Q1235.29 1525.9 1240.83 1525.9 Q1244.54 1525.9 1247.05 1527.76 Q1247.79 1527.18 1248.18 1526.7 Q1249.05 1525.9 1249.5 1525.9 Q1250.01 1525.9 1250.11 1526.25 Q1250.21 1526.57 1250.21 1527.51 L1250.21 1534.14 Q1250.21 1534.88 1250.17 1535.14 Q1250.14 1535.4 1249.95 1535.59 Q1249.75 1535.75 1249.34 1535.75 Q1248.6 1535.75 1248.56 1535.14 Q1248.05 1527.15 1240.83 1527.15 Q1236.94 1527.15 1235.2 1528.67 Q1233.46 1530.15 1233.46 1532.18 Q1233.46 1533.3 1233.97 1534.17 Q1234.52 1535.01 1235.2 1535.53 Q1235.91 1536.01 1237.19 1536.49 Q1238.48 1536.94 1239.26 1537.1 Q1240.06 1537.27 1241.57 1537.59 Q1246.86 1538.59 1249.08 1540.74 Q1251.85 1543.51 1251.85 1547.02 Q1251.85 1550.92 1249.21 1553.56 Q1246.57 1556.2 1241.25 1556.2 Q1236.97 1556.2 1233.97 1553.34 Q1233.59 1553.72 1233.3 1554.08 Q1233.01 1554.4 1232.88 1554.53 Q1232.78 1554.66 1232.75 1554.75 Q1232.72 1554.82 1232.65 1554.88 Q1231.33 1556.2 1231.01 1556.2 Q1230.5 1556.2 1230.4 1555.85 Q1230.3 1555.53 1230.3 1554.59 Z" fill="#000000" fill-rule="nonzero" fill-opacity="1" /><path clip-path="url(#clip520)" d="M1255.75 1554.59 L1255.75 1545.9 Q1255.75 1545.16 1255.78 1544.9 Q1255.81 1544.64 1256.01 1544.45 Q1256.2 1544.25 1256.59 1544.25 Q1257.04 1544.25 1257.2 1544.45 Q1257.39 1544.64 1257.52 1545.38 Q1258.52 1549.92 1260.64 1552.34 Q1262.8 1554.72 1266.7 1554.72 Q1270.4 1554.72 1272.27 1553.08 Q1274.14 1551.44 1274.14 1548.73 Q1274.14 1543.9 1267.28 1542.68 Q1263.32 1541.87 1261.67 1541.36 Q1260.03 1540.81 1258.58 1539.62 Q1255.75 1537.3 1255.75 1534.01 Q1255.75 1530.73 1258.23 1528.31 Q1260.74 1525.9 1266.28 1525.9 Q1269.98 1525.9 1272.5 1527.76 Q1273.24 1527.18 1273.62 1526.7 Q1274.49 1525.9 1274.94 1525.9 Q1275.46 1525.9 1275.55 1526.25 Q1275.65 1526.57 1275.65 1527.51 L1275.65 1534.14 Q1275.65 1534.88 1275.62 1535.14 Q1275.59 1535.4 1275.39 1535.59 Q1275.2 1535.75 1274.78 1535.75 Q1274.04 1535.75 1274.01 1535.14 Q1273.49 1527.15 1266.28 1527.15 Q1262.38 1527.15 1260.64 1528.67 Q1258.9 1530.15 1258.9 1532.18 Q1258.9 1533.3 1259.42 1534.17 Q1259.97 1535.01 1260.64 1535.53 Q1261.35 1536.01 1262.64 1536.49 Q1263.93 1536.94 1264.7 1537.1 Q1265.51 1537.27 1267.02 1537.59 Q1272.3 1538.59 1274.52 1540.74 Q1277.29 1543.51 1277.29 1547.02 Q1277.29 1550.92 1274.65 1553.56 Q1272.01 1556.2 1266.7 1556.2 Q1262.41 1556.2 1259.42 1553.34 Q1259.03 1553.72 1258.74 1554.08 Q1258.45 1554.4 1258.32 1554.53 Q1258.23 1554.66 1258.2 1554.75 Q1258.16 1554.82 1258.1 1554.88 Q1256.78 1556.2 1256.46 1556.2 Q1255.94 1556.2 1255.84 1555.85 Q1255.75 1555.53 1255.75 1554.59 Z" fill="#000000" fill-rule="nonzero" fill-opacity="1" /><path clip-path="url(#clip520)" d="M1295.98 1568.34 Q1295.98 1568.05 1296.22 1567.41 L1317.25 1511.2 Q1317.25 1511.14 1317.4 1510.82 Q1317.55 1510.5 1317.63 1510.29 Q1317.72 1510.06 1317.89 1509.89 Q1318.1 1509.71 1318.33 1509.71 Q1318.91 1509.71 1318.91 1510.44 Q1318.91 1510.5 1318.74 1511.2 L1297.64 1567.47 Q1297.29 1568.49 1297.06 1568.78 Q1296.86 1569.07 1296.51 1569.07 Q1295.98 1569.07 1295.98 1568.34 Z" fill="#000000" fill-rule="nonzero" fill-opacity="1" /><path clip-path="url(#clip520)" d="M1347.06 1555.46 L1347.06 1553.43 Q1350.57 1553.43 1351.37 1553.01 Q1352.21 1552.56 1352.21 1550.44 L1352.21 1516.14 Q1352.21 1513.69 1351.34 1513.08 Q1350.5 1512.47 1347.06 1512.47 L1347.06 1510.41 L1356.56 1509.7 L1356.56 1541.36 L1365.87 1533.3 Q1367.32 1532.05 1367.32 1530.73 Q1367.32 1529.21 1365.42 1529.08 L1365.42 1527.02 Q1368.19 1527.22 1372.79 1527.22 Q1375.5 1527.22 1377.4 1527.02 L1377.4 1529.08 Q1373.24 1529.28 1369.09 1532.63 Q1368.15 1533.37 1365.93 1535.3 Q1363.74 1537.2 1363.74 1537.39 Q1363.74 1537.46 1363.81 1537.62 Q1363.9 1537.78 1364.03 1537.91 Q1364.16 1538.04 1364.16 1538.1 L1372.53 1549.92 Q1374.24 1552.31 1375.5 1552.89 Q1376.75 1553.43 1378.94 1553.43 L1378.94 1555.46 Q1376.11 1555.27 1373.18 1555.27 Q1371.6 1555.27 1366.06 1555.46 L1366.06 1553.43 Q1368.44 1553.43 1368.44 1551.89 Q1368.44 1550.82 1363.1 1543.45 Q1362.71 1542.93 1361.84 1541.81 Q1361.04 1540.61 1360.58 1540.03 L1356.37 1543.64 L1356.37 1550.44 Q1356.37 1552.56 1357.17 1553.01 Q1358.01 1553.43 1361.52 1553.43 L1361.52 1555.46 Q1357.56 1555.27 1354.27 1555.27 Q1353.6 1555.27 1347.06 1555.46 Z" fill="#000000" fill-rule="nonzero" fill-opacity="1" /><path clip-path="url(#clip520)" d="M1378.56 1560.68 Q1378.56 1558.55 1380.17 1556.72 Q1381.81 1554.88 1384.65 1554.08 Q1381.75 1552.24 1381.75 1548.22 Q1381.75 1545.12 1383.78 1542.74 Q1380.69 1540.16 1380.69 1535.94 Q1380.69 1532.05 1383.78 1529.18 Q1386.87 1526.32 1391.38 1526.32 Q1395.34 1526.32 1398.37 1528.7 Q1401.52 1525.61 1405.36 1525.57 Q1407.06 1525.57 1407.87 1526.64 Q1408.7 1527.7 1408.7 1528.83 Q1408.7 1529.83 1408.06 1530.31 Q1407.45 1530.79 1406.8 1530.79 Q1406 1530.79 1405.42 1530.28 Q1404.87 1529.73 1404.87 1528.89 Q1404.87 1527.51 1405.93 1527.09 Q1405.74 1527.02 1405.29 1527.02 Q1402.07 1527.02 1399.33 1529.6 Q1402.04 1532.11 1402.04 1536.01 Q1402.04 1539.91 1398.95 1542.77 Q1395.85 1545.64 1391.38 1545.64 Q1387.67 1545.64 1384.84 1543.58 Q1383.71 1544.9 1383.71 1546.7 Q1383.71 1548.34 1384.71 1549.63 Q1385.71 1550.92 1387.22 1551.11 Q1387.67 1551.18 1392.15 1551.18 Q1394.79 1551.18 1396.24 1551.24 Q1397.69 1551.31 1399.75 1551.76 Q1401.84 1552.18 1403.49 1553.01 Q1407.77 1555.4 1407.8 1560.55 Q1407.8 1564.32 1403.45 1566.67 Q1399.14 1569.05 1393.15 1569.05 Q1387.09 1569.05 1382.81 1566.64 Q1378.56 1564.25 1378.56 1560.68 M1382.01 1560.68 Q1382.01 1563.38 1385.19 1565.45 Q1388.38 1567.54 1393.21 1567.54 Q1397.95 1567.54 1401.14 1565.48 Q1404.36 1563.45 1404.36 1560.68 Q1404.36 1558.71 1403.23 1557.46 Q1402.1 1556.2 1399.78 1555.69 Q1397.5 1555.2 1395.89 1555.11 Q1394.28 1555.01 1391.31 1555.01 L1387.42 1555.01 Q1385.16 1555.14 1383.58 1556.78 Q1382.01 1558.42 1382.01 1560.68 M1385.61 1536.01 Q1385.61 1544.13 1391.38 1544.13 Q1394.28 1544.13 1396.05 1541.48 Q1397.11 1539.71 1397.11 1535.94 Q1397.11 1527.83 1391.38 1527.83 Q1388.48 1527.83 1386.68 1530.47 Q1385.61 1532.24 1385.61 1536.01 Z" fill="#000000" fill-rule="nonzero" fill-opacity="1" /><polyline clip-path="url(#clip520)" style="stroke:#000000; stroke-linecap:round; stroke-linejoin:round; stroke-width:4; stroke-opacity:1; fill:none" points="207.967,1423.18 207.967,47.2441 "/>
<polyline clip-path="url(#clip520)" style="stroke:#000000; stroke-linecap:round; stroke-linejoin:round; stroke-width:4; stroke-opacity:1; fill:none" points="207.967,1419.3 226.865,1419.3 "/>
<polyline clip-path="url(#clip520)" style="stroke:#000000; stroke-linecap:round; stroke-linejoin:round; stroke-width:4; stroke-opacity:1; fill:none" points="207.967,1030.55 226.865,1030.55 "/>
<polyline clip-path="url(#clip520)" style="stroke:#000000; stroke-linecap:round; stroke-linejoin:round; stroke-width:4; stroke-opacity:1; fill:none" points="207.967,641.806 226.865,641.806 "/>
<polyline clip-path="url(#clip520)" style="stroke:#000000; stroke-linecap:round; stroke-linejoin:round; stroke-width:4; stroke-opacity:1; fill:none" points="207.967,253.058 226.865,253.058 "/>
<path clip-path="url(#clip520)" d="M147.659 1423.22 Q147.956 1423.51 147.956 1423.93 Q147.956 1424.35 147.659 1424.65 Q147.363 1424.95 146.943 1424.95 L115.273 1424.95 Q114.853 1424.95 114.557 1424.65 Q114.26 1424.35 114.26 1423.93 Q114.26 1423.51 114.557 1423.22 Q114.853 1422.92 115.273 1422.92 L146.943 1422.92 Q147.363 1422.92 147.659 1423.22 Z" fill="#000000" fill-rule="nonzero" fill-opacity="1" /><path clip-path="url(#clip520)" d="M155.268 1407.7 L155.268 1406.12 Q161.345 1406.12 164.482 1402.89 Q165.347 1402.89 165.495 1403.08 Q165.643 1403.28 165.643 1404.2 L165.643 1432.58 Q165.643 1434.09 166.384 1434.56 Q167.125 1435.03 170.361 1435.03 L171.967 1435.03 L171.967 1436.58 Q170.189 1436.43 163.766 1436.43 Q157.343 1436.43 155.589 1436.58 L155.589 1435.03 L157.195 1435.03 Q160.381 1435.03 161.147 1434.58 Q161.913 1434.11 161.913 1432.58 L161.913 1406.37 Q159.27 1407.7 155.268 1407.7 Z" fill="#000000" fill-rule="nonzero" fill-opacity="1" /><path clip-path="url(#clip520)" d="M150.673 1031.65 Q150.673 1024.22 152.55 1020.17 Q155.169 1014.14 161.345 1014.14 Q162.654 1014.14 164.013 1014.51 Q165.396 1014.86 167.125 1016.21 Q168.879 1017.57 169.942 1019.8 Q171.967 1024.09 171.967 1031.65 Q171.967 1039.04 170.09 1043.07 Q167.348 1048.95 161.295 1048.95 Q159.023 1048.95 156.701 1047.78 Q154.403 1046.62 152.946 1043.83 Q150.673 1039.66 150.673 1031.65 M154.872 1031.04 Q154.872 1038.67 155.416 1041.71 Q156.034 1044.99 157.713 1046.43 Q159.418 1047.83 161.295 1047.83 Q163.321 1047.83 165.001 1046.33 Q166.705 1044.8 167.224 1041.51 Q167.792 1038.27 167.768 1031.04 Q167.768 1024 167.274 1021.18 Q166.607 1017.89 164.828 1016.58 Q163.074 1015.25 161.295 1015.25 Q160.628 1015.25 159.912 1015.45 Q159.22 1015.65 158.207 1016.21 Q157.195 1016.78 156.404 1018.19 Q155.638 1019.6 155.268 1021.72 Q154.872 1024.46 154.872 1031.04 Z" fill="#000000" fill-rule="nonzero" fill-opacity="1" /><path clip-path="url(#clip520)" d="M155.268 630.208 L155.268 628.627 Q161.345 628.627 164.482 625.391 Q165.347 625.391 165.495 625.588 Q165.643 625.786 165.643 626.7 L165.643 655.084 Q165.643 656.591 166.384 657.06 Q167.125 657.53 170.361 657.53 L171.967 657.53 L171.967 659.086 Q170.189 658.938 163.766 658.938 Q157.343 658.938 155.589 659.086 L155.589 657.53 L157.195 657.53 Q160.381 657.53 161.147 657.085 Q161.913 656.616 161.913 655.084 L161.913 628.874 Q159.27 630.208 155.268 630.208 Z" fill="#000000" fill-rule="nonzero" fill-opacity="1" /><path clip-path="url(#clip520)" d="M151.76 270.338 Q151.76 269.424 151.834 269.152 Q151.933 268.88 152.328 268.46 L162.036 257.64 Q167.348 251.662 167.348 246.45 Q167.348 243.065 165.569 240.644 Q163.815 238.223 160.579 238.223 Q158.356 238.223 156.478 239.582 Q154.601 240.941 153.736 243.362 Q153.884 243.312 154.403 243.312 Q155.663 243.312 156.355 244.103 Q157.071 244.893 157.071 245.955 Q157.071 247.314 156.182 247.981 Q155.317 248.623 154.453 248.623 Q154.107 248.623 153.637 248.549 Q153.193 248.475 152.476 247.784 Q151.76 247.067 151.76 245.807 Q151.76 242.275 154.428 239.459 Q157.12 236.642 161.221 236.642 Q165.865 236.642 168.904 239.409 Q171.967 242.151 171.967 246.45 Q171.967 247.956 171.498 249.34 Q171.053 250.699 170.436 251.761 Q169.843 252.823 168.212 254.528 Q166.582 256.232 165.273 257.443 Q163.963 258.653 161.024 261.222 L155.663 266.435 L164.779 266.435 Q169.225 266.435 169.571 266.039 Q170.065 265.323 170.683 261.543 L171.967 261.543 L170.534 270.338 L151.76 270.338 Z" fill="#000000" fill-rule="nonzero" fill-opacity="1" /><path clip-path="url(#clip520)" d="M43.8213 851.942 Q44.6586 851.942 46.3011 852.168 Q47.9436 852.393 50.3269 852.941 Q52.7101 853.488 55.2222 854.293 Q57.7342 855.066 60.2463 856.29 Q62.7261 857.514 64.6907 858.963 Q66.6552 860.413 67.8791 862.442 Q69.1029 864.47 69.1029 866.757 Q69.1029 867.82 68.9418 868.85 Q68.7808 869.881 68.2655 871.169 Q67.7502 872.458 66.9129 873.391 Q66.0433 874.325 64.4974 874.97 Q62.9516 875.614 60.9226 875.614 Q58.8292 875.614 56.0273 874.841 Q53.1932 874.036 47.3961 871.846 Q44.401 870.718 42.7585 870.718 Q42.0177 870.718 41.5669 870.879 Q41.0838 871.04 40.9227 871.363 Q40.7295 871.685 40.6973 871.878 Q40.6651 872.039 40.6651 872.361 Q40.6651 874.132 42.5008 875.936 Q44.3366 877.739 48.8454 879.028 Q49.6505 879.285 49.8438 879.446 Q50.037 879.607 50.037 880.09 Q50.0048 880.895 49.3607 880.895 Q49.1674 880.895 48.4267 880.67 Q47.6538 880.445 46.4944 880.026 Q45.3027 879.607 44.0789 878.866 Q42.8229 878.126 41.7279 877.224 Q40.6329 876.29 39.9244 874.97 Q39.2158 873.649 39.2158 872.168 Q39.2158 869.752 40.7939 868.271 Q42.3398 866.757 44.6264 866.757 Q45.8825 866.757 47.9114 867.562 Q51.5829 868.915 53.3542 869.527 Q55.1255 870.139 57.6376 870.783 Q60.1496 871.395 61.8888 871.395 Q64.5296 871.395 66.0755 870.171 Q67.6214 868.947 67.6214 866.499 Q67.6214 864.309 66.0433 862.345 Q64.433 860.348 62.1464 859.028 Q59.8276 857.707 57.2511 856.709 Q54.6424 855.71 52.6779 855.26 Q50.6811 854.777 49.7472 854.777 Q46.4944 854.777 44.3688 856.999 Q43.7569 857.611 43.3704 857.836 Q42.9839 858.062 42.372 858.062 Q41.2448 858.062 40.2464 857.063 Q39.2158 856.033 39.2158 854.841 Q39.2158 853.746 40.3108 852.844 Q41.4058 851.942 43.8213 851.942 Z" fill="#000000" fill-rule="nonzero" fill-opacity="1" /><path clip-path="url(#clip520)" d="M63.8651 822.189 Q65.1275 822.189 65.8489 822.978 Q66.5478 823.767 66.5478 824.668 Q66.5478 825.525 66.0518 825.976 Q65.5559 826.427 64.9246 826.427 Q64.068 826.427 63.324 825.796 Q62.58 825.164 62.4222 824.218 Q61.8361 825.142 61.8361 826.517 Q61.8361 827.419 62.3095 828.208 Q62.7829 828.974 63.3916 829.448 Q64.0003 829.899 64.8795 830.304 Q65.7362 830.688 66.2547 830.846 Q66.7507 830.981 67.2918 831.094 L73.6041 832.672 Q76.6025 833.438 77.662 833.438 Q78.9696 833.438 79.8488 832.807 Q80.7055 832.176 80.7055 830.913 Q80.7055 830.417 80.5702 829.854 Q80.4124 829.29 80.0066 828.569 Q79.5783 827.825 78.9471 827.171 Q78.2933 826.495 77.1886 825.841 Q76.084 825.187 74.6637 824.759 Q74.1677 824.623 74.1677 824.172 Q74.1677 823.609 74.6186 823.609 Q75.0018 823.609 75.8134 823.925 Q76.6025 824.218 77.6395 824.871 Q78.654 825.503 79.5783 826.337 Q80.4801 827.171 81.1113 828.411 Q81.7425 829.651 81.7425 831.003 Q81.7425 832.942 80.7055 834.227 Q79.6685 835.512 78.2257 835.986 Q78.4285 836.098 78.6991 836.256 Q78.9696 836.414 79.5783 836.887 Q80.1644 837.338 80.6153 837.857 Q81.0437 838.375 81.3818 839.187 Q81.7425 839.976 81.7425 840.833 Q81.7425 841.915 81.4269 842.884 Q81.1113 843.831 80.3899 844.507 Q79.6685 845.184 78.6765 845.184 Q77.5719 845.184 76.8054 844.44 Q76.0163 843.673 76.0163 842.636 Q76.0163 841.982 76.3996 841.464 Q76.7828 840.923 77.617 840.923 Q78.5413 840.923 79.2401 841.554 Q79.939 842.185 80.1194 843.087 Q80.7055 842.163 80.7055 840.787 Q80.7055 839.3 79.3979 838.127 Q78.0904 836.955 75.9036 836.391 Q70.6508 834.994 68.3062 834.453 Q65.9391 833.912 64.9246 833.912 Q63.9778 833.912 63.324 834.16 Q62.6702 834.408 62.3771 834.836 Q62.0615 835.242 61.9488 835.625 Q61.8361 835.986 61.8361 836.391 Q61.8361 837.068 62.1066 837.834 Q62.3771 838.578 63.0084 839.48 Q63.6171 840.359 64.8795 841.193 Q66.142 842.027 67.8779 842.591 Q68.3964 842.704 68.3964 843.2 Q68.3739 843.741 67.923 843.741 Q67.5397 843.741 66.7507 843.448 Q65.9391 843.132 64.9246 842.501 Q63.9101 841.847 63.0084 841.013 Q62.0841 840.156 61.4528 838.916 Q60.8216 837.654 60.8216 836.301 Q60.8216 835.693 60.9569 835.106 Q61.0696 834.498 61.4078 833.776 Q61.7459 833.032 62.4899 832.379 Q63.2338 831.725 64.3159 831.319 Q63.7974 831.048 63.3015 830.688 Q62.8055 830.304 62.1968 829.718 Q61.5656 829.11 61.2049 828.276 Q60.8216 827.419 60.8216 826.472 Q60.8216 825.548 61.0696 824.646 Q61.295 823.744 62.039 822.978 Q62.7604 822.189 63.8651 822.189 Z" fill="#000000" fill-rule="nonzero" fill-opacity="1" /><path clip-path="url(#clip520)" d="M68.5865 800.846 Q68.3324 800.846 67.7735 800.642 L18.6886 782.274 Q18.6377 782.274 18.3583 782.147 Q18.0788 782.02 17.901 781.943 Q17.6977 781.867 17.5453 781.715 Q17.3928 781.537 17.3928 781.334 Q17.3928 780.826 18.028 780.826 Q18.0788 780.826 18.6886 780.978 L67.8243 799.398 Q68.7135 799.702 68.9676 799.906 Q69.2217 800.084 69.2217 800.388 Q69.2217 800.846 68.5865 800.846 Z" fill="#000000" fill-rule="nonzero" fill-opacity="1" /><path clip-path="url(#clip520)" d="M68.3621 753.514 L66.3332 753.514 Q66.3332 750.004 65.9145 749.199 Q65.4636 748.393 63.338 748.393 L45.657 748.393 Q43.2094 748.393 42.5975 749.263 Q41.9855 750.1 41.9855 753.514 L39.9244 753.514 L39.2158 744.239 L46.1401 744.239 Q39.2158 741.147 39.2158 734.48 Q39.2158 726.751 45.657 725.688 Q43.145 724.561 41.1804 722.21 Q39.2158 719.827 39.2158 716.123 Q39.2158 711.163 41.6635 709.199 Q43.306 707.75 45.1417 707.46 Q46.9774 707.17 51.7439 707.17 L64.3364 707.17 Q65.7213 707.105 66.0433 706.043 Q66.3332 704.98 66.3332 702.017 L68.3621 702.017 Q68.1689 708.748 68.1689 709.392 Q68.1689 709.907 68.3621 716.864 L66.3332 716.864 Q66.3332 713.353 65.9145 712.548 Q65.4636 711.711 63.338 711.711 L47.9758 711.711 Q44.6264 711.711 42.6619 712.741 Q40.6651 713.772 40.6651 716.606 Q40.6651 720.02 43.5314 722.757 Q46.3977 725.495 51.2286 725.495 L63.338 725.495 Q65.4636 725.495 65.9145 724.69 Q66.3332 723.852 66.3332 720.342 L68.3621 720.342 Q68.1689 727.073 68.1689 727.749 Q68.1689 728.265 68.3621 735.189 L66.3332 735.189 Q66.3332 731.679 65.9145 730.873 Q65.4636 730.036 63.338 730.036 L47.9758 730.036 Q44.6264 730.036 42.6619 731.067 Q40.6651 732.097 40.6651 734.931 Q40.6651 738.345 43.5314 741.083 Q46.3977 743.82 51.2286 743.82 L63.338 743.82 Q65.4636 743.82 65.9145 743.015 Q66.3332 742.178 66.3332 738.699 L68.3621 738.699 Q68.1689 745.43 68.1689 746.075 Q68.1689 746.59 68.3621 753.514 Z" fill="#000000" fill-rule="nonzero" fill-opacity="1" /><path clip-path="url(#clip520)" d="M67.4926 690.411 L58.797 690.411 Q58.0563 690.411 57.7986 690.379 Q57.541 690.347 57.3477 690.154 Q57.1545 689.961 57.1545 689.574 Q57.1545 689.123 57.3477 688.962 Q57.541 688.769 58.2817 688.64 Q62.8227 687.642 65.2382 685.516 Q67.6214 683.358 67.6214 679.461 Q67.6214 675.758 65.9789 673.89 Q64.3364 672.022 61.6311 672.022 Q56.8002 672.022 55.5764 678.882 Q54.7713 682.843 54.256 684.486 Q53.7085 686.128 52.5169 687.577 Q50.198 690.411 46.913 690.411 Q43.628 690.411 41.2126 687.932 Q38.7972 685.42 38.7972 679.88 Q38.7972 676.176 40.6651 673.664 Q40.0854 672.924 39.6023 672.537 Q38.7972 671.668 38.7972 671.217 Q38.7972 670.701 39.1514 670.605 Q39.4735 670.508 40.4075 670.508 L47.0419 670.508 Q47.7826 670.508 48.0402 670.54 Q48.2979 670.573 48.4911 670.766 Q48.6522 670.959 48.6522 671.378 Q48.6522 672.119 48.0402 672.151 Q40.0532 672.666 40.0532 679.88 Q40.0532 683.777 41.5669 685.516 Q43.0483 687.255 45.0773 687.255 Q46.2045 687.255 47.0741 686.74 Q47.9114 686.192 48.4267 685.516 Q48.9098 684.808 49.3929 683.519 Q49.8438 682.231 50.0048 681.458 Q50.1658 680.653 50.4879 679.139 Q51.4863 673.858 53.6441 671.635 Q56.4138 668.866 59.9242 668.866 Q63.8211 668.866 66.462 671.507 Q69.1029 674.147 69.1029 679.461 Q69.1029 683.745 66.2366 686.74 Q66.623 687.126 66.9773 687.416 Q67.2993 687.706 67.4282 687.835 Q67.557 687.932 67.6536 687.964 Q67.718 687.996 67.7824 688.06 Q69.1029 689.381 69.1029 689.703 Q69.1029 690.218 68.7486 690.315 Q68.4266 690.411 67.4926 690.411 Z" fill="#000000" fill-rule="nonzero" fill-opacity="1" /><path clip-path="url(#clip520)" d="M36.0228 631.564 Q36.2933 631.293 36.6766 631.293 Q37.0598 631.293 37.3304 631.564 Q37.6009 631.834 37.6009 632.217 L37.6009 661.119 Q37.6009 661.502 37.3304 661.773 Q37.0598 662.043 36.6766 662.043 Q36.2933 662.043 36.0228 661.773 Q35.7523 661.502 35.7523 661.119 L35.7523 632.217 Q35.7523 631.834 36.0228 631.564 Z" fill="#000000" fill-rule="nonzero" fill-opacity="1" /><path clip-path="url(#clip520)" d="M21.8651 626.473 L20.4223 626.473 Q20.4223 620.927 17.469 618.064 Q17.469 617.275 17.6494 617.14 Q17.8297 617.005 18.6639 617.005 L44.567 617.005 Q45.9422 617.005 46.3706 616.328 Q46.7989 615.652 46.7989 612.699 L46.7989 611.234 L48.2192 611.234 Q48.0839 612.857 48.0839 618.718 Q48.0839 624.58 48.2192 626.18 L46.7989 626.18 L46.7989 624.715 Q46.7989 621.807 46.3931 621.108 Q45.9648 620.409 44.567 620.409 L20.6477 620.409 Q21.8651 622.821 21.8651 626.473 Z" fill="#000000" fill-rule="nonzero" fill-opacity="1" /><polyline clip-path="url(#clip521)" style="stroke:#009af9; stroke-linecap:round; stroke-linejoin:round; stroke-width:4; stroke-opacity:1; fill:none" points="1942.97,1384.24 530.143,417.102 969.808,1175.72 1115.71,86.1857 2292.05,1279.28 1345.4,1043.42 814.979,716.203 268.669,1187.17 1573.24,1046.27 383.561,1085.18 "/>
<path clip-path="url(#clip520)" d="M2019.9 196.789 L2281.26 196.789 L2281.26 93.1086 L2019.9 93.1086  Z" fill="#ffffff" fill-rule="evenodd" fill-opacity="1"/>
<polyline clip-path="url(#clip520)" style="stroke:#000000; stroke-linecap:round; stroke-linejoin:round; stroke-width:4; stroke-opacity:1; fill:none" points="2019.9,196.789 2281.26,196.789 2281.26,93.1086 2019.9,93.1086 2019.9,196.789 "/>
<polyline clip-path="url(#clip520)" style="stroke:#009af9; stroke-linecap:round; stroke-linejoin:round; stroke-width:4; stroke-opacity:1; fill:none" points="2043.73,144.949 2186.71,144.949 "/>
<path clip-path="url(#clip520)" d="M2210.54 168.503 Q2210.54 167.441 2211.16 166.873 Q2211.8 166.329 2212.67 166.329 Q2213.58 166.329 2214.18 166.898 Q2214.79 167.49 2214.79 168.454 Q2214.79 170.331 2212.82 170.578 Q2213.78 171.492 2215.19 171.492 Q2216.7 171.492 2217.91 170.381 Q2219.14 169.269 2219.66 168.207 Q2220.2 167.145 2220.97 165.218 Q2221.69 163.711 2222.23 162.229 L2214.65 143.751 Q2214.15 142.54 2213.39 142.268 Q2212.62 141.997 2210.54 141.997 L2210.54 140.416 Q2212.82 140.564 2215.46 140.564 Q2217.02 140.564 2220.97 140.416 L2220.97 141.997 Q2218.13 141.997 2218.13 143.306 Q2218.13 143.454 2218.43 144.22 L2224.06 157.831 L2229.17 145.381 Q2229.47 144.665 2229.47 144.17 Q2229.47 142.095 2227.1 141.997 L2227.1 140.416 Q2230.43 140.564 2231.49 140.564 Q2233.57 140.564 2235.27 140.416 L2235.27 141.997 Q2231.89 141.997 2230.58 145.233 L2221.66 166.823 Q2219.24 172.579 2215.19 172.604 Q2213.26 172.604 2211.9 171.418 Q2210.54 170.233 2210.54 168.503 Z" fill="#000000" fill-rule="nonzero" fill-opacity="1" /><path clip-path="url(#clip520)" d="M2240.73 133.35 L2240.73 131.769 Q2246.81 131.769 2249.95 128.533 Q2250.81 128.533 2250.96 128.731 Q2251.11 128.928 2251.11 129.843 L2251.11 158.227 Q2251.11 159.734 2251.85 160.203 Q2252.59 160.672 2255.83 160.672 L2257.43 160.672 L2257.43 162.229 Q2255.65 162.08 2249.23 162.08 Q2242.81 162.08 2241.05 162.229 L2241.05 160.672 L2242.66 160.672 Q2245.85 160.672 2246.61 160.228 Q2247.38 159.758 2247.38 158.227 L2247.38 132.016 Q2244.73 133.35 2240.73 133.35 Z" fill="#000000" fill-rule="nonzero" fill-opacity="1" /></svg>
