<?xml version="1.0" encoding="utf-8"?>
<svg xmlns="http://www.w3.org/2000/svg" xmlns:xlink="http://www.w3.org/1999/xlink" width="600" height="400" viewBox="0 0 2400 1600">
<defs>
  <clipPath id="clip160">
    <rect x="0" y="0" width="2400" height="1600"/>
  </clipPath>
</defs>
<path clip-path="url(#clip160)" d="M0 1600 L2400 1600 L2400 0 L0 0  Z" fill="#ffffff" fill-rule="evenodd" fill-opacity="1"/>
<defs>
  <clipPath id="clip161">
    <rect x="249" y="47" width="2104" height="1377"/>
  </clipPath>
</defs>
<path clip-path="url(#clip160)" d="M249.395 1423.18 L2352.76 1423.18 L2352.76 47.2441 L249.395 47.2441  Z" fill="#ffffff" fill-rule="evenodd" fill-opacity="1"/>
<polyline clip-path="url(#clip161)" style="stroke:#000000; stroke-linecap:round; stroke-linejoin:round; stroke-width:2; stroke-opacity:0.1; fill:none" points="487.624,1423.18 487.624,47.2441 "/>
<polyline clip-path="url(#clip161)" style="stroke:#000000; stroke-linecap:round; stroke-linejoin:round; stroke-width:2; stroke-opacity:0.1; fill:none" points="946.121,1423.18 946.121,47.2441 "/>
<polyline clip-path="url(#clip161)" style="stroke:#000000; stroke-linecap:round; stroke-linejoin:round; stroke-width:2; stroke-opacity:0.1; fill:none" points="1404.62,1423.18 1404.62,47.2441 "/>
<polyline clip-path="url(#clip161)" style="stroke:#000000; stroke-linecap:round; stroke-linejoin:round; stroke-width:2; stroke-opacity:0.1; fill:none" points="1863.11,1423.18 1863.11,47.2441 "/>
<polyline clip-path="url(#clip161)" style="stroke:#000000; stroke-linecap:round; stroke-linejoin:round; stroke-width:2; stroke-opacity:0.1; fill:none" points="2321.61,1423.18 2321.61,47.2441 "/>
<polyline clip-path="url(#clip161)" style="stroke:#000000; stroke-linecap:round; stroke-linejoin:round; stroke-width:2; stroke-opacity:0.1; fill:none" points="249.395,1218.03 2352.76,1218.03 "/>
<polyline clip-path="url(#clip161)" style="stroke:#000000; stroke-linecap:round; stroke-linejoin:round; stroke-width:2; stroke-opacity:0.1; fill:none" points="249.395,1005.56 2352.76,1005.56 "/>
<polyline clip-path="url(#clip161)" style="stroke:#000000; stroke-linecap:round; stroke-linejoin:round; stroke-width:2; stroke-opacity:0.1; fill:none" points="249.395,793.085 2352.76,793.085 "/>
<polyline clip-path="url(#clip161)" style="stroke:#000000; stroke-linecap:round; stroke-linejoin:round; stroke-width:2; stroke-opacity:0.1; fill:none" points="249.395,580.612 2352.76,580.612 "/>
<polyline clip-path="url(#clip161)" style="stroke:#000000; stroke-linecap:round; stroke-linejoin:round; stroke-width:2; stroke-opacity:0.1; fill:none" points="249.395,368.14 2352.76,368.14 "/>
<polyline clip-path="url(#clip161)" style="stroke:#000000; stroke-linecap:round; stroke-linejoin:round; stroke-width:2; stroke-opacity:0.1; fill:none" points="249.395,155.667 2352.76,155.667 "/>
<polyline clip-path="url(#clip160)" style="stroke:#000000; stroke-linecap:round; stroke-linejoin:round; stroke-width:4; stroke-opacity:1; fill:none" points="249.395,1423.18 2352.76,1423.18 "/>
<polyline clip-path="url(#clip160)" style="stroke:#000000; stroke-linecap:round; stroke-linejoin:round; stroke-width:4; stroke-opacity:1; fill:none" points="487.624,1423.18 487.624,1404.28 "/>
<polyline clip-path="url(#clip160)" style="stroke:#000000; stroke-linecap:round; stroke-linejoin:round; stroke-width:4; stroke-opacity:1; fill:none" points="946.121,1423.18 946.121,1404.28 "/>
<polyline clip-path="url(#clip160)" style="stroke:#000000; stroke-linecap:round; stroke-linejoin:round; stroke-width:4; stroke-opacity:1; fill:none" points="1404.62,1423.18 1404.62,1404.28 "/>
<polyline clip-path="url(#clip160)" style="stroke:#000000; stroke-linecap:round; stroke-linejoin:round; stroke-width:4; stroke-opacity:1; fill:none" points="1863.11,1423.18 1863.11,1404.28 "/>
<polyline clip-path="url(#clip160)" style="stroke:#000000; stroke-linecap:round; stroke-linejoin:round; stroke-width:4; stroke-opacity:1; fill:none" points="2321.61,1423.18 2321.61,1404.28 "/>
<path clip-path="url(#clip160)" d="M471.727 1472.22 Q472.024 1472.51 472.024 1472.93 Q472.024 1473.35 471.727 1473.65 Q471.431 1473.94 471.011 1473.94 L439.341 1473.94 Q438.921 1473.94 438.625 1473.65 Q438.329 1473.35 438.329 1472.93 Q438.329 1472.51 438.625 1472.22 Q438.921 1471.92 439.341 1471.92 L471.011 1471.92 Q471.431 1471.92 471.727 1472.22 Z" fill="#000000" fill-rule="nonzero" fill-opacity="1" /><path clip-path="url(#clip160)" d="M479.336 1456.7 L479.336 1455.12 Q485.413 1455.12 488.55 1451.88 Q489.415 1451.88 489.563 1452.08 Q489.711 1452.28 489.711 1453.19 L489.711 1481.58 Q489.711 1483.08 490.453 1483.55 Q491.194 1484.02 494.43 1484.02 L496.036 1484.02 L496.036 1485.58 Q494.257 1485.43 487.834 1485.43 Q481.411 1485.43 479.657 1485.58 L479.657 1484.02 L481.263 1484.02 Q484.45 1484.02 485.215 1483.58 Q485.981 1483.11 485.981 1481.58 L485.981 1455.37 Q483.338 1456.7 479.336 1456.7 Z" fill="#000000" fill-rule="nonzero" fill-opacity="1" /><path clip-path="url(#clip160)" d="M505.201 1484.76 Q504.435 1483.95 504.435 1482.89 Q504.435 1481.82 505.201 1481.06 Q505.966 1480.27 507.127 1480.27 Q508.239 1480.27 508.98 1481.01 Q509.746 1481.73 509.746 1482.91 Q509.746 1484.07 508.931 1484.84 Q508.14 1485.58 507.127 1485.58 Q505.966 1485.58 505.201 1484.76 Z" fill="#000000" fill-rule="nonzero" fill-opacity="1" /><path clip-path="url(#clip160)" d="M516.712 1477.43 Q516.712 1475.92 517.527 1475.35 Q518.343 1474.76 519.207 1474.76 Q520.368 1474.76 521.035 1475.5 Q521.727 1476.22 521.727 1477.23 Q521.727 1478.24 521.035 1478.98 Q520.368 1479.7 519.207 1479.7 Q518.639 1479.7 518.343 1479.6 Q519.01 1481.92 521.035 1483.6 Q523.086 1485.28 525.778 1485.28 Q529.163 1485.28 531.188 1482 Q532.399 1479.87 532.399 1475.06 Q532.399 1470.81 531.485 1468.68 Q530.077 1465.45 527.186 1465.45 Q523.086 1465.45 520.665 1468.98 Q520.368 1469.42 520.023 1469.45 Q519.528 1469.45 519.405 1469.18 Q519.306 1468.88 519.306 1468.11 L519.306 1453.14 Q519.306 1451.93 519.8 1451.93 Q519.998 1451.93 520.418 1452.08 Q523.605 1453.49 527.137 1453.51 Q530.768 1453.51 534.029 1452.03 Q534.276 1451.88 534.425 1451.88 Q534.919 1451.88 534.943 1452.45 Q534.943 1452.65 534.523 1453.24 Q534.128 1453.81 533.264 1454.58 Q532.399 1455.32 531.287 1456.03 Q530.176 1456.75 528.545 1457.25 Q526.939 1457.71 525.161 1457.71 Q523.036 1457.71 520.862 1457.05 L520.862 1466.9 Q523.481 1464.33 527.285 1464.33 Q531.337 1464.33 534.128 1467.6 Q536.92 1470.86 536.92 1475.4 Q536.92 1480.17 533.609 1483.43 Q530.324 1486.69 525.877 1486.69 Q521.826 1486.69 519.257 1483.8 Q516.712 1480.91 516.712 1477.43 Z" fill="#000000" fill-rule="nonzero" fill-opacity="1" /><path clip-path="url(#clip160)" d="M929.952 1472.22 Q930.249 1472.51 930.249 1472.93 Q930.249 1473.35 929.952 1473.65 Q929.656 1473.94 929.236 1473.94 L897.566 1473.94 Q897.146 1473.94 896.85 1473.65 Q896.553 1473.35 896.553 1472.93 Q896.553 1472.51 896.85 1472.22 Q897.146 1471.92 897.566 1471.92 L929.236 1471.92 Q929.656 1471.92 929.952 1472.22 Z" fill="#000000" fill-rule="nonzero" fill-opacity="1" /><path clip-path="url(#clip160)" d="M937.561 1456.7 L937.561 1455.12 Q943.638 1455.12 946.775 1451.88 Q947.64 1451.88 947.788 1452.08 Q947.936 1452.28 947.936 1453.19 L947.936 1481.58 Q947.936 1483.08 948.677 1483.55 Q949.418 1484.02 952.655 1484.02 L954.26 1484.02 L954.26 1485.58 Q952.482 1485.43 946.059 1485.43 Q939.636 1485.43 937.882 1485.58 L937.882 1484.02 L939.488 1484.02 Q942.674 1484.02 943.44 1483.58 Q944.206 1483.11 944.206 1481.58 L944.206 1455.37 Q941.563 1456.7 937.561 1456.7 Z" fill="#000000" fill-rule="nonzero" fill-opacity="1" /><path clip-path="url(#clip160)" d="M963.425 1484.76 Q962.659 1483.95 962.659 1482.89 Q962.659 1481.82 963.425 1481.06 Q964.191 1480.27 965.352 1480.27 Q966.464 1480.27 967.205 1481.01 Q967.971 1481.73 967.971 1482.91 Q967.971 1484.07 967.155 1484.84 Q966.365 1485.58 965.352 1485.58 Q964.191 1485.58 963.425 1484.76 Z" fill="#000000" fill-rule="nonzero" fill-opacity="1" /><path clip-path="url(#clip160)" d="M974.394 1469.4 Q974.394 1461.96 976.271 1457.91 Q978.89 1451.88 985.065 1451.88 Q986.375 1451.88 987.733 1452.26 Q989.117 1452.6 990.846 1453.96 Q992.6 1455.32 993.662 1457.54 Q995.688 1461.84 995.688 1469.4 Q995.688 1476.79 993.81 1480.81 Q991.068 1486.69 985.016 1486.69 Q982.743 1486.69 980.421 1485.53 Q978.124 1484.37 976.666 1481.58 Q974.394 1477.4 974.394 1469.4 M978.593 1468.78 Q978.593 1476.41 979.137 1479.45 Q979.754 1482.74 981.434 1484.17 Q983.139 1485.58 985.016 1485.58 Q987.042 1485.58 988.721 1484.07 Q990.426 1482.54 990.945 1479.26 Q991.513 1476.02 991.488 1468.78 Q991.488 1461.74 990.994 1458.92 Q990.327 1455.64 988.549 1454.33 Q986.795 1453 985.016 1453 Q984.349 1453 983.633 1453.19 Q982.941 1453.39 981.928 1453.96 Q980.915 1454.53 980.125 1455.94 Q979.359 1457.34 978.988 1459.47 Q978.593 1462.21 978.593 1468.78 Z" fill="#000000" fill-rule="nonzero" fill-opacity="1" /><path clip-path="url(#clip160)" d="M1388.72 1472.22 Q1389.02 1472.51 1389.02 1472.93 Q1389.02 1473.35 1388.72 1473.65 Q1388.42 1473.94 1388 1473.94 L1356.33 1473.94 Q1355.91 1473.94 1355.62 1473.65 Q1355.32 1473.35 1355.32 1472.93 Q1355.32 1472.51 1355.62 1472.22 Q1355.91 1471.92 1356.33 1471.92 L1388 1471.92 Q1388.42 1471.92 1388.72 1472.22 Z" fill="#000000" fill-rule="nonzero" fill-opacity="1" /><path clip-path="url(#clip160)" d="M1393.81 1469.4 Q1393.81 1461.96 1395.69 1457.91 Q1398.31 1451.88 1404.48 1451.88 Q1405.79 1451.88 1407.15 1452.26 Q1408.53 1452.6 1410.26 1453.96 Q1412.02 1455.32 1413.08 1457.54 Q1415.1 1461.84 1415.1 1469.4 Q1415.1 1476.79 1413.23 1480.81 Q1410.48 1486.69 1404.43 1486.69 Q1402.16 1486.69 1399.84 1485.53 Q1397.54 1484.37 1396.08 1481.58 Q1393.81 1477.4 1393.81 1469.4 M1398.01 1468.78 Q1398.01 1476.41 1398.55 1479.45 Q1399.17 1482.74 1400.85 1484.17 Q1402.55 1485.58 1404.43 1485.58 Q1406.46 1485.58 1408.14 1484.07 Q1409.84 1482.54 1410.36 1479.26 Q1410.93 1476.02 1410.9 1468.78 Q1410.9 1461.74 1410.41 1458.92 Q1409.74 1455.64 1407.96 1454.33 Q1406.21 1453 1404.43 1453 Q1403.76 1453 1403.05 1453.19 Q1402.36 1453.39 1401.34 1453.96 Q1400.33 1454.53 1399.54 1455.94 Q1398.77 1457.34 1398.4 1459.47 Q1398.01 1462.21 1398.01 1468.78 Z" fill="#000000" fill-rule="nonzero" fill-opacity="1" /><path clip-path="url(#clip160)" d="M1422.19 1484.76 Q1421.43 1483.95 1421.43 1482.89 Q1421.43 1481.82 1422.19 1481.06 Q1422.96 1480.27 1424.12 1480.27 Q1425.23 1480.27 1425.97 1481.01 Q1426.74 1481.73 1426.74 1482.91 Q1426.74 1484.07 1425.92 1484.84 Q1425.13 1485.58 1424.12 1485.58 Q1422.96 1485.58 1422.19 1484.76 Z" fill="#000000" fill-rule="nonzero" fill-opacity="1" /><path clip-path="url(#clip160)" d="M1433.71 1477.43 Q1433.71 1475.92 1434.52 1475.35 Q1435.34 1474.76 1436.2 1474.76 Q1437.36 1474.76 1438.03 1475.5 Q1438.72 1476.22 1438.72 1477.23 Q1438.72 1478.24 1438.03 1478.98 Q1437.36 1479.7 1436.2 1479.7 Q1435.63 1479.7 1435.34 1479.6 Q1436 1481.92 1438.03 1483.6 Q1440.08 1485.28 1442.77 1485.28 Q1446.16 1485.28 1448.18 1482 Q1449.39 1479.87 1449.39 1475.06 Q1449.39 1470.81 1448.48 1468.68 Q1447.07 1465.45 1444.18 1465.45 Q1440.08 1465.45 1437.66 1468.98 Q1437.36 1469.42 1437.02 1469.45 Q1436.52 1469.45 1436.4 1469.18 Q1436.3 1468.88 1436.3 1468.11 L1436.3 1453.14 Q1436.3 1451.93 1436.79 1451.93 Q1436.99 1451.93 1437.41 1452.08 Q1440.6 1453.49 1444.13 1453.51 Q1447.76 1453.51 1451.02 1452.03 Q1451.27 1451.88 1451.42 1451.88 Q1451.91 1451.88 1451.94 1452.45 Q1451.94 1452.65 1451.52 1453.24 Q1451.12 1453.81 1450.26 1454.58 Q1449.39 1455.32 1448.28 1456.03 Q1447.17 1456.75 1445.54 1457.25 Q1443.93 1457.71 1442.15 1457.71 Q1440.03 1457.71 1437.86 1457.05 L1437.86 1466.9 Q1440.47 1464.33 1444.28 1464.33 Q1448.33 1464.33 1451.12 1467.6 Q1453.91 1470.86 1453.91 1475.4 Q1453.91 1480.17 1450.6 1483.43 Q1447.32 1486.69 1442.87 1486.69 Q1438.82 1486.69 1436.25 1483.8 Q1433.71 1480.91 1433.71 1477.43 Z" fill="#000000" fill-rule="nonzero" fill-opacity="1" /><path clip-path="url(#clip160)" d="M1832.79 1469.4 Q1832.79 1461.96 1834.67 1457.91 Q1837.29 1451.88 1843.46 1451.88 Q1844.77 1451.88 1846.13 1452.26 Q1847.51 1452.6 1849.24 1453.96 Q1851 1455.32 1852.06 1457.54 Q1854.08 1461.84 1854.08 1469.4 Q1854.08 1476.79 1852.21 1480.81 Q1849.46 1486.69 1843.41 1486.69 Q1841.14 1486.69 1838.82 1485.53 Q1836.52 1484.37 1835.06 1481.58 Q1832.79 1477.4 1832.79 1469.4 M1836.99 1468.78 Q1836.99 1476.41 1837.53 1479.45 Q1838.15 1482.74 1839.83 1484.17 Q1841.54 1485.58 1843.41 1485.58 Q1845.44 1485.58 1847.12 1484.07 Q1848.82 1482.54 1849.34 1479.26 Q1849.91 1476.02 1849.88 1468.78 Q1849.88 1461.74 1849.39 1458.92 Q1848.72 1455.64 1846.95 1454.33 Q1845.19 1453 1843.41 1453 Q1842.75 1453 1842.03 1453.19 Q1841.34 1453.39 1840.32 1453.96 Q1839.31 1454.53 1838.52 1455.94 Q1837.76 1457.34 1837.38 1459.47 Q1836.99 1462.21 1836.99 1468.78 Z" fill="#000000" fill-rule="nonzero" fill-opacity="1" /><path clip-path="url(#clip160)" d="M1861.17 1484.76 Q1860.41 1483.95 1860.41 1482.89 Q1860.41 1481.82 1861.17 1481.06 Q1861.94 1480.27 1863.1 1480.27 Q1864.21 1480.27 1864.95 1481.01 Q1865.72 1481.73 1865.72 1482.91 Q1865.72 1484.07 1864.9 1484.84 Q1864.11 1485.58 1863.1 1485.58 Q1861.94 1485.58 1861.17 1484.76 Z" fill="#000000" fill-rule="nonzero" fill-opacity="1" /><path clip-path="url(#clip160)" d="M1872.14 1469.4 Q1872.14 1461.96 1874.02 1457.91 Q1876.64 1451.88 1882.81 1451.88 Q1884.12 1451.88 1885.48 1452.26 Q1886.87 1452.6 1888.6 1453.96 Q1890.35 1455.32 1891.41 1457.54 Q1893.44 1461.84 1893.44 1469.4 Q1893.44 1476.79 1891.56 1480.81 Q1888.82 1486.69 1882.77 1486.69 Q1880.49 1486.69 1878.17 1485.53 Q1875.87 1484.37 1874.42 1481.58 Q1872.14 1477.4 1872.14 1469.4 M1876.34 1468.78 Q1876.34 1476.41 1876.89 1479.45 Q1877.5 1482.74 1879.18 1484.17 Q1880.89 1485.58 1882.77 1485.58 Q1884.79 1485.58 1886.47 1484.07 Q1888.18 1482.54 1888.69 1479.26 Q1889.26 1476.02 1889.24 1468.78 Q1889.24 1461.74 1888.74 1458.92 Q1888.08 1455.64 1886.3 1454.33 Q1884.54 1453 1882.77 1453 Q1882.1 1453 1881.38 1453.19 Q1880.69 1453.39 1879.68 1453.96 Q1878.66 1454.53 1877.87 1455.94 Q1877.11 1457.34 1876.74 1459.47 Q1876.34 1462.21 1876.34 1468.78 Z" fill="#000000" fill-rule="nonzero" fill-opacity="1" /><path clip-path="url(#clip160)" d="M2291.56 1469.4 Q2291.56 1461.96 2293.44 1457.91 Q2296.05 1451.88 2302.23 1451.88 Q2303.54 1451.88 2304.9 1452.26 Q2306.28 1452.6 2308.01 1453.96 Q2309.76 1455.32 2310.83 1457.54 Q2312.85 1461.84 2312.85 1469.4 Q2312.85 1476.79 2310.98 1480.81 Q2308.23 1486.69 2302.18 1486.69 Q2299.91 1486.69 2297.59 1485.53 Q2295.29 1484.37 2293.83 1481.58 Q2291.56 1477.4 2291.56 1469.4 M2295.76 1468.78 Q2295.76 1476.41 2296.3 1479.45 Q2296.92 1482.74 2298.6 1484.17 Q2300.3 1485.58 2302.18 1485.58 Q2304.21 1485.58 2305.89 1484.07 Q2307.59 1482.54 2308.11 1479.26 Q2308.68 1476.02 2308.65 1468.78 Q2308.65 1461.74 2308.16 1458.92 Q2307.49 1455.64 2305.71 1454.33 Q2303.96 1453 2302.18 1453 Q2301.51 1453 2300.8 1453.19 Q2300.11 1453.39 2299.09 1453.96 Q2298.08 1454.53 2297.29 1455.94 Q2296.52 1457.34 2296.15 1459.47 Q2295.76 1462.21 2295.76 1468.78 Z" fill="#000000" fill-rule="nonzero" fill-opacity="1" /><path clip-path="url(#clip160)" d="M2319.94 1484.76 Q2319.18 1483.95 2319.18 1482.89 Q2319.18 1481.82 2319.94 1481.06 Q2320.71 1480.27 2321.87 1480.27 Q2322.98 1480.27 2323.72 1481.01 Q2324.49 1481.73 2324.49 1482.91 Q2324.49 1484.07 2323.67 1484.84 Q2322.88 1485.58 2321.87 1485.58 Q2320.71 1485.58 2319.94 1484.76 Z" fill="#000000" fill-rule="nonzero" fill-opacity="1" /><path clip-path="url(#clip160)" d="M2331.45 1477.43 Q2331.45 1475.92 2332.27 1475.35 Q2333.08 1474.76 2333.95 1474.76 Q2335.11 1474.76 2335.78 1475.5 Q2336.47 1476.22 2336.47 1477.23 Q2336.47 1478.24 2335.78 1478.98 Q2335.11 1479.7 2333.95 1479.7 Q2333.38 1479.7 2333.08 1479.6 Q2333.75 1481.92 2335.78 1483.6 Q2337.83 1485.28 2340.52 1485.28 Q2343.9 1485.28 2345.93 1482 Q2347.14 1479.87 2347.14 1475.06 Q2347.14 1470.81 2346.23 1468.68 Q2344.82 1465.45 2341.93 1465.45 Q2337.83 1465.45 2335.41 1468.98 Q2335.11 1469.42 2334.76 1469.45 Q2334.27 1469.45 2334.15 1469.18 Q2334.05 1468.88 2334.05 1468.11 L2334.05 1453.14 Q2334.05 1451.93 2334.54 1451.93 Q2334.74 1451.93 2335.16 1452.08 Q2338.35 1453.49 2341.88 1453.51 Q2345.51 1453.51 2348.77 1452.03 Q2349.02 1451.88 2349.17 1451.88 Q2349.66 1451.88 2349.69 1452.45 Q2349.69 1452.65 2349.27 1453.24 Q2348.87 1453.81 2348.01 1454.58 Q2347.14 1455.32 2346.03 1456.03 Q2344.92 1456.75 2343.29 1457.25 Q2341.68 1457.71 2339.9 1457.71 Q2337.78 1457.71 2335.6 1457.05 L2335.6 1466.9 Q2338.22 1464.33 2342.03 1464.33 Q2346.08 1464.33 2348.87 1467.6 Q2351.66 1470.86 2351.66 1475.4 Q2351.66 1480.17 2348.35 1483.43 Q2345.07 1486.69 2340.62 1486.69 Q2336.57 1486.69 2334 1483.8 Q2331.45 1480.91 2331.45 1477.43 Z" fill="#000000" fill-rule="nonzero" fill-opacity="1" /><path clip-path="url(#clip160)" d="M1163.17 1555.46 L1163.17 1553.43 Q1166.68 1553.43 1167.49 1553.01 Q1168.29 1552.56 1168.29 1550.44 L1168.29 1532.76 Q1168.29 1530.31 1167.42 1529.7 Q1166.59 1529.08 1163.17 1529.08 L1163.17 1527.02 L1172.45 1526.32 L1172.45 1533.24 Q1175.54 1526.32 1182.21 1526.32 Q1189.94 1526.32 1191 1532.76 Q1192.13 1530.24 1194.48 1528.28 Q1196.86 1526.32 1200.56 1526.32 Q1205.52 1526.32 1207.49 1528.76 Q1208.94 1530.41 1209.23 1532.24 Q1209.52 1534.08 1209.52 1538.84 L1209.52 1551.44 Q1209.58 1552.82 1210.64 1553.14 Q1211.71 1553.43 1214.67 1553.43 L1214.67 1555.46 Q1207.94 1555.27 1207.29 1555.27 Q1206.78 1555.27 1199.82 1555.46 L1199.82 1553.43 Q1203.33 1553.43 1204.14 1553.01 Q1204.98 1552.56 1204.98 1550.44 L1204.98 1535.08 Q1204.98 1531.73 1203.95 1529.76 Q1202.91 1527.76 1200.08 1527.76 Q1196.67 1527.76 1193.93 1530.63 Q1191.19 1533.5 1191.19 1538.33 L1191.19 1550.44 Q1191.19 1552.56 1192 1553.01 Q1192.83 1553.43 1196.34 1553.43 L1196.34 1555.46 Q1189.61 1555.27 1188.94 1555.27 Q1188.42 1555.27 1181.5 1555.46 L1181.5 1553.43 Q1185.01 1553.43 1185.81 1553.01 Q1186.65 1552.56 1186.65 1550.44 L1186.65 1535.08 Q1186.65 1531.73 1185.62 1529.76 Q1184.59 1527.76 1181.76 1527.76 Q1178.34 1527.76 1175.6 1530.63 Q1172.87 1533.5 1172.87 1538.33 L1172.87 1550.44 Q1172.87 1552.56 1173.67 1553.01 Q1174.51 1553.43 1177.99 1553.43 L1177.99 1555.46 Q1171.26 1555.27 1170.61 1555.27 Q1170.1 1555.27 1163.17 1555.46 Z" fill="#000000" fill-rule="nonzero" fill-opacity="1" /><path clip-path="url(#clip160)" d="M1218.35 1549.18 Q1218.35 1543.58 1224.95 1540.61 Q1228.92 1538.71 1237.1 1538.23 L1237.1 1535.82 Q1237.1 1531.73 1234.94 1529.57 Q1232.81 1527.38 1230.11 1527.38 Q1225.28 1527.38 1222.96 1530.41 Q1224.92 1530.47 1225.63 1531.47 Q1226.34 1532.43 1226.34 1533.43 Q1226.34 1534.75 1225.5 1535.62 Q1224.7 1536.46 1223.31 1536.46 Q1221.99 1536.46 1221.12 1535.65 Q1220.25 1534.82 1220.25 1533.37 Q1220.25 1530.15 1223.15 1528.02 Q1226.08 1525.9 1230.24 1525.9 Q1235.65 1525.9 1239.25 1529.54 Q1240.38 1530.66 1240.93 1532.11 Q1241.51 1533.56 1241.57 1534.53 Q1241.64 1535.46 1241.64 1537.33 L1241.64 1550.5 Q1241.64 1550.89 1241.77 1551.53 Q1241.89 1552.18 1242.47 1553.01 Q1243.09 1553.82 1244.08 1553.82 Q1246.47 1553.82 1246.44 1549.6 L1246.44 1545.9 L1248.11 1545.9 L1248.11 1549.6 Q1248.11 1553.11 1246.24 1554.5 Q1244.41 1555.85 1242.7 1555.85 Q1240.51 1555.85 1239.12 1554.24 Q1237.74 1552.63 1237.55 1550.44 Q1236.55 1552.95 1234.26 1554.59 Q1232.01 1556.2 1228.92 1556.2 Q1226.53 1556.2 1224.28 1555.59 Q1222.06 1555.01 1220.19 1553.37 Q1218.35 1551.69 1218.35 1549.18 M1223.44 1549.12 Q1223.44 1551.56 1225.18 1553.14 Q1226.92 1554.72 1229.37 1554.72 Q1232.14 1554.72 1234.62 1552.6 Q1237.1 1550.44 1237.1 1546.22 L1237.1 1539.62 Q1229.78 1539.87 1226.6 1542.8 Q1223.44 1545.7 1223.44 1549.12 Z" fill="#000000" fill-rule="nonzero" fill-opacity="1" /><path clip-path="url(#clip160)" d="M1251.02 1554.59 L1251.02 1545.9 Q1251.02 1545.16 1251.05 1544.9 Q1251.08 1544.64 1251.27 1544.45 Q1251.47 1544.25 1251.85 1544.25 Q1252.3 1544.25 1252.47 1544.45 Q1252.66 1544.64 1252.79 1545.38 Q1253.79 1549.92 1255.91 1552.34 Q1258.07 1554.72 1261.97 1554.72 Q1265.67 1554.72 1267.54 1553.08 Q1269.41 1551.44 1269.41 1548.73 Q1269.41 1543.9 1262.55 1542.68 Q1258.58 1541.87 1256.94 1541.36 Q1255.3 1540.81 1253.85 1539.62 Q1251.02 1537.3 1251.02 1534.01 Q1251.02 1530.73 1253.5 1528.31 Q1256.01 1525.9 1261.55 1525.9 Q1265.25 1525.9 1267.76 1527.76 Q1268.5 1527.18 1268.89 1526.7 Q1269.76 1525.9 1270.21 1525.9 Q1270.73 1525.9 1270.82 1526.25 Q1270.92 1526.57 1270.92 1527.51 L1270.92 1534.14 Q1270.92 1534.88 1270.89 1535.14 Q1270.85 1535.4 1270.66 1535.59 Q1270.47 1535.75 1270.05 1535.75 Q1269.31 1535.75 1269.28 1535.14 Q1268.76 1527.15 1261.55 1527.15 Q1257.65 1527.15 1255.91 1528.67 Q1254.17 1530.15 1254.17 1532.18 Q1254.17 1533.3 1254.69 1534.17 Q1255.23 1535.01 1255.91 1535.53 Q1256.62 1536.01 1257.91 1536.49 Q1259.2 1536.94 1259.97 1537.1 Q1260.77 1537.27 1262.29 1537.59 Q1267.57 1538.59 1269.79 1540.74 Q1272.56 1543.51 1272.56 1547.02 Q1272.56 1550.92 1269.92 1553.56 Q1267.28 1556.2 1261.97 1556.2 Q1257.68 1556.2 1254.69 1553.34 Q1254.3 1553.72 1254.01 1554.08 Q1253.72 1554.4 1253.59 1554.53 Q1253.5 1554.66 1253.46 1554.75 Q1253.43 1554.82 1253.37 1554.88 Q1252.05 1556.2 1251.72 1556.2 Q1251.21 1556.2 1251.11 1555.85 Q1251.02 1555.53 1251.02 1554.59 Z" fill="#000000" fill-rule="nonzero" fill-opacity="1" /><path clip-path="url(#clip160)" d="M1276.46 1554.59 L1276.46 1545.9 Q1276.46 1545.16 1276.49 1544.9 Q1276.53 1544.64 1276.72 1544.45 Q1276.91 1544.25 1277.3 1544.25 Q1277.75 1544.25 1277.91 1544.45 Q1278.1 1544.64 1278.23 1545.38 Q1279.23 1549.92 1281.36 1552.34 Q1283.52 1554.72 1287.41 1554.72 Q1291.12 1554.72 1292.98 1553.08 Q1294.85 1551.44 1294.85 1548.73 Q1294.85 1543.9 1287.99 1542.68 Q1284.03 1541.87 1282.39 1541.36 Q1280.75 1540.81 1279.3 1539.62 Q1276.46 1537.3 1276.46 1534.01 Q1276.46 1530.73 1278.94 1528.31 Q1281.45 1525.9 1286.99 1525.9 Q1290.7 1525.9 1293.21 1527.76 Q1293.95 1527.18 1294.34 1526.7 Q1295.21 1525.9 1295.66 1525.9 Q1296.17 1525.9 1296.27 1526.25 Q1296.37 1526.57 1296.37 1527.51 L1296.37 1534.14 Q1296.37 1534.88 1296.33 1535.14 Q1296.3 1535.4 1296.11 1535.59 Q1295.91 1535.75 1295.5 1535.75 Q1294.76 1535.75 1294.72 1535.14 Q1294.21 1527.15 1286.99 1527.15 Q1283.1 1527.15 1281.36 1528.67 Q1279.62 1530.15 1279.62 1532.18 Q1279.62 1533.3 1280.13 1534.17 Q1280.68 1535.01 1281.36 1535.53 Q1282.07 1536.01 1283.35 1536.49 Q1284.64 1536.94 1285.42 1537.1 Q1286.22 1537.27 1287.73 1537.59 Q1293.02 1538.59 1295.24 1540.74 Q1298.01 1543.51 1298.01 1547.02 Q1298.01 1550.92 1295.37 1553.56 Q1292.73 1556.2 1287.41 1556.2 Q1283.13 1556.2 1280.13 1553.34 Q1279.75 1553.72 1279.46 1554.08 Q1279.17 1554.4 1279.04 1554.53 Q1278.94 1554.66 1278.91 1554.75 Q1278.88 1554.82 1278.81 1554.88 Q1277.49 1556.2 1277.17 1556.2 Q1276.66 1556.2 1276.56 1555.85 Q1276.46 1555.53 1276.46 1554.59 Z" fill="#000000" fill-rule="nonzero" fill-opacity="1" /><path clip-path="url(#clip160)" d="M1316.7 1568.34 Q1316.7 1568.05 1316.93 1567.41 L1337.97 1511.2 Q1337.97 1511.14 1338.11 1510.82 Q1338.26 1510.5 1338.35 1510.29 Q1338.43 1510.06 1338.61 1509.89 Q1338.81 1509.71 1339.05 1509.71 Q1339.63 1509.71 1339.63 1510.44 Q1339.63 1510.5 1339.45 1511.2 L1318.36 1567.47 Q1318.01 1568.49 1317.77 1568.78 Q1317.57 1569.07 1317.22 1569.07 Q1316.7 1569.07 1316.7 1568.34 Z" fill="#000000" fill-rule="nonzero" fill-opacity="1" /><path clip-path="url(#clip160)" d="M1367.77 1555.46 L1367.77 1553.43 Q1371.28 1553.43 1372.09 1553.01 Q1372.93 1552.56 1372.93 1550.44 L1372.93 1516.14 Q1372.93 1513.69 1372.06 1513.08 Q1371.22 1512.47 1367.77 1512.47 L1367.77 1510.41 L1377.27 1509.7 L1377.27 1541.36 L1386.58 1533.3 Q1388.03 1532.05 1388.03 1530.73 Q1388.03 1529.21 1386.13 1529.08 L1386.13 1527.02 Q1388.9 1527.22 1393.5 1527.22 Q1396.21 1527.22 1398.11 1527.02 L1398.11 1529.08 Q1393.96 1529.28 1389.8 1532.63 Q1388.87 1533.37 1386.64 1535.3 Q1384.45 1537.2 1384.45 1537.39 Q1384.45 1537.46 1384.52 1537.62 Q1384.62 1537.78 1384.74 1537.91 Q1384.87 1538.04 1384.87 1538.1 L1393.25 1549.92 Q1394.95 1552.31 1396.21 1552.89 Q1397.47 1553.43 1399.66 1553.43 L1399.66 1555.46 Q1396.82 1555.27 1393.89 1555.27 Q1392.31 1555.27 1386.77 1555.46 L1386.77 1553.43 Q1389.16 1553.43 1389.16 1551.89 Q1389.16 1550.82 1383.81 1543.45 Q1383.42 1542.93 1382.55 1541.81 Q1381.75 1540.61 1381.3 1540.03 L1377.08 1543.64 L1377.08 1550.44 Q1377.08 1552.56 1377.88 1553.01 Q1378.72 1553.43 1382.23 1553.43 L1382.23 1555.46 Q1378.27 1555.27 1374.99 1555.27 Q1374.31 1555.27 1367.77 1555.46 Z" fill="#000000" fill-rule="nonzero" fill-opacity="1" /><path clip-path="url(#clip160)" d="M1399.27 1560.68 Q1399.27 1558.55 1400.88 1556.72 Q1402.53 1554.88 1405.36 1554.08 Q1402.46 1552.24 1402.46 1548.22 Q1402.46 1545.12 1404.49 1542.74 Q1401.4 1540.16 1401.4 1535.94 Q1401.4 1532.05 1404.49 1529.18 Q1407.58 1526.32 1412.09 1526.32 Q1416.05 1526.32 1419.08 1528.7 Q1422.24 1525.61 1426.07 1525.57 Q1427.78 1525.57 1428.58 1526.64 Q1429.42 1527.7 1429.42 1528.83 Q1429.42 1529.83 1428.77 1530.31 Q1428.16 1530.79 1427.52 1530.79 Q1426.71 1530.79 1426.13 1530.28 Q1425.59 1529.73 1425.59 1528.89 Q1425.59 1527.51 1426.65 1527.09 Q1426.46 1527.02 1426 1527.02 Q1422.78 1527.02 1420.05 1529.6 Q1422.75 1532.11 1422.75 1536.01 Q1422.75 1539.91 1419.66 1542.77 Q1416.57 1545.64 1412.09 1545.64 Q1408.39 1545.64 1405.55 1543.58 Q1404.43 1544.9 1404.43 1546.7 Q1404.43 1548.34 1405.42 1549.63 Q1406.42 1550.92 1407.94 1551.11 Q1408.39 1551.18 1412.86 1551.18 Q1415.51 1551.18 1416.95 1551.24 Q1418.4 1551.31 1420.47 1551.76 Q1422.56 1552.18 1424.2 1553.01 Q1428.48 1555.4 1428.52 1560.55 Q1428.52 1564.32 1424.17 1566.67 Q1419.85 1569.05 1413.86 1569.05 Q1407.81 1569.05 1403.52 1566.64 Q1399.27 1564.25 1399.27 1560.68 M1402.72 1560.68 Q1402.72 1563.38 1405.91 1565.45 Q1409.1 1567.54 1413.93 1567.54 Q1418.66 1567.54 1421.85 1565.48 Q1425.07 1563.45 1425.07 1560.68 Q1425.07 1558.71 1423.94 1557.46 Q1422.82 1556.2 1420.5 1555.69 Q1418.21 1555.2 1416.6 1555.11 Q1414.99 1555.01 1412.03 1555.01 L1408.13 1555.01 Q1405.88 1555.14 1404.3 1556.78 Q1402.72 1558.42 1402.72 1560.68 M1406.33 1536.01 Q1406.33 1544.13 1412.09 1544.13 Q1414.99 1544.13 1416.76 1541.48 Q1417.82 1539.71 1417.82 1535.94 Q1417.82 1527.83 1412.09 1527.83 Q1409.19 1527.83 1407.39 1530.47 Q1406.33 1532.24 1406.33 1536.01 Z" fill="#000000" fill-rule="nonzero" fill-opacity="1" /><polyline clip-path="url(#clip160)" style="stroke:#000000; stroke-linecap:round; stroke-linejoin:round; stroke-width:4; stroke-opacity:1; fill:none" points="249.395,1423.18 249.395,47.2441 "/>
<polyline clip-path="url(#clip160)" style="stroke:#000000; stroke-linecap:round; stroke-linejoin:round; stroke-width:4; stroke-opacity:1; fill:none" points="249.395,1218.03 268.292,1218.03 "/>
<polyline clip-path="url(#clip160)" style="stroke:#000000; stroke-linecap:round; stroke-linejoin:round; stroke-width:4; stroke-opacity:1; fill:none" points="249.395,1005.56 268.292,1005.56 "/>
<polyline clip-path="url(#clip160)" style="stroke:#000000; stroke-linecap:round; stroke-linejoin:round; stroke-width:4; stroke-opacity:1; fill:none" points="249.395,793.085 268.292,793.085 "/>
<polyline clip-path="url(#clip160)" style="stroke:#000000; stroke-linecap:round; stroke-linejoin:round; stroke-width:4; stroke-opacity:1; fill:none" points="249.395,580.612 268.292,580.612 "/>
<polyline clip-path="url(#clip160)" style="stroke:#000000; stroke-linecap:round; stroke-linejoin:round; stroke-width:4; stroke-opacity:1; fill:none" points="249.395,368.14 268.292,368.14 "/>
<polyline clip-path="url(#clip160)" style="stroke:#000000; stroke-linecap:round; stroke-linejoin:round; stroke-width:4; stroke-opacity:1; fill:none" points="249.395,155.667 268.292,155.667 "/>
<path clip-path="url(#clip160)" d="M147.659 1221.95 Q147.956 1222.24 147.956 1222.66 Q147.956 1223.08 147.659 1223.38 Q147.363 1223.67 146.943 1223.67 L115.273 1223.67 Q114.853 1223.67 114.557 1223.38 Q114.26 1223.08 114.26 1222.66 Q114.26 1222.24 114.557 1221.95 Q114.853 1221.65 115.273 1221.65 L146.943 1221.65 Q147.363 1221.65 147.659 1221.95 Z" fill="#000000" fill-rule="nonzero" fill-opacity="1" /><path clip-path="url(#clip160)" d="M155.268 1206.43 L155.268 1204.85 Q161.345 1204.85 164.482 1201.61 Q165.347 1201.61 165.495 1201.81 Q165.643 1202.01 165.643 1202.92 L165.643 1231.31 Q165.643 1232.81 166.384 1233.28 Q167.125 1233.75 170.361 1233.75 L171.967 1233.75 L171.967 1235.31 Q170.189 1235.16 163.766 1235.16 Q157.343 1235.16 155.589 1235.31 L155.589 1233.75 L157.195 1233.75 Q160.381 1233.75 161.147 1233.31 Q161.913 1232.84 161.913 1231.31 L161.913 1205.1 Q159.27 1206.43 155.268 1206.43 Z" fill="#000000" fill-rule="nonzero" fill-opacity="1" /><path clip-path="url(#clip160)" d="M181.132 1234.49 Q180.366 1233.68 180.366 1232.62 Q180.366 1231.55 181.132 1230.79 Q181.898 1230 183.059 1230 Q184.171 1230 184.912 1230.74 Q185.678 1231.46 185.678 1232.64 Q185.678 1233.8 184.862 1234.57 Q184.072 1235.31 183.059 1235.31 Q181.898 1235.31 181.132 1234.49 Z" fill="#000000" fill-rule="nonzero" fill-opacity="1" /><path clip-path="url(#clip160)" d="M192.1 1219.13 Q192.1 1211.69 193.978 1207.64 Q196.596 1201.61 202.772 1201.61 Q204.082 1201.61 205.44 1201.98 Q206.824 1202.33 208.553 1203.69 Q210.307 1205.05 211.369 1207.27 Q213.395 1211.57 213.395 1219.13 Q213.395 1226.52 211.517 1230.54 Q208.775 1236.42 202.723 1236.42 Q200.45 1236.42 198.128 1235.26 Q195.831 1234.1 194.373 1231.31 Q192.1 1227.13 192.1 1219.13 M196.3 1218.51 Q196.3 1226.14 196.843 1229.18 Q197.461 1232.47 199.141 1233.9 Q200.845 1235.31 202.723 1235.31 Q204.749 1235.31 206.428 1233.8 Q208.133 1232.27 208.652 1228.99 Q209.22 1225.75 209.195 1218.51 Q209.195 1211.47 208.701 1208.65 Q208.034 1205.37 206.255 1204.06 Q204.502 1202.73 202.723 1202.73 Q202.056 1202.73 201.339 1202.92 Q200.648 1203.12 199.635 1203.69 Q198.622 1204.26 197.832 1205.67 Q197.066 1207.07 196.695 1209.2 Q196.3 1211.94 196.3 1218.51 Z" fill="#000000" fill-rule="nonzero" fill-opacity="1" /><path clip-path="url(#clip160)" d="M148.203 1009.47 Q148.499 1009.77 148.499 1010.19 Q148.499 1010.61 148.203 1010.91 Q147.906 1011.2 147.486 1011.2 L115.816 1011.2 Q115.397 1011.2 115.1 1010.91 Q114.804 1010.61 114.804 1010.19 Q114.804 1009.77 115.1 1009.47 Q115.397 1009.18 115.816 1009.18 L147.486 1009.18 Q147.906 1009.18 148.203 1009.47 Z" fill="#000000" fill-rule="nonzero" fill-opacity="1" /><path clip-path="url(#clip160)" d="M153.291 1006.66 Q153.291 999.221 155.169 995.169 Q157.787 989.142 163.963 989.142 Q165.273 989.142 166.631 989.512 Q168.015 989.858 169.744 991.217 Q171.498 992.576 172.56 994.799 Q174.586 999.097 174.586 1006.66 Q174.586 1014.04 172.708 1018.07 Q169.966 1023.95 163.914 1023.95 Q161.641 1023.95 159.319 1022.79 Q157.022 1021.63 155.564 1018.84 Q153.291 1014.66 153.291 1006.66 M157.491 1006.04 Q157.491 1013.67 158.035 1016.71 Q158.652 1020 160.332 1021.43 Q162.036 1022.84 163.914 1022.84 Q165.94 1022.84 167.619 1021.33 Q169.324 1019.8 169.843 1016.51 Q170.411 1013.28 170.386 1006.04 Q170.386 998.998 169.892 996.182 Q169.225 992.897 167.446 991.587 Q165.693 990.253 163.914 990.253 Q163.247 990.253 162.531 990.451 Q161.839 990.649 160.826 991.217 Q159.813 991.785 159.023 993.193 Q158.257 994.601 157.886 996.726 Q157.491 999.468 157.491 1006.04 Z" fill="#000000" fill-rule="nonzero" fill-opacity="1" /><path clip-path="url(#clip160)" d="M181.676 1022.02 Q180.91 1021.21 180.91 1020.14 Q180.91 1019.08 181.676 1018.32 Q182.441 1017.53 183.602 1017.53 Q184.714 1017.53 185.455 1018.27 Q186.221 1018.98 186.221 1020.17 Q186.221 1021.33 185.406 1022.1 Q184.615 1022.84 183.602 1022.84 Q182.441 1022.84 181.676 1022.02 Z" fill="#000000" fill-rule="nonzero" fill-opacity="1" /><path clip-path="url(#clip160)" d="M193.187 1014.69 Q193.187 1013.18 194.003 1012.61 Q194.818 1012.02 195.682 1012.02 Q196.843 1012.02 197.51 1012.76 Q198.202 1013.47 198.202 1014.49 Q198.202 1015.5 197.51 1016.24 Q196.843 1016.96 195.682 1016.96 Q195.114 1016.96 194.818 1016.86 Q195.485 1019.18 197.51 1020.86 Q199.561 1022.54 202.254 1022.54 Q205.638 1022.54 207.664 1019.26 Q208.874 1017.13 208.874 1012.31 Q208.874 1008.06 207.96 1005.94 Q206.552 1002.7 203.662 1002.7 Q199.561 1002.7 197.14 1006.24 Q196.843 1006.68 196.498 1006.71 Q196.004 1006.71 195.88 1006.43 Q195.781 1006.14 195.781 1005.37 L195.781 990.402 Q195.781 989.191 196.275 989.191 Q196.473 989.191 196.893 989.339 Q200.08 990.747 203.612 990.772 Q207.244 990.772 210.504 989.29 Q210.751 989.142 210.9 989.142 Q211.394 989.142 211.418 989.71 Q211.418 989.908 210.999 990.5 Q210.603 991.069 209.739 991.834 Q208.874 992.576 207.762 993.292 Q206.651 994.008 205.02 994.502 Q203.415 994.972 201.636 994.972 Q199.511 994.972 197.338 994.305 L197.338 1004.16 Q199.956 1001.59 203.76 1001.59 Q207.812 1001.59 210.603 1004.85 Q213.395 1008.11 213.395 1012.66 Q213.395 1017.43 210.084 1020.69 Q206.799 1023.95 202.352 1023.95 Q198.301 1023.95 195.732 1021.06 Q193.187 1018.17 193.187 1014.69 Z" fill="#000000" fill-rule="nonzero" fill-opacity="1" /><path clip-path="url(#clip160)" d="M152.748 794.184 Q152.748 786.748 154.625 782.697 Q157.244 776.669 163.42 776.669 Q164.729 776.669 166.088 777.04 Q167.471 777.386 169.2 778.744 Q170.954 780.103 172.017 782.326 Q174.042 786.625 174.042 794.184 Q174.042 801.57 172.165 805.597 Q169.423 811.476 163.37 811.476 Q161.098 811.476 158.776 810.315 Q156.478 809.154 155.021 806.363 Q152.748 802.188 152.748 794.184 M156.948 793.566 Q156.948 801.2 157.491 804.238 Q158.109 807.524 159.788 808.957 Q161.493 810.365 163.37 810.365 Q165.396 810.365 167.076 808.858 Q168.78 807.326 169.299 804.041 Q169.867 800.804 169.843 793.566 Q169.843 786.526 169.349 783.71 Q168.682 780.424 166.903 779.115 Q165.149 777.781 163.37 777.781 Q162.703 777.781 161.987 777.979 Q161.295 778.176 160.283 778.744 Q159.27 779.312 158.479 780.721 Q157.713 782.129 157.343 784.253 Q156.948 786.995 156.948 793.566 Z" fill="#000000" fill-rule="nonzero" fill-opacity="1" /><path clip-path="url(#clip160)" d="M181.132 809.549 Q180.366 808.734 180.366 807.672 Q180.366 806.61 181.132 805.844 Q181.898 805.053 183.059 805.053 Q184.171 805.053 184.912 805.794 Q185.678 806.511 185.678 807.697 Q185.678 808.858 184.862 809.624 Q184.072 810.365 183.059 810.365 Q181.898 810.365 181.132 809.549 Z" fill="#000000" fill-rule="nonzero" fill-opacity="1" /><path clip-path="url(#clip160)" d="M192.1 794.184 Q192.1 786.748 193.978 782.697 Q196.596 776.669 202.772 776.669 Q204.082 776.669 205.44 777.04 Q206.824 777.386 208.553 778.744 Q210.307 780.103 211.369 782.326 Q213.395 786.625 213.395 794.184 Q213.395 801.57 211.517 805.597 Q208.775 811.476 202.723 811.476 Q200.45 811.476 198.128 810.315 Q195.831 809.154 194.373 806.363 Q192.1 802.188 192.1 794.184 M196.3 793.566 Q196.3 801.2 196.843 804.238 Q197.461 807.524 199.141 808.957 Q200.845 810.365 202.723 810.365 Q204.749 810.365 206.428 808.858 Q208.133 807.326 208.652 804.041 Q209.22 800.804 209.195 793.566 Q209.195 786.526 208.701 783.71 Q208.034 780.424 206.255 779.115 Q204.502 777.781 202.723 777.781 Q202.056 777.781 201.339 777.979 Q200.648 778.176 199.635 778.744 Q198.622 779.312 197.832 780.721 Q197.066 782.129 196.695 784.253 Q196.3 786.995 196.3 793.566 Z" fill="#000000" fill-rule="nonzero" fill-opacity="1" /><path clip-path="url(#clip160)" d="M153.291 581.711 Q153.291 574.276 155.169 570.224 Q157.787 564.197 163.963 564.197 Q165.273 564.197 166.631 564.567 Q168.015 564.913 169.744 566.272 Q171.498 567.63 172.56 569.854 Q174.586 574.152 174.586 581.711 Q174.586 589.098 172.708 593.124 Q169.966 599.004 163.914 599.004 Q161.641 599.004 159.319 597.843 Q157.022 596.682 155.564 593.89 Q153.291 589.715 153.291 581.711 M157.491 581.094 Q157.491 588.727 158.035 591.766 Q158.652 595.051 160.332 596.484 Q162.036 597.892 163.914 597.892 Q165.94 597.892 167.619 596.385 Q169.324 594.854 169.843 591.568 Q170.411 588.332 170.386 581.094 Q170.386 574.053 169.892 571.237 Q169.225 567.952 167.446 566.642 Q165.693 565.308 163.914 565.308 Q163.247 565.308 162.531 565.506 Q161.839 565.704 160.826 566.272 Q159.813 566.84 159.023 568.248 Q158.257 569.656 157.886 571.781 Q157.491 574.523 157.491 581.094 Z" fill="#000000" fill-rule="nonzero" fill-opacity="1" /><path clip-path="url(#clip160)" d="M181.676 597.077 Q180.91 596.262 180.91 595.199 Q180.91 594.137 181.676 593.371 Q182.441 592.581 183.602 592.581 Q184.714 592.581 185.455 593.322 Q186.221 594.038 186.221 595.224 Q186.221 596.385 185.406 597.151 Q184.615 597.892 183.602 597.892 Q182.441 597.892 181.676 597.077 Z" fill="#000000" fill-rule="nonzero" fill-opacity="1" /><path clip-path="url(#clip160)" d="M193.187 589.74 Q193.187 588.233 194.003 587.665 Q194.818 587.072 195.682 587.072 Q196.843 587.072 197.51 587.813 Q198.202 588.529 198.202 589.542 Q198.202 590.555 197.51 591.296 Q196.843 592.013 195.682 592.013 Q195.114 592.013 194.818 591.914 Q195.485 594.236 197.51 595.916 Q199.561 597.596 202.254 597.596 Q205.638 597.596 207.664 594.31 Q208.874 592.186 208.874 587.368 Q208.874 583.119 207.96 580.995 Q206.552 577.759 203.662 577.759 Q199.561 577.759 197.14 581.291 Q196.843 581.736 196.498 581.761 Q196.004 581.761 195.88 581.489 Q195.781 581.193 195.781 580.427 L195.781 565.457 Q195.781 564.246 196.275 564.246 Q196.473 564.246 196.893 564.394 Q200.08 565.802 203.612 565.827 Q207.244 565.827 210.504 564.345 Q210.751 564.197 210.9 564.197 Q211.394 564.197 211.418 564.765 Q211.418 564.962 210.999 565.555 Q210.603 566.124 209.739 566.889 Q208.874 567.63 207.762 568.347 Q206.651 569.063 205.02 569.557 Q203.415 570.027 201.636 570.027 Q199.511 570.027 197.338 569.36 L197.338 579.216 Q199.956 576.647 203.76 576.647 Q207.812 576.647 210.603 579.908 Q213.395 583.169 213.395 587.714 Q213.395 592.482 210.084 595.743 Q206.799 599.004 202.352 599.004 Q198.301 599.004 195.732 596.113 Q193.187 593.223 193.187 589.74 Z" fill="#000000" fill-rule="nonzero" fill-opacity="1" /><path clip-path="url(#clip160)" d="M155.268 356.541 L155.268 354.96 Q161.345 354.96 164.482 351.724 Q165.347 351.724 165.495 351.922 Q165.643 352.119 165.643 353.033 L165.643 381.418 Q165.643 382.924 166.384 383.394 Q167.125 383.863 170.361 383.863 L171.967 383.863 L171.967 385.42 Q170.189 385.271 163.766 385.271 Q157.343 385.271 155.589 385.42 L155.589 383.863 L157.195 383.863 Q160.381 383.863 161.147 383.419 Q161.913 382.949 161.913 381.418 L161.913 355.207 Q159.27 356.541 155.268 356.541 Z" fill="#000000" fill-rule="nonzero" fill-opacity="1" /><path clip-path="url(#clip160)" d="M181.132 384.604 Q180.366 383.789 180.366 382.727 Q180.366 381.665 181.132 380.899 Q181.898 380.108 183.059 380.108 Q184.171 380.108 184.912 380.849 Q185.678 381.566 185.678 382.752 Q185.678 383.913 184.862 384.678 Q184.072 385.42 183.059 385.42 Q181.898 385.42 181.132 384.604 Z" fill="#000000" fill-rule="nonzero" fill-opacity="1" /><path clip-path="url(#clip160)" d="M192.1 369.239 Q192.1 361.803 193.978 357.752 Q196.596 351.724 202.772 351.724 Q204.082 351.724 205.44 352.095 Q206.824 352.441 208.553 353.799 Q210.307 355.158 211.369 357.381 Q213.395 361.68 213.395 369.239 Q213.395 376.625 211.517 380.652 Q208.775 386.531 202.723 386.531 Q200.45 386.531 198.128 385.37 Q195.831 384.209 194.373 381.418 Q192.1 377.243 192.1 369.239 M196.3 368.621 Q196.3 376.255 196.843 379.293 Q197.461 382.579 199.141 384.011 Q200.845 385.42 202.723 385.42 Q204.749 385.42 206.428 383.913 Q208.133 382.381 208.652 379.095 Q209.22 375.859 209.195 368.621 Q209.195 361.581 208.701 358.765 Q208.034 355.479 206.255 354.17 Q204.502 352.836 202.723 352.836 Q202.056 352.836 201.339 353.033 Q200.648 353.231 199.635 353.799 Q198.622 354.367 197.832 355.775 Q197.066 357.184 196.695 359.308 Q196.3 362.05 196.3 368.621 Z" fill="#000000" fill-rule="nonzero" fill-opacity="1" /><path clip-path="url(#clip160)" d="M155.811 144.069 L155.811 142.488 Q161.888 142.488 165.026 139.252 Q165.89 139.252 166.038 139.449 Q166.187 139.647 166.187 140.561 L166.187 168.945 Q166.187 170.452 166.928 170.921 Q167.669 171.391 170.905 171.391 L172.511 171.391 L172.511 172.947 Q170.732 172.799 164.309 172.799 Q157.886 172.799 156.132 172.947 L156.132 171.391 L157.738 171.391 Q160.925 171.391 161.691 170.946 Q162.456 170.477 162.456 168.945 L162.456 142.735 Q159.813 144.069 155.811 144.069 Z" fill="#000000" fill-rule="nonzero" fill-opacity="1" /><path clip-path="url(#clip160)" d="M181.676 172.132 Q180.91 171.317 180.91 170.254 Q180.91 169.192 181.676 168.426 Q182.441 167.636 183.602 167.636 Q184.714 167.636 185.455 168.377 Q186.221 169.093 186.221 170.279 Q186.221 171.44 185.406 172.206 Q184.615 172.947 183.602 172.947 Q182.441 172.947 181.676 172.132 Z" fill="#000000" fill-rule="nonzero" fill-opacity="1" /><path clip-path="url(#clip160)" d="M193.187 164.795 Q193.187 163.288 194.003 162.72 Q194.818 162.127 195.682 162.127 Q196.843 162.127 197.51 162.868 Q198.202 163.584 198.202 164.597 Q198.202 165.61 197.51 166.351 Q196.843 167.068 195.682 167.068 Q195.114 167.068 194.818 166.969 Q195.485 169.291 197.51 170.971 Q199.561 172.651 202.254 172.651 Q205.638 172.651 207.664 169.365 Q208.874 167.24 208.874 162.423 Q208.874 158.174 207.96 156.05 Q206.552 152.814 203.662 152.814 Q199.561 152.814 197.14 156.346 Q196.843 156.791 196.498 156.816 Q196.004 156.816 195.88 156.544 Q195.781 156.247 195.781 155.482 L195.781 140.511 Q195.781 139.301 196.275 139.301 Q196.473 139.301 196.893 139.449 Q200.08 140.857 203.612 140.882 Q207.244 140.882 210.504 139.4 Q210.751 139.252 210.9 139.252 Q211.394 139.252 211.418 139.82 Q211.418 140.017 210.999 140.61 Q210.603 141.178 209.739 141.944 Q208.874 142.685 207.762 143.402 Q206.651 144.118 205.02 144.612 Q203.415 145.082 201.636 145.082 Q199.511 145.082 197.338 144.415 L197.338 154.271 Q199.956 151.702 203.76 151.702 Q207.812 151.702 210.603 154.963 Q213.395 158.224 213.395 162.769 Q213.395 167.537 210.084 170.798 Q206.799 174.059 202.352 174.059 Q198.301 174.059 195.732 171.168 Q193.187 168.278 193.187 164.795 Z" fill="#000000" fill-rule="nonzero" fill-opacity="1" /><path clip-path="url(#clip160)" d="M43.8213 851.942 Q44.6586 851.942 46.3011 852.168 Q47.9436 852.393 50.3269 852.941 Q52.7101 853.488 55.2222 854.293 Q57.7342 855.066 60.2463 856.29 Q62.7261 857.514 64.6907 858.963 Q66.6552 860.413 67.8791 862.442 Q69.1029 864.47 69.1029 866.757 Q69.1029 867.82 68.9418 868.85 Q68.7808 869.881 68.2655 871.169 Q67.7502 872.458 66.9129 873.391 Q66.0433 874.325 64.4974 874.97 Q62.9516 875.614 60.9226 875.614 Q58.8292 875.614 56.0273 874.841 Q53.1932 874.036 47.3961 871.846 Q44.401 870.718 42.7585 870.718 Q42.0177 870.718 41.5669 870.879 Q41.0838 871.04 40.9227 871.363 Q40.7295 871.685 40.6973 871.878 Q40.6651 872.039 40.6651 872.361 Q40.6651 874.132 42.5008 875.936 Q44.3366 877.739 48.8454 879.028 Q49.6505 879.285 49.8438 879.446 Q50.037 879.607 50.037 880.09 Q50.0048 880.895 49.3607 880.895 Q49.1674 880.895 48.4267 880.67 Q47.6538 880.445 46.4944 880.026 Q45.3027 879.607 44.0789 878.866 Q42.8229 878.126 41.7279 877.224 Q40.6329 876.29 39.9244 874.97 Q39.2158 873.649 39.2158 872.168 Q39.2158 869.752 40.7939 868.271 Q42.3398 866.757 44.6264 866.757 Q45.8825 866.757 47.9114 867.562 Q51.5829 868.915 53.3542 869.527 Q55.1255 870.139 57.6376 870.783 Q60.1496 871.395 61.8888 871.395 Q64.5296 871.395 66.0755 870.171 Q67.6214 868.947 67.6214 866.499 Q67.6214 864.309 66.0433 862.345 Q64.433 860.348 62.1464 859.028 Q59.8276 857.707 57.2511 856.709 Q54.6424 855.71 52.6779 855.26 Q50.6811 854.777 49.7472 854.777 Q46.4944 854.777 44.3688 856.999 Q43.7569 857.611 43.3704 857.836 Q42.9839 858.062 42.372 858.062 Q41.2448 858.062 40.2464 857.063 Q39.2158 856.033 39.2158 854.841 Q39.2158 853.746 40.3108 852.844 Q41.4058 851.942 43.8213 851.942 Z" fill="#000000" fill-rule="nonzero" fill-opacity="1" /><path clip-path="url(#clip160)" d="M63.8651 822.189 Q65.1275 822.189 65.8489 822.978 Q66.5478 823.767 66.5478 824.668 Q66.5478 825.525 66.0518 825.976 Q65.5559 826.427 64.9246 826.427 Q64.068 826.427 63.324 825.796 Q62.58 825.164 62.4222 824.218 Q61.8361 825.142 61.8361 826.517 Q61.8361 827.419 62.3095 828.208 Q62.7829 828.974 63.3916 829.448 Q64.0003 829.899 64.8795 830.304 Q65.7362 830.688 66.2547 830.846 Q66.7507 830.981 67.2918 831.094 L73.6041 832.672 Q76.6025 833.438 77.662 833.438 Q78.9696 833.438 79.8488 832.807 Q80.7055 832.176 80.7055 830.913 Q80.7055 830.417 80.5702 829.854 Q80.4124 829.29 80.0066 828.569 Q79.5783 827.825 78.9471 827.171 Q78.2933 826.495 77.1886 825.841 Q76.084 825.187 74.6637 824.759 Q74.1677 824.623 74.1677 824.172 Q74.1677 823.609 74.6186 823.609 Q75.0018 823.609 75.8134 823.925 Q76.6025 824.218 77.6395 824.871 Q78.654 825.503 79.5783 826.337 Q80.4801 827.171 81.1113 828.411 Q81.7425 829.651 81.7425 831.003 Q81.7425 832.942 80.7055 834.227 Q79.6685 835.512 78.2257 835.986 Q78.4285 836.098 78.6991 836.256 Q78.9696 836.414 79.5783 836.887 Q80.1644 837.338 80.6153 837.857 Q81.0437 838.375 81.3818 839.187 Q81.7425 839.976 81.7425 840.833 Q81.7425 841.915 81.4269 842.884 Q81.1113 843.831 80.3899 844.507 Q79.6685 845.184 78.6765 845.184 Q77.5719 845.184 76.8054 844.44 Q76.0163 843.673 76.0163 842.636 Q76.0163 841.982 76.3996 841.464 Q76.7828 840.923 77.617 840.923 Q78.5413 840.923 79.2401 841.554 Q79.939 842.185 80.1194 843.087 Q80.7055 842.163 80.7055 840.787 Q80.7055 839.3 79.3979 838.127 Q78.0904 836.955 75.9036 836.391 Q70.6508 834.994 68.3062 834.453 Q65.9391 833.912 64.9246 833.912 Q63.9778 833.912 63.324 834.16 Q62.6702 834.408 62.3771 834.836 Q62.0615 835.242 61.9488 835.625 Q61.8361 835.986 61.8361 836.391 Q61.8361 837.068 62.1066 837.834 Q62.3771 838.578 63.0084 839.48 Q63.6171 840.359 64.8795 841.193 Q66.142 842.027 67.8779 842.591 Q68.3964 842.704 68.3964 843.2 Q68.3739 843.741 67.923 843.741 Q67.5397 843.741 66.7507 843.448 Q65.9391 843.132 64.9246 842.501 Q63.9101 841.847 63.0084 841.013 Q62.0841 840.156 61.4528 838.916 Q60.8216 837.654 60.8216 836.301 Q60.8216 835.693 60.9569 835.106 Q61.0696 834.498 61.4078 833.776 Q61.7459 833.032 62.4899 832.379 Q63.2338 831.725 64.3159 831.319 Q63.7974 831.048 63.3015 830.688 Q62.8055 830.304 62.1968 829.718 Q61.5656 829.11 61.2049 828.276 Q60.8216 827.419 60.8216 826.472 Q60.8216 825.548 61.0696 824.646 Q61.295 823.744 62.039 822.978 Q62.7604 822.189 63.8651 822.189 Z" fill="#000000" fill-rule="nonzero" fill-opacity="1" /><path clip-path="url(#clip160)" d="M68.5865 800.846 Q68.3324 800.846 67.7735 800.642 L18.6886 782.274 Q18.6377 782.274 18.3583 782.147 Q18.0788 782.02 17.901 781.943 Q17.6977 781.867 17.5453 781.715 Q17.3928 781.537 17.3928 781.334 Q17.3928 780.826 18.028 780.826 Q18.0788 780.826 18.6886 780.978 L67.8243 799.398 Q68.7135 799.702 68.9676 799.906 Q69.2217 800.084 69.2217 800.388 Q69.2217 800.846 68.5865 800.846 Z" fill="#000000" fill-rule="nonzero" fill-opacity="1" /><path clip-path="url(#clip160)" d="M68.3621 753.514 L66.3332 753.514 Q66.3332 750.004 65.9145 749.199 Q65.4636 748.393 63.338 748.393 L45.657 748.393 Q43.2094 748.393 42.5975 749.263 Q41.9855 750.1 41.9855 753.514 L39.9244 753.514 L39.2158 744.239 L46.1401 744.239 Q39.2158 741.147 39.2158 734.48 Q39.2158 726.751 45.657 725.688 Q43.145 724.561 41.1804 722.21 Q39.2158 719.827 39.2158 716.123 Q39.2158 711.163 41.6635 709.199 Q43.306 707.75 45.1417 707.46 Q46.9774 707.17 51.7439 707.17 L64.3364 707.17 Q65.7213 707.105 66.0433 706.043 Q66.3332 704.98 66.3332 702.017 L68.3621 702.017 Q68.1689 708.748 68.1689 709.392 Q68.1689 709.907 68.3621 716.864 L66.3332 716.864 Q66.3332 713.353 65.9145 712.548 Q65.4636 711.711 63.338 711.711 L47.9758 711.711 Q44.6264 711.711 42.6619 712.741 Q40.6651 713.772 40.6651 716.606 Q40.6651 720.02 43.5314 722.757 Q46.3977 725.495 51.2286 725.495 L63.338 725.495 Q65.4636 725.495 65.9145 724.69 Q66.3332 723.852 66.3332 720.342 L68.3621 720.342 Q68.1689 727.073 68.1689 727.749 Q68.1689 728.265 68.3621 735.189 L66.3332 735.189 Q66.3332 731.679 65.9145 730.873 Q65.4636 730.036 63.338 730.036 L47.9758 730.036 Q44.6264 730.036 42.6619 731.067 Q40.6651 732.097 40.6651 734.931 Q40.6651 738.345 43.5314 741.083 Q46.3977 743.82 51.2286 743.82 L63.338 743.82 Q65.4636 743.82 65.9145 743.015 Q66.3332 742.178 66.3332 738.699 L68.3621 738.699 Q68.1689 745.43 68.1689 746.075 Q68.1689 746.59 68.3621 753.514 Z" fill="#000000" fill-rule="nonzero" fill-opacity="1" /><path clip-path="url(#clip160)" d="M67.4926 690.411 L58.797 690.411 Q58.0563 690.411 57.7986 690.379 Q57.541 690.347 57.3477 690.154 Q57.1545 689.961 57.1545 689.574 Q57.1545 689.123 57.3477 688.962 Q57.541 688.769 58.2817 688.64 Q62.8227 687.642 65.2382 685.516 Q67.6214 683.358 67.6214 679.461 Q67.6214 675.758 65.9789 673.89 Q64.3364 672.022 61.6311 672.022 Q56.8002 672.022 55.5764 678.882 Q54.7713 682.843 54.256 684.486 Q53.7085 686.128 52.5169 687.577 Q50.198 690.411 46.913 690.411 Q43.628 690.411 41.2126 687.932 Q38.7972 685.42 38.7972 679.88 Q38.7972 676.176 40.6651 673.664 Q40.0854 672.924 39.6023 672.537 Q38.7972 671.668 38.7972 671.217 Q38.7972 670.701 39.1514 670.605 Q39.4735 670.508 40.4075 670.508 L47.0419 670.508 Q47.7826 670.508 48.0402 670.54 Q48.2979 670.573 48.4911 670.766 Q48.6522 670.959 48.6522 671.378 Q48.6522 672.119 48.0402 672.151 Q40.0532 672.666 40.0532 679.88 Q40.0532 683.777 41.5669 685.516 Q43.0483 687.255 45.0773 687.255 Q46.2045 687.255 47.0741 686.74 Q47.9114 686.192 48.4267 685.516 Q48.9098 684.808 49.3929 683.519 Q49.8438 682.231 50.0048 681.458 Q50.1658 680.653 50.4879 679.139 Q51.4863 673.858 53.6441 671.635 Q56.4138 668.866 59.9242 668.866 Q63.8211 668.866 66.462 671.507 Q69.1029 674.147 69.1029 679.461 Q69.1029 683.745 66.2366 686.74 Q66.623 687.126 66.9773 687.416 Q67.2993 687.706 67.4282 687.835 Q67.557 687.932 67.6536 687.964 Q67.718 687.996 67.7824 688.06 Q69.1029 689.381 69.1029 689.703 Q69.1029 690.218 68.7486 690.315 Q68.4266 690.411 67.4926 690.411 Z" fill="#000000" fill-rule="nonzero" fill-opacity="1" /><path clip-path="url(#clip160)" d="M36.0228 631.564 Q36.2933 631.293 36.6766 631.293 Q37.0598 631.293 37.3304 631.564 Q37.6009 631.834 37.6009 632.217 L37.6009 661.119 Q37.6009 661.502 37.3304 661.773 Q37.0598 662.043 36.6766 662.043 Q36.2933 662.043 36.0228 661.773 Q35.7523 661.502 35.7523 661.119 L35.7523 632.217 Q35.7523 631.834 36.0228 631.564 Z" fill="#000000" fill-rule="nonzero" fill-opacity="1" /><path clip-path="url(#clip160)" d="M21.8651 626.473 L20.4223 626.473 Q20.4223 620.927 17.469 618.064 Q17.469 617.275 17.6494 617.14 Q17.8297 617.005 18.6639 617.005 L44.567 617.005 Q45.9422 617.005 46.3706 616.328 Q46.7989 615.652 46.7989 612.699 L46.7989 611.234 L48.2192 611.234 Q48.0839 612.857 48.0839 618.718 Q48.0839 624.58 48.2192 626.18 L46.7989 626.18 L46.7989 624.715 Q46.7989 621.807 46.3931 621.108 Q45.9648 620.409 44.567 620.409 L20.6477 620.409 Q21.8651 622.821 21.8651 626.473 Z" fill="#000000" fill-rule="nonzero" fill-opacity="1" /><polyline clip-path="url(#clip161)" style="stroke:#009af9; stroke-linecap:round; stroke-linejoin:round; stroke-width:4; stroke-opacity:1; fill:none" points="1825.35,961.659 1159.18,898.839 1423.44,1031.83 1516.63,525.949 875.291,1061 1565.03,375.072 1238.35,805.72 2293.23,86.1857 308.924,955.093 1680.17,1384.24 "/>
<path clip-path="url(#clip160)" d="M319.507 196.789 L576.73 196.789 L576.73 93.1086 L319.507 93.1086  Z" fill="#ffffff" fill-rule="evenodd" fill-opacity="1"/>
<polyline clip-path="url(#clip160)" style="stroke:#000000; stroke-linecap:round; stroke-linejoin:round; stroke-width:4; stroke-opacity:1; fill:none" points="319.507,196.789 576.73,196.789 576.73,93.1086 319.507,93.1086 319.507,196.789 "/>
<polyline clip-path="url(#clip160)" style="stroke:#009af9; stroke-linecap:round; stroke-linejoin:round; stroke-width:4; stroke-opacity:1; fill:none" points="342.877,144.949 483.102,144.949 "/>
<path clip-path="url(#clip160)" d="M506.472 168.503 Q506.472 167.441 507.09 166.873 Q507.732 166.329 508.597 166.329 Q509.511 166.329 510.104 166.898 Q510.721 167.49 510.721 168.454 Q510.721 170.331 508.745 170.578 Q509.708 171.492 511.116 171.492 Q512.623 171.492 513.834 170.381 Q515.069 169.269 515.588 168.207 Q516.131 167.145 516.897 165.218 Q517.613 163.711 518.157 162.229 L510.573 143.751 Q510.079 142.54 509.313 142.268 Q508.547 141.997 506.472 141.997 L506.472 140.416 Q508.745 140.564 511.388 140.564 Q512.944 140.564 516.897 140.416 L516.897 141.997 Q514.056 141.997 514.056 143.306 Q514.056 143.454 514.353 144.22 L519.985 157.831 L525.099 145.381 Q525.395 144.665 525.395 144.17 Q525.395 142.095 523.023 141.997 L523.023 140.416 Q526.358 140.564 527.421 140.564 Q529.496 140.564 531.2 140.416 L531.2 141.997 Q527.816 141.997 526.507 145.233 L517.589 166.823 Q515.168 172.579 511.116 172.604 Q509.19 172.604 507.831 171.418 Q506.472 170.233 506.472 168.503 Z" fill="#000000" fill-rule="nonzero" fill-opacity="1" /><path clip-path="url(#clip160)" d="M536.66 133.35 L536.66 131.769 Q542.737 131.769 545.874 128.533 Q546.739 128.533 546.887 128.731 Q547.035 128.928 547.035 129.843 L547.035 158.227 Q547.035 159.734 547.776 160.203 Q548.517 160.672 551.753 160.672 L553.359 160.672 L553.359 162.229 Q551.581 162.08 545.158 162.08 Q538.735 162.08 536.981 162.229 L536.981 160.672 L538.587 160.672 Q541.773 160.672 542.539 160.228 Q543.305 159.758 543.305 158.227 L543.305 132.016 Q540.662 133.35 536.66 133.35 Z" fill="#000000" fill-rule="nonzero" fill-opacity="1" /></svg>
