<?xml version="1.0" encoding="utf-8"?>
<svg xmlns="http://www.w3.org/2000/svg" xmlns:xlink="http://www.w3.org/1999/xlink" width="600" height="400" viewBox="0 0 2400 1600">
<defs>
  <clipPath id="clip390">
    <rect x="0" y="0" width="2400" height="1600"/>
  </clipPath>
</defs>
<path clip-path="url(#clip390)" d="M0 1600 L2400 1600 L2400 0 L0 0  Z" fill="#ffffff" fill-rule="evenodd" fill-opacity="1"/>
<defs>
  <clipPath id="clip391">
    <rect x="480" y="0" width="1681" height="1600"/>
  </clipPath>
</defs>
<path clip-path="url(#clip390)" d="M249.395 1423.18 L2352.76 1423.18 L2352.76 47.2441 L249.395 47.2441  Z" fill="#ffffff" fill-rule="evenodd" fill-opacity="1"/>
<defs>
  <clipPath id="clip392">
    <rect x="249" y="47" width="2104" height="1377"/>
  </clipPath>
</defs>
<polyline clip-path="url(#clip392)" style="stroke:#000000; stroke-linecap:round; stroke-linejoin:round; stroke-width:2; stroke-opacity:0.1; fill:none" points="602.473,1423.18 602.473,47.2441 "/>
<polyline clip-path="url(#clip392)" style="stroke:#000000; stroke-linecap:round; stroke-linejoin:round; stroke-width:2; stroke-opacity:0.1; fill:none" points="1008.26,1423.18 1008.26,47.2441 "/>
<polyline clip-path="url(#clip392)" style="stroke:#000000; stroke-linecap:round; stroke-linejoin:round; stroke-width:2; stroke-opacity:0.1; fill:none" points="1414.05,1423.18 1414.05,47.2441 "/>
<polyline clip-path="url(#clip392)" style="stroke:#000000; stroke-linecap:round; stroke-linejoin:round; stroke-width:2; stroke-opacity:0.1; fill:none" points="1819.83,1423.18 1819.83,47.2441 "/>
<polyline clip-path="url(#clip392)" style="stroke:#000000; stroke-linecap:round; stroke-linejoin:round; stroke-width:2; stroke-opacity:0.1; fill:none" points="2225.62,1423.18 2225.62,47.2441 "/>
<polyline clip-path="url(#clip392)" style="stroke:#000000; stroke-linecap:round; stroke-linejoin:round; stroke-width:2; stroke-opacity:0.1; fill:none" points="249.395,1293.3 2352.76,1293.3 "/>
<polyline clip-path="url(#clip392)" style="stroke:#000000; stroke-linecap:round; stroke-linejoin:round; stroke-width:2; stroke-opacity:0.1; fill:none" points="249.395,1115.21 2352.76,1115.21 "/>
<polyline clip-path="url(#clip392)" style="stroke:#000000; stroke-linecap:round; stroke-linejoin:round; stroke-width:2; stroke-opacity:0.1; fill:none" points="249.395,937.129 2352.76,937.129 "/>
<polyline clip-path="url(#clip392)" style="stroke:#000000; stroke-linecap:round; stroke-linejoin:round; stroke-width:2; stroke-opacity:0.1; fill:none" points="249.395,759.044 2352.76,759.044 "/>
<polyline clip-path="url(#clip392)" style="stroke:#000000; stroke-linecap:round; stroke-linejoin:round; stroke-width:2; stroke-opacity:0.1; fill:none" points="249.395,580.959 2352.76,580.959 "/>
<polyline clip-path="url(#clip392)" style="stroke:#000000; stroke-linecap:round; stroke-linejoin:round; stroke-width:2; stroke-opacity:0.1; fill:none" points="249.395,402.874 2352.76,402.874 "/>
<polyline clip-path="url(#clip392)" style="stroke:#000000; stroke-linecap:round; stroke-linejoin:round; stroke-width:2; stroke-opacity:0.1; fill:none" points="249.395,224.789 2352.76,224.789 "/>
<polyline clip-path="url(#clip390)" style="stroke:#000000; stroke-linecap:round; stroke-linejoin:round; stroke-width:4; stroke-opacity:1; fill:none" points="249.395,1423.18 2352.76,1423.18 "/>
<polyline clip-path="url(#clip390)" style="stroke:#000000; stroke-linecap:round; stroke-linejoin:round; stroke-width:4; stroke-opacity:1; fill:none" points="602.473,1423.18 602.473,1404.28 "/>
<polyline clip-path="url(#clip390)" style="stroke:#000000; stroke-linecap:round; stroke-linejoin:round; stroke-width:4; stroke-opacity:1; fill:none" points="1008.26,1423.18 1008.26,1404.28 "/>
<polyline clip-path="url(#clip390)" style="stroke:#000000; stroke-linecap:round; stroke-linejoin:round; stroke-width:4; stroke-opacity:1; fill:none" points="1414.05,1423.18 1414.05,1404.28 "/>
<polyline clip-path="url(#clip390)" style="stroke:#000000; stroke-linecap:round; stroke-linejoin:round; stroke-width:4; stroke-opacity:1; fill:none" points="1819.83,1423.18 1819.83,1404.28 "/>
<polyline clip-path="url(#clip390)" style="stroke:#000000; stroke-linecap:round; stroke-linejoin:round; stroke-width:4; stroke-opacity:1; fill:none" points="2225.62,1423.18 2225.62,1404.28 "/>
<path clip-path="url(#clip390)" d="M586.304 1472.22 Q586.601 1472.51 586.601 1472.93 Q586.601 1473.35 586.304 1473.65 Q586.008 1473.94 585.588 1473.94 L553.918 1473.94 Q553.498 1473.94 553.202 1473.65 Q552.905 1473.35 552.905 1472.93 Q552.905 1472.51 553.202 1472.22 Q553.498 1471.92 553.918 1471.92 L585.588 1471.92 Q586.008 1471.92 586.304 1472.22 Z" fill="#000000" fill-rule="nonzero" fill-opacity="1" /><path clip-path="url(#clip390)" d="M593.913 1456.7 L593.913 1455.12 Q599.99 1455.12 603.127 1451.88 Q603.992 1451.88 604.14 1452.08 Q604.288 1452.28 604.288 1453.19 L604.288 1481.58 Q604.288 1483.08 605.029 1483.55 Q605.771 1484.02 609.007 1484.02 L610.612 1484.02 L610.612 1485.58 Q608.834 1485.43 602.411 1485.43 Q595.988 1485.43 594.234 1485.58 L594.234 1484.02 L595.84 1484.02 Q599.027 1484.02 599.792 1483.58 Q600.558 1483.11 600.558 1481.58 L600.558 1455.37 Q597.915 1456.7 593.913 1456.7 Z" fill="#000000" fill-rule="nonzero" fill-opacity="1" /><path clip-path="url(#clip390)" d="M619.777 1484.76 Q619.012 1483.95 619.012 1482.89 Q619.012 1481.82 619.777 1481.06 Q620.543 1480.27 621.704 1480.27 Q622.816 1480.27 623.557 1481.01 Q624.323 1481.73 624.323 1482.91 Q624.323 1484.07 623.508 1484.84 Q622.717 1485.58 621.704 1485.58 Q620.543 1485.58 619.777 1484.76 Z" fill="#000000" fill-rule="nonzero" fill-opacity="1" /><path clip-path="url(#clip390)" d="M630.746 1469.4 Q630.746 1461.96 632.623 1457.91 Q635.242 1451.88 641.417 1451.88 Q642.727 1451.88 644.085 1452.26 Q645.469 1452.6 647.198 1453.96 Q648.952 1455.32 650.014 1457.54 Q652.04 1461.84 652.04 1469.4 Q652.04 1476.79 650.162 1480.81 Q647.42 1486.69 641.368 1486.69 Q639.095 1486.69 636.773 1485.53 Q634.476 1484.37 633.018 1481.58 Q630.746 1477.4 630.746 1469.4 M634.945 1468.78 Q634.945 1476.41 635.489 1479.45 Q636.106 1482.74 637.786 1484.17 Q639.491 1485.58 641.368 1485.58 Q643.394 1485.58 645.074 1484.07 Q646.778 1482.54 647.297 1479.26 Q647.865 1476.02 647.84 1468.78 Q647.84 1461.74 647.346 1458.92 Q646.679 1455.64 644.901 1454.33 Q643.147 1453 641.368 1453 Q640.701 1453 639.985 1453.19 Q639.293 1453.39 638.28 1453.96 Q637.267 1454.53 636.477 1455.94 Q635.711 1457.34 635.34 1459.47 Q634.945 1462.21 634.945 1468.78 Z" fill="#000000" fill-rule="nonzero" fill-opacity="1" /><path clip-path="url(#clip390)" d="M992.363 1472.22 Q992.659 1472.51 992.659 1472.93 Q992.659 1473.35 992.363 1473.65 Q992.066 1473.94 991.646 1473.94 L959.977 1473.94 Q959.557 1473.94 959.26 1473.65 Q958.964 1473.35 958.964 1472.93 Q958.964 1472.51 959.26 1472.22 Q959.557 1471.92 959.977 1471.92 L991.646 1471.92 Q992.066 1471.92 992.363 1472.22 Z" fill="#000000" fill-rule="nonzero" fill-opacity="1" /><path clip-path="url(#clip390)" d="M997.452 1469.4 Q997.452 1461.96 999.329 1457.91 Q1001.95 1451.88 1008.12 1451.88 Q1009.43 1451.88 1010.79 1452.26 Q1012.17 1452.6 1013.9 1453.96 Q1015.66 1455.32 1016.72 1457.54 Q1018.75 1461.84 1018.75 1469.4 Q1018.75 1476.79 1016.87 1480.81 Q1014.13 1486.69 1008.07 1486.69 Q1005.8 1486.69 1003.48 1485.53 Q1001.18 1484.37 999.724 1481.58 Q997.452 1477.4 997.452 1469.4 M1001.65 1468.78 Q1001.65 1476.41 1002.19 1479.45 Q1002.81 1482.74 1004.49 1484.17 Q1006.2 1485.58 1008.07 1485.58 Q1010.1 1485.58 1011.78 1484.07 Q1013.48 1482.54 1014 1479.26 Q1014.57 1476.02 1014.55 1468.78 Q1014.55 1461.74 1014.05 1458.92 Q1013.39 1455.64 1011.61 1454.33 Q1009.85 1453 1008.07 1453 Q1007.41 1453 1006.69 1453.19 Q1006 1453.39 1004.99 1453.96 Q1003.97 1454.53 1003.18 1455.94 Q1002.42 1457.34 1002.05 1459.47 Q1001.65 1462.21 1001.65 1468.78 Z" fill="#000000" fill-rule="nonzero" fill-opacity="1" /><path clip-path="url(#clip390)" d="M1025.84 1484.76 Q1025.07 1483.95 1025.07 1482.89 Q1025.07 1481.82 1025.84 1481.06 Q1026.6 1480.27 1027.76 1480.27 Q1028.87 1480.27 1029.62 1481.01 Q1030.38 1481.73 1030.38 1482.91 Q1030.38 1484.07 1029.57 1484.84 Q1028.78 1485.58 1027.76 1485.58 Q1026.6 1485.58 1025.84 1484.76 Z" fill="#000000" fill-rule="nonzero" fill-opacity="1" /><path clip-path="url(#clip390)" d="M1037.35 1477.43 Q1037.35 1475.92 1038.16 1475.35 Q1038.98 1474.76 1039.84 1474.76 Q1041 1474.76 1041.67 1475.5 Q1042.36 1476.22 1042.36 1477.23 Q1042.36 1478.24 1041.67 1478.98 Q1041 1479.7 1039.84 1479.7 Q1039.27 1479.7 1038.98 1479.6 Q1039.64 1481.92 1041.67 1483.6 Q1043.72 1485.28 1046.41 1485.28 Q1049.8 1485.28 1051.82 1482 Q1053.03 1479.87 1053.03 1475.06 Q1053.03 1470.81 1052.12 1468.68 Q1050.71 1465.45 1047.82 1465.45 Q1043.72 1465.45 1041.3 1468.98 Q1041 1469.42 1040.66 1469.45 Q1040.16 1469.45 1040.04 1469.18 Q1039.94 1468.88 1039.94 1468.11 L1039.94 1453.14 Q1039.94 1451.93 1040.44 1451.93 Q1040.63 1451.93 1041.05 1452.08 Q1044.24 1453.49 1047.77 1453.51 Q1051.4 1453.51 1054.66 1452.03 Q1054.91 1451.88 1055.06 1451.88 Q1055.55 1451.88 1055.58 1452.45 Q1055.58 1452.65 1055.16 1453.24 Q1054.76 1453.81 1053.9 1454.58 Q1053.03 1455.32 1051.92 1456.03 Q1050.81 1456.75 1049.18 1457.25 Q1047.57 1457.71 1045.8 1457.71 Q1043.67 1457.71 1041.5 1457.05 L1041.5 1466.9 Q1044.12 1464.33 1047.92 1464.33 Q1051.97 1464.33 1054.76 1467.6 Q1057.55 1470.86 1057.55 1475.4 Q1057.55 1480.17 1054.24 1483.43 Q1050.96 1486.69 1046.51 1486.69 Q1042.46 1486.69 1039.89 1483.8 Q1037.35 1480.91 1037.35 1477.43 Z" fill="#000000" fill-rule="nonzero" fill-opacity="1" /><path clip-path="url(#clip390)" d="M1383.72 1469.4 Q1383.72 1461.96 1385.6 1457.91 Q1388.22 1451.88 1394.39 1451.88 Q1395.7 1451.88 1397.06 1452.26 Q1398.45 1452.6 1400.17 1453.96 Q1401.93 1455.32 1402.99 1457.54 Q1405.02 1461.84 1405.02 1469.4 Q1405.02 1476.79 1403.14 1480.81 Q1400.4 1486.69 1394.34 1486.69 Q1392.07 1486.69 1389.75 1485.53 Q1387.45 1484.37 1386 1481.58 Q1383.72 1477.4 1383.72 1469.4 M1387.92 1468.78 Q1387.92 1476.41 1388.47 1479.45 Q1389.08 1482.74 1390.76 1484.17 Q1392.47 1485.58 1394.34 1485.58 Q1396.37 1485.58 1398.05 1484.07 Q1399.75 1482.54 1400.27 1479.26 Q1400.84 1476.02 1400.82 1468.78 Q1400.82 1461.74 1400.32 1458.92 Q1399.66 1455.64 1397.88 1454.33 Q1396.12 1453 1394.34 1453 Q1393.68 1453 1392.96 1453.19 Q1392.27 1453.39 1391.26 1453.96 Q1390.24 1454.53 1389.45 1455.94 Q1388.69 1457.34 1388.32 1459.47 Q1387.92 1462.21 1387.92 1468.78 Z" fill="#000000" fill-rule="nonzero" fill-opacity="1" /><path clip-path="url(#clip390)" d="M1412.11 1484.76 Q1411.34 1483.95 1411.34 1482.89 Q1411.34 1481.82 1412.11 1481.06 Q1412.87 1480.27 1414.03 1480.27 Q1415.15 1480.27 1415.89 1481.01 Q1416.65 1481.73 1416.65 1482.91 Q1416.65 1484.07 1415.84 1484.84 Q1415.05 1485.58 1414.03 1485.58 Q1412.87 1485.58 1412.11 1484.76 Z" fill="#000000" fill-rule="nonzero" fill-opacity="1" /><path clip-path="url(#clip390)" d="M1423.07 1469.4 Q1423.07 1461.96 1424.95 1457.91 Q1427.57 1451.88 1433.75 1451.88 Q1435.06 1451.88 1436.41 1452.26 Q1437.8 1452.6 1439.53 1453.96 Q1441.28 1455.32 1442.34 1457.54 Q1444.37 1461.84 1444.37 1469.4 Q1444.37 1476.79 1442.49 1480.81 Q1439.75 1486.69 1433.7 1486.69 Q1431.42 1486.69 1429.1 1485.53 Q1426.81 1484.37 1425.35 1481.58 Q1423.07 1477.4 1423.07 1469.4 M1427.27 1468.78 Q1427.27 1476.41 1427.82 1479.45 Q1428.44 1482.74 1430.12 1484.17 Q1431.82 1485.58 1433.7 1485.58 Q1435.72 1485.58 1437.4 1484.07 Q1439.11 1482.54 1439.63 1479.26 Q1440.19 1476.02 1440.17 1468.78 Q1440.17 1461.74 1439.68 1458.92 Q1439.01 1455.64 1437.23 1454.33 Q1435.48 1453 1433.7 1453 Q1433.03 1453 1432.31 1453.19 Q1431.62 1453.39 1430.61 1453.96 Q1429.6 1454.53 1428.81 1455.94 Q1428.04 1457.34 1427.67 1459.47 Q1427.27 1462.21 1427.27 1468.78 Z" fill="#000000" fill-rule="nonzero" fill-opacity="1" /><path clip-path="url(#clip390)" d="M1789.78 1469.4 Q1789.78 1461.96 1791.66 1457.91 Q1794.28 1451.88 1800.45 1451.88 Q1801.76 1451.88 1803.12 1452.26 Q1804.5 1452.6 1806.23 1453.96 Q1807.99 1455.32 1809.05 1457.54 Q1811.08 1461.84 1811.08 1469.4 Q1811.08 1476.79 1809.2 1480.81 Q1806.46 1486.69 1800.4 1486.69 Q1798.13 1486.69 1795.81 1485.53 Q1793.51 1484.37 1792.05 1481.58 Q1789.78 1477.4 1789.78 1469.4 M1793.98 1468.78 Q1793.98 1476.41 1794.52 1479.45 Q1795.14 1482.74 1796.82 1484.17 Q1798.53 1485.58 1800.4 1485.58 Q1802.43 1485.58 1804.11 1484.07 Q1805.81 1482.54 1806.33 1479.26 Q1806.9 1476.02 1806.88 1468.78 Q1806.88 1461.74 1806.38 1458.92 Q1805.71 1455.64 1803.94 1454.33 Q1802.18 1453 1800.4 1453 Q1799.74 1453 1799.02 1453.19 Q1798.33 1453.39 1797.32 1453.96 Q1796.3 1454.53 1795.51 1455.94 Q1794.75 1457.34 1794.38 1459.47 Q1793.98 1462.21 1793.98 1468.78 Z" fill="#000000" fill-rule="nonzero" fill-opacity="1" /><path clip-path="url(#clip390)" d="M1818.16 1484.76 Q1817.4 1483.95 1817.4 1482.89 Q1817.4 1481.82 1818.16 1481.06 Q1818.93 1480.27 1820.09 1480.27 Q1821.2 1480.27 1821.94 1481.01 Q1822.71 1481.73 1822.71 1482.91 Q1822.71 1484.07 1821.9 1484.84 Q1821.1 1485.58 1820.09 1485.58 Q1818.93 1485.58 1818.16 1484.76 Z" fill="#000000" fill-rule="nonzero" fill-opacity="1" /><path clip-path="url(#clip390)" d="M1829.68 1477.43 Q1829.68 1475.92 1830.49 1475.35 Q1831.31 1474.76 1832.17 1474.76 Q1833.33 1474.76 1834 1475.5 Q1834.69 1476.22 1834.69 1477.23 Q1834.69 1478.24 1834 1478.98 Q1833.33 1479.7 1832.17 1479.7 Q1831.6 1479.7 1831.31 1479.6 Q1831.97 1481.92 1834 1483.6 Q1836.05 1485.28 1838.74 1485.28 Q1842.13 1485.28 1844.15 1482 Q1845.36 1479.87 1845.36 1475.06 Q1845.36 1470.81 1844.45 1468.68 Q1843.04 1465.45 1840.15 1465.45 Q1836.05 1465.45 1833.63 1468.98 Q1833.33 1469.42 1832.99 1469.45 Q1832.49 1469.45 1832.37 1469.18 Q1832.27 1468.88 1832.27 1468.11 L1832.27 1453.14 Q1832.27 1451.93 1832.76 1451.93 Q1832.96 1451.93 1833.38 1452.08 Q1836.57 1453.49 1840.1 1453.51 Q1843.73 1453.51 1846.99 1452.03 Q1847.24 1451.88 1847.39 1451.88 Q1847.88 1451.88 1847.91 1452.45 Q1847.91 1452.65 1847.49 1453.24 Q1847.09 1453.81 1846.23 1454.58 Q1845.36 1455.32 1844.25 1456.03 Q1843.14 1456.75 1841.51 1457.25 Q1839.9 1457.71 1838.13 1457.71 Q1836 1457.71 1833.83 1457.05 L1833.83 1466.9 Q1836.45 1464.33 1840.25 1464.33 Q1844.3 1464.33 1847.09 1467.6 Q1849.88 1470.86 1849.88 1475.4 Q1849.88 1480.17 1846.57 1483.43 Q1843.29 1486.69 1838.84 1486.69 Q1834.79 1486.69 1832.22 1483.8 Q1829.68 1480.91 1829.68 1477.43 Z" fill="#000000" fill-rule="nonzero" fill-opacity="1" /><path clip-path="url(#clip390)" d="M2196.56 1456.7 L2196.56 1455.12 Q2202.63 1455.12 2205.77 1451.88 Q2206.63 1451.88 2206.78 1452.08 Q2206.93 1452.28 2206.93 1453.19 L2206.93 1481.58 Q2206.93 1483.08 2207.67 1483.55 Q2208.41 1484.02 2211.65 1484.02 L2213.25 1484.02 L2213.25 1485.58 Q2211.48 1485.43 2205.05 1485.43 Q2198.63 1485.43 2196.88 1485.58 L2196.88 1484.02 L2198.48 1484.02 Q2201.67 1484.02 2202.43 1483.58 Q2203.2 1483.11 2203.2 1481.58 L2203.2 1455.37 Q2200.56 1456.7 2196.56 1456.7 Z" fill="#000000" fill-rule="nonzero" fill-opacity="1" /><path clip-path="url(#clip390)" d="M2222.42 1484.76 Q2221.65 1483.95 2221.65 1482.89 Q2221.65 1481.82 2222.42 1481.06 Q2223.19 1480.27 2224.35 1480.27 Q2225.46 1480.27 2226.2 1481.01 Q2226.97 1481.73 2226.97 1482.91 Q2226.97 1484.07 2226.15 1484.84 Q2225.36 1485.58 2224.35 1485.58 Q2223.19 1485.58 2222.42 1484.76 Z" fill="#000000" fill-rule="nonzero" fill-opacity="1" /><path clip-path="url(#clip390)" d="M2233.39 1469.4 Q2233.39 1461.96 2235.27 1457.91 Q2237.88 1451.88 2244.06 1451.88 Q2245.37 1451.88 2246.73 1452.26 Q2248.11 1452.6 2249.84 1453.96 Q2251.59 1455.32 2252.66 1457.54 Q2254.68 1461.84 2254.68 1469.4 Q2254.68 1476.79 2252.81 1480.81 Q2250.06 1486.69 2244.01 1486.69 Q2241.74 1486.69 2239.42 1485.53 Q2237.12 1484.37 2235.66 1481.58 Q2233.39 1477.4 2233.39 1469.4 M2237.59 1468.78 Q2237.59 1476.41 2238.13 1479.45 Q2238.75 1482.74 2240.43 1484.17 Q2242.13 1485.58 2244.01 1485.58 Q2246.04 1485.58 2247.72 1484.07 Q2249.42 1482.54 2249.94 1479.26 Q2250.51 1476.02 2250.48 1468.78 Q2250.48 1461.74 2249.99 1458.92 Q2249.32 1455.64 2247.54 1454.33 Q2245.79 1453 2244.01 1453 Q2243.34 1453 2242.63 1453.19 Q2241.94 1453.39 2240.92 1453.96 Q2239.91 1454.53 2239.12 1455.94 Q2238.35 1457.34 2237.98 1459.47 Q2237.59 1462.21 2237.59 1468.78 Z" fill="#000000" fill-rule="nonzero" fill-opacity="1" /><path clip-path="url(#clip390)" d="M1163.17 1555.46 L1163.17 1553.43 Q1166.68 1553.43 1167.49 1553.01 Q1168.29 1552.56 1168.29 1550.44 L1168.29 1532.76 Q1168.29 1530.31 1167.42 1529.7 Q1166.59 1529.08 1163.17 1529.08 L1163.17 1527.02 L1172.45 1526.32 L1172.45 1533.24 Q1175.54 1526.32 1182.21 1526.32 Q1189.94 1526.32 1191 1532.76 Q1192.13 1530.24 1194.48 1528.28 Q1196.86 1526.32 1200.56 1526.32 Q1205.52 1526.32 1207.49 1528.76 Q1208.94 1530.41 1209.23 1532.24 Q1209.52 1534.08 1209.52 1538.84 L1209.52 1551.44 Q1209.58 1552.82 1210.64 1553.14 Q1211.71 1553.43 1214.67 1553.43 L1214.67 1555.46 Q1207.94 1555.27 1207.29 1555.27 Q1206.78 1555.27 1199.82 1555.46 L1199.82 1553.43 Q1203.33 1553.43 1204.14 1553.01 Q1204.98 1552.56 1204.98 1550.44 L1204.98 1535.08 Q1204.98 1531.73 1203.95 1529.76 Q1202.91 1527.76 1200.08 1527.76 Q1196.67 1527.76 1193.93 1530.63 Q1191.19 1533.5 1191.19 1538.33 L1191.19 1550.44 Q1191.19 1552.56 1192 1553.01 Q1192.83 1553.43 1196.34 1553.43 L1196.34 1555.46 Q1189.61 1555.27 1188.94 1555.27 Q1188.42 1555.27 1181.5 1555.46 L1181.5 1553.43 Q1185.01 1553.43 1185.81 1553.01 Q1186.65 1552.56 1186.65 1550.44 L1186.65 1535.08 Q1186.65 1531.73 1185.62 1529.76 Q1184.59 1527.76 1181.76 1527.76 Q1178.34 1527.76 1175.6 1530.63 Q1172.87 1533.5 1172.87 1538.33 L1172.87 1550.44 Q1172.87 1552.56 1173.67 1553.01 Q1174.51 1553.43 1177.99 1553.43 L1177.99 1555.46 Q1171.26 1555.27 1170.61 1555.27 Q1170.1 1555.27 1163.17 1555.46 Z" fill="#000000" fill-rule="nonzero" fill-opacity="1" /><path clip-path="url(#clip390)" d="M1218.35 1549.18 Q1218.35 1543.58 1224.95 1540.61 Q1228.92 1538.71 1237.1 1538.23 L1237.1 1535.82 Q1237.1 1531.73 1234.94 1529.57 Q1232.81 1527.38 1230.11 1527.38 Q1225.28 1527.38 1222.96 1530.41 Q1224.92 1530.47 1225.63 1531.47 Q1226.34 1532.43 1226.34 1533.43 Q1226.34 1534.75 1225.5 1535.62 Q1224.7 1536.46 1223.31 1536.46 Q1221.99 1536.46 1221.12 1535.65 Q1220.25 1534.82 1220.25 1533.37 Q1220.25 1530.15 1223.15 1528.02 Q1226.08 1525.9 1230.24 1525.9 Q1235.65 1525.9 1239.25 1529.54 Q1240.38 1530.66 1240.93 1532.11 Q1241.51 1533.56 1241.57 1534.53 Q1241.64 1535.46 1241.64 1537.33 L1241.64 1550.5 Q1241.64 1550.89 1241.77 1551.53 Q1241.89 1552.18 1242.47 1553.01 Q1243.09 1553.82 1244.08 1553.82 Q1246.47 1553.82 1246.44 1549.6 L1246.44 1545.9 L1248.11 1545.9 L1248.11 1549.6 Q1248.11 1553.11 1246.24 1554.5 Q1244.41 1555.85 1242.7 1555.85 Q1240.51 1555.85 1239.12 1554.24 Q1237.74 1552.63 1237.55 1550.44 Q1236.55 1552.95 1234.26 1554.59 Q1232.01 1556.2 1228.92 1556.2 Q1226.53 1556.2 1224.28 1555.59 Q1222.06 1555.01 1220.19 1553.37 Q1218.35 1551.69 1218.35 1549.18 M1223.44 1549.12 Q1223.44 1551.56 1225.18 1553.14 Q1226.92 1554.72 1229.37 1554.72 Q1232.14 1554.72 1234.62 1552.6 Q1237.1 1550.44 1237.1 1546.22 L1237.1 1539.62 Q1229.78 1539.87 1226.6 1542.8 Q1223.44 1545.7 1223.44 1549.12 Z" fill="#000000" fill-rule="nonzero" fill-opacity="1" /><path clip-path="url(#clip390)" d="M1251.02 1554.59 L1251.02 1545.9 Q1251.02 1545.16 1251.05 1544.9 Q1251.08 1544.64 1251.27 1544.45 Q1251.47 1544.25 1251.85 1544.25 Q1252.3 1544.25 1252.47 1544.45 Q1252.66 1544.64 1252.79 1545.38 Q1253.79 1549.92 1255.91 1552.34 Q1258.07 1554.72 1261.97 1554.72 Q1265.67 1554.72 1267.54 1553.08 Q1269.41 1551.44 1269.41 1548.73 Q1269.41 1543.9 1262.55 1542.68 Q1258.58 1541.87 1256.94 1541.36 Q1255.3 1540.81 1253.85 1539.62 Q1251.02 1537.3 1251.02 1534.01 Q1251.02 1530.73 1253.5 1528.31 Q1256.01 1525.9 1261.55 1525.9 Q1265.25 1525.9 1267.76 1527.76 Q1268.5 1527.18 1268.89 1526.7 Q1269.76 1525.9 1270.21 1525.9 Q1270.73 1525.9 1270.82 1526.25 Q1270.92 1526.57 1270.92 1527.51 L1270.92 1534.14 Q1270.92 1534.88 1270.89 1535.14 Q1270.85 1535.4 1270.66 1535.59 Q1270.47 1535.75 1270.05 1535.75 Q1269.31 1535.75 1269.28 1535.14 Q1268.76 1527.15 1261.55 1527.15 Q1257.65 1527.15 1255.91 1528.67 Q1254.17 1530.15 1254.17 1532.18 Q1254.17 1533.3 1254.69 1534.17 Q1255.23 1535.01 1255.91 1535.53 Q1256.62 1536.01 1257.91 1536.49 Q1259.2 1536.94 1259.97 1537.1 Q1260.77 1537.27 1262.29 1537.59 Q1267.57 1538.59 1269.79 1540.74 Q1272.56 1543.51 1272.56 1547.02 Q1272.56 1550.92 1269.92 1553.56 Q1267.28 1556.2 1261.97 1556.2 Q1257.68 1556.2 1254.69 1553.34 Q1254.3 1553.72 1254.01 1554.08 Q1253.72 1554.4 1253.59 1554.53 Q1253.5 1554.66 1253.46 1554.75 Q1253.43 1554.82 1253.37 1554.88 Q1252.05 1556.2 1251.72 1556.2 Q1251.21 1556.2 1251.11 1555.85 Q1251.02 1555.53 1251.02 1554.59 Z" fill="#000000" fill-rule="nonzero" fill-opacity="1" /><path clip-path="url(#clip390)" d="M1276.46 1554.59 L1276.46 1545.9 Q1276.46 1545.16 1276.49 1544.9 Q1276.53 1544.64 1276.72 1544.45 Q1276.91 1544.25 1277.3 1544.25 Q1277.75 1544.25 1277.91 1544.45 Q1278.1 1544.64 1278.23 1545.38 Q1279.23 1549.92 1281.36 1552.34 Q1283.52 1554.72 1287.41 1554.72 Q1291.12 1554.72 1292.98 1553.08 Q1294.85 1551.44 1294.85 1548.73 Q1294.85 1543.9 1287.99 1542.68 Q1284.03 1541.87 1282.39 1541.36 Q1280.75 1540.81 1279.3 1539.62 Q1276.46 1537.3 1276.46 1534.01 Q1276.46 1530.73 1278.94 1528.31 Q1281.45 1525.9 1286.99 1525.9 Q1290.7 1525.9 1293.21 1527.76 Q1293.95 1527.18 1294.34 1526.7 Q1295.21 1525.9 1295.66 1525.9 Q1296.17 1525.9 1296.27 1526.25 Q1296.37 1526.57 1296.37 1527.51 L1296.37 1534.14 Q1296.37 1534.88 1296.33 1535.14 Q1296.3 1535.4 1296.11 1535.59 Q1295.91 1535.75 1295.5 1535.75 Q1294.76 1535.75 1294.72 1535.14 Q1294.21 1527.15 1286.99 1527.15 Q1283.1 1527.15 1281.36 1528.67 Q1279.62 1530.15 1279.62 1532.18 Q1279.62 1533.3 1280.13 1534.17 Q1280.68 1535.01 1281.36 1535.53 Q1282.07 1536.01 1283.35 1536.49 Q1284.64 1536.94 1285.42 1537.1 Q1286.22 1537.27 1287.73 1537.59 Q1293.02 1538.59 1295.24 1540.74 Q1298.01 1543.51 1298.01 1547.02 Q1298.01 1550.92 1295.37 1553.56 Q1292.73 1556.2 1287.41 1556.2 Q1283.13 1556.2 1280.13 1553.34 Q1279.75 1553.72 1279.46 1554.08 Q1279.17 1554.4 1279.04 1554.53 Q1278.94 1554.66 1278.91 1554.75 Q1278.88 1554.82 1278.81 1554.88 Q1277.49 1556.2 1277.17 1556.2 Q1276.66 1556.2 1276.56 1555.85 Q1276.46 1555.53 1276.46 1554.59 Z" fill="#000000" fill-rule="nonzero" fill-opacity="1" /><path clip-path="url(#clip390)" d="M1316.7 1568.34 Q1316.7 1568.05 1316.93 1567.41 L1337.97 1511.2 Q1337.97 1511.14 1338.11 1510.82 Q1338.26 1510.5 1338.35 1510.29 Q1338.43 1510.06 1338.61 1509.89 Q1338.81 1509.71 1339.05 1509.71 Q1339.63 1509.71 1339.63 1510.44 Q1339.63 1510.5 1339.45 1511.2 L1318.36 1567.47 Q1318.01 1568.49 1317.77 1568.78 Q1317.57 1569.07 1317.22 1569.07 Q1316.7 1569.07 1316.7 1568.34 Z" fill="#000000" fill-rule="nonzero" fill-opacity="1" /><path clip-path="url(#clip390)" d="M1367.77 1555.46 L1367.77 1553.43 Q1371.28 1553.43 1372.09 1553.01 Q1372.93 1552.56 1372.93 1550.44 L1372.93 1516.14 Q1372.93 1513.69 1372.06 1513.08 Q1371.22 1512.47 1367.77 1512.47 L1367.77 1510.41 L1377.27 1509.7 L1377.27 1541.36 L1386.58 1533.3 Q1388.03 1532.05 1388.03 1530.73 Q1388.03 1529.21 1386.13 1529.08 L1386.13 1527.02 Q1388.9 1527.22 1393.5 1527.22 Q1396.21 1527.22 1398.11 1527.02 L1398.11 1529.08 Q1393.96 1529.28 1389.8 1532.63 Q1388.87 1533.37 1386.64 1535.3 Q1384.45 1537.2 1384.45 1537.39 Q1384.45 1537.46 1384.52 1537.62 Q1384.62 1537.78 1384.74 1537.91 Q1384.87 1538.04 1384.87 1538.1 L1393.25 1549.92 Q1394.95 1552.31 1396.21 1552.89 Q1397.47 1553.43 1399.66 1553.43 L1399.66 1555.46 Q1396.82 1555.27 1393.89 1555.27 Q1392.31 1555.27 1386.77 1555.46 L1386.77 1553.43 Q1389.16 1553.43 1389.16 1551.89 Q1389.16 1550.82 1383.81 1543.45 Q1383.42 1542.93 1382.55 1541.81 Q1381.75 1540.61 1381.3 1540.03 L1377.08 1543.64 L1377.08 1550.44 Q1377.08 1552.56 1377.88 1553.01 Q1378.72 1553.43 1382.23 1553.43 L1382.23 1555.46 Q1378.27 1555.27 1374.99 1555.27 Q1374.31 1555.27 1367.77 1555.46 Z" fill="#000000" fill-rule="nonzero" fill-opacity="1" /><path clip-path="url(#clip390)" d="M1399.27 1560.68 Q1399.27 1558.55 1400.88 1556.72 Q1402.53 1554.88 1405.36 1554.08 Q1402.46 1552.24 1402.46 1548.22 Q1402.46 1545.12 1404.49 1542.74 Q1401.4 1540.16 1401.4 1535.94 Q1401.4 1532.05 1404.49 1529.18 Q1407.58 1526.32 1412.09 1526.32 Q1416.05 1526.32 1419.08 1528.7 Q1422.24 1525.61 1426.07 1525.57 Q1427.78 1525.57 1428.58 1526.64 Q1429.42 1527.7 1429.42 1528.83 Q1429.42 1529.83 1428.77 1530.31 Q1428.16 1530.79 1427.52 1530.79 Q1426.71 1530.79 1426.13 1530.28 Q1425.59 1529.73 1425.59 1528.89 Q1425.59 1527.51 1426.65 1527.09 Q1426.46 1527.02 1426 1527.02 Q1422.78 1527.02 1420.05 1529.6 Q1422.75 1532.11 1422.75 1536.01 Q1422.75 1539.91 1419.66 1542.77 Q1416.57 1545.64 1412.09 1545.64 Q1408.39 1545.64 1405.55 1543.58 Q1404.43 1544.9 1404.43 1546.7 Q1404.43 1548.34 1405.42 1549.63 Q1406.42 1550.92 1407.94 1551.11 Q1408.39 1551.18 1412.86 1551.18 Q1415.51 1551.18 1416.95 1551.24 Q1418.4 1551.31 1420.47 1551.76 Q1422.56 1552.18 1424.2 1553.01 Q1428.48 1555.4 1428.52 1560.55 Q1428.52 1564.32 1424.17 1566.67 Q1419.85 1569.05 1413.86 1569.05 Q1407.81 1569.05 1403.52 1566.64 Q1399.27 1564.25 1399.27 1560.68 M1402.72 1560.68 Q1402.72 1563.38 1405.91 1565.45 Q1409.1 1567.54 1413.93 1567.54 Q1418.66 1567.54 1421.85 1565.48 Q1425.07 1563.45 1425.07 1560.68 Q1425.07 1558.71 1423.94 1557.46 Q1422.82 1556.2 1420.5 1555.69 Q1418.21 1555.2 1416.6 1555.11 Q1414.99 1555.01 1412.03 1555.01 L1408.13 1555.01 Q1405.88 1555.14 1404.3 1556.78 Q1402.72 1558.42 1402.72 1560.68 M1406.33 1536.01 Q1406.33 1544.13 1412.09 1544.13 Q1414.99 1544.13 1416.76 1541.48 Q1417.82 1539.71 1417.82 1535.94 Q1417.82 1527.83 1412.09 1527.83 Q1409.19 1527.83 1407.39 1530.47 Q1406.33 1532.24 1406.33 1536.01 Z" fill="#000000" fill-rule="nonzero" fill-opacity="1" /><polyline clip-path="url(#clip390)" style="stroke:#000000; stroke-linecap:round; stroke-linejoin:round; stroke-width:4; stroke-opacity:1; fill:none" points="249.395,1423.18 249.395,47.2441 "/>
<polyline clip-path="url(#clip390)" style="stroke:#000000; stroke-linecap:round; stroke-linejoin:round; stroke-width:4; stroke-opacity:1; fill:none" points="249.395,1293.3 268.292,1293.3 "/>
<polyline clip-path="url(#clip390)" style="stroke:#000000; stroke-linecap:round; stroke-linejoin:round; stroke-width:4; stroke-opacity:1; fill:none" points="249.395,1115.21 268.292,1115.21 "/>
<polyline clip-path="url(#clip390)" style="stroke:#000000; stroke-linecap:round; stroke-linejoin:round; stroke-width:4; stroke-opacity:1; fill:none" points="249.395,937.129 268.292,937.129 "/>
<polyline clip-path="url(#clip390)" style="stroke:#000000; stroke-linecap:round; stroke-linejoin:round; stroke-width:4; stroke-opacity:1; fill:none" points="249.395,759.044 268.292,759.044 "/>
<polyline clip-path="url(#clip390)" style="stroke:#000000; stroke-linecap:round; stroke-linejoin:round; stroke-width:4; stroke-opacity:1; fill:none" points="249.395,580.959 268.292,580.959 "/>
<polyline clip-path="url(#clip390)" style="stroke:#000000; stroke-linecap:round; stroke-linejoin:round; stroke-width:4; stroke-opacity:1; fill:none" points="249.395,402.874 268.292,402.874 "/>
<polyline clip-path="url(#clip390)" style="stroke:#000000; stroke-linecap:round; stroke-linejoin:round; stroke-width:4; stroke-opacity:1; fill:none" points="249.395,224.789 268.292,224.789 "/>
<path clip-path="url(#clip390)" d="M148.203 1297.21 Q148.499 1297.51 148.499 1297.93 Q148.499 1298.35 148.203 1298.65 Q147.906 1298.94 147.486 1298.94 L115.816 1298.94 Q115.397 1298.94 115.1 1298.65 Q114.804 1298.35 114.804 1297.93 Q114.804 1297.51 115.1 1297.21 Q115.397 1296.92 115.816 1296.92 L147.486 1296.92 Q147.906 1296.92 148.203 1297.21 Z" fill="#000000" fill-rule="nonzero" fill-opacity="1" /><path clip-path="url(#clip390)" d="M155.811 1281.7 L155.811 1280.12 Q161.888 1280.12 165.026 1276.88 Q165.89 1276.88 166.038 1277.08 Q166.187 1277.28 166.187 1278.19 L166.187 1306.58 Q166.187 1308.08 166.928 1308.55 Q167.669 1309.02 170.905 1309.02 L172.511 1309.02 L172.511 1310.58 Q170.732 1310.43 164.309 1310.43 Q157.886 1310.43 156.132 1310.58 L156.132 1309.02 L157.738 1309.02 Q160.925 1309.02 161.691 1308.58 Q162.456 1308.11 162.456 1306.58 L162.456 1280.37 Q159.813 1281.7 155.811 1281.7 Z" fill="#000000" fill-rule="nonzero" fill-opacity="1" /><path clip-path="url(#clip390)" d="M181.676 1309.76 Q180.91 1308.95 180.91 1307.89 Q180.91 1306.82 181.676 1306.06 Q182.441 1305.27 183.602 1305.27 Q184.714 1305.27 185.455 1306.01 Q186.221 1306.73 186.221 1307.91 Q186.221 1309.07 185.406 1309.84 Q184.615 1310.58 183.602 1310.58 Q182.441 1310.58 181.676 1309.76 Z" fill="#000000" fill-rule="nonzero" fill-opacity="1" /><path clip-path="url(#clip390)" d="M193.187 1302.43 Q193.187 1300.92 194.003 1300.35 Q194.818 1299.76 195.682 1299.76 Q196.843 1299.76 197.51 1300.5 Q198.202 1301.22 198.202 1302.23 Q198.202 1303.24 197.51 1303.98 Q196.843 1304.7 195.682 1304.7 Q195.114 1304.7 194.818 1304.6 Q195.485 1306.92 197.51 1308.6 Q199.561 1310.28 202.254 1310.28 Q205.638 1310.28 207.664 1307 Q208.874 1304.87 208.874 1300.06 Q208.874 1295.81 207.96 1293.68 Q206.552 1290.45 203.662 1290.45 Q199.561 1290.45 197.14 1293.98 Q196.843 1294.42 196.498 1294.45 Q196.004 1294.45 195.88 1294.18 Q195.781 1293.88 195.781 1293.11 L195.781 1278.14 Q195.781 1276.93 196.275 1276.93 Q196.473 1276.93 196.893 1277.08 Q200.08 1278.49 203.612 1278.51 Q207.244 1278.51 210.504 1277.03 Q210.751 1276.88 210.9 1276.88 Q211.394 1276.88 211.418 1277.45 Q211.418 1277.65 210.999 1278.24 Q210.603 1278.81 209.739 1279.58 Q208.874 1280.32 207.762 1281.03 Q206.651 1281.75 205.02 1282.24 Q203.415 1282.71 201.636 1282.71 Q199.511 1282.71 197.338 1282.05 L197.338 1291.9 Q199.956 1289.33 203.76 1289.33 Q207.812 1289.33 210.603 1292.6 Q213.395 1295.86 213.395 1300.4 Q213.395 1305.17 210.084 1308.43 Q206.799 1311.69 202.352 1311.69 Q198.301 1311.69 195.732 1308.8 Q193.187 1305.91 193.187 1302.43 Z" fill="#000000" fill-rule="nonzero" fill-opacity="1" /><path clip-path="url(#clip390)" d="M147.659 1119.13 Q147.956 1119.43 147.956 1119.85 Q147.956 1120.27 147.659 1120.56 Q147.363 1120.86 146.943 1120.86 L115.273 1120.86 Q114.853 1120.86 114.557 1120.56 Q114.26 1120.27 114.26 1119.85 Q114.26 1119.43 114.557 1119.13 Q114.853 1118.83 115.273 1118.83 L146.943 1118.83 Q147.363 1118.83 147.659 1119.13 Z" fill="#000000" fill-rule="nonzero" fill-opacity="1" /><path clip-path="url(#clip390)" d="M155.268 1103.62 L155.268 1102.04 Q161.345 1102.04 164.482 1098.8 Q165.347 1098.8 165.495 1099 Q165.643 1099.19 165.643 1100.11 L165.643 1128.49 Q165.643 1130 166.384 1130.47 Q167.125 1130.94 170.361 1130.94 L171.967 1130.94 L171.967 1132.49 Q170.189 1132.35 163.766 1132.35 Q157.343 1132.35 155.589 1132.49 L155.589 1130.94 L157.195 1130.94 Q160.381 1130.94 161.147 1130.49 Q161.913 1130.02 161.913 1128.49 L161.913 1102.28 Q159.27 1103.62 155.268 1103.62 Z" fill="#000000" fill-rule="nonzero" fill-opacity="1" /><path clip-path="url(#clip390)" d="M181.132 1131.68 Q180.366 1130.86 180.366 1129.8 Q180.366 1128.74 181.132 1127.97 Q181.898 1127.18 183.059 1127.18 Q184.171 1127.18 184.912 1127.92 Q185.678 1128.64 185.678 1129.83 Q185.678 1130.99 184.862 1131.75 Q184.072 1132.49 183.059 1132.49 Q181.898 1132.49 181.132 1131.68 Z" fill="#000000" fill-rule="nonzero" fill-opacity="1" /><path clip-path="url(#clip390)" d="M192.1 1116.31 Q192.1 1108.88 193.978 1104.83 Q196.596 1098.8 202.772 1098.8 Q204.082 1098.8 205.44 1099.17 Q206.824 1099.52 208.553 1100.87 Q210.307 1102.23 211.369 1104.46 Q213.395 1108.75 213.395 1116.31 Q213.395 1123.7 211.517 1127.73 Q208.775 1133.61 202.723 1133.61 Q200.45 1133.61 198.128 1132.44 Q195.831 1131.28 194.373 1128.49 Q192.1 1124.32 192.1 1116.31 M196.3 1115.7 Q196.3 1123.33 196.843 1126.37 Q197.461 1129.65 199.141 1131.09 Q200.845 1132.49 202.723 1132.49 Q204.749 1132.49 206.428 1130.99 Q208.133 1129.46 208.652 1126.17 Q209.22 1122.93 209.195 1115.7 Q209.195 1108.66 208.701 1105.84 Q208.034 1102.55 206.255 1101.24 Q204.502 1099.91 202.723 1099.91 Q202.056 1099.91 201.339 1100.11 Q200.648 1100.31 199.635 1100.87 Q198.622 1101.44 197.832 1102.85 Q197.066 1104.26 196.695 1106.38 Q196.3 1109.12 196.3 1115.7 Z" fill="#000000" fill-rule="nonzero" fill-opacity="1" /><path clip-path="url(#clip390)" d="M148.203 941.045 Q148.499 941.341 148.499 941.761 Q148.499 942.181 148.203 942.478 Q147.906 942.774 147.486 942.774 L115.816 942.774 Q115.397 942.774 115.1 942.478 Q114.804 942.181 114.804 941.761 Q114.804 941.341 115.1 941.045 Q115.397 940.748 115.816 940.748 L147.486 940.748 Q147.906 940.748 148.203 941.045 Z" fill="#000000" fill-rule="nonzero" fill-opacity="1" /><path clip-path="url(#clip390)" d="M153.291 938.229 Q153.291 930.793 155.169 926.741 Q157.787 920.714 163.963 920.714 Q165.273 920.714 166.631 921.084 Q168.015 921.43 169.744 922.789 Q171.498 924.148 172.56 926.371 Q174.586 930.669 174.586 938.229 Q174.586 945.615 172.708 949.642 Q169.966 955.521 163.914 955.521 Q161.641 955.521 159.319 954.36 Q157.022 953.199 155.564 950.407 Q153.291 946.232 153.291 938.229 M157.491 937.611 Q157.491 945.244 158.035 948.283 Q158.652 951.568 160.332 953.001 Q162.036 954.409 163.914 954.409 Q165.94 954.409 167.619 952.902 Q169.324 951.371 169.843 948.085 Q170.411 944.849 170.386 937.611 Q170.386 930.571 169.892 927.754 Q169.225 924.469 167.446 923.159 Q165.693 921.826 163.914 921.826 Q163.247 921.826 162.531 922.023 Q161.839 922.221 160.826 922.789 Q159.813 923.357 159.023 924.765 Q158.257 926.173 157.886 928.298 Q157.491 931.04 157.491 937.611 Z" fill="#000000" fill-rule="nonzero" fill-opacity="1" /><path clip-path="url(#clip390)" d="M181.676 953.594 Q180.91 952.779 180.91 951.717 Q180.91 950.654 181.676 949.889 Q182.441 949.098 183.602 949.098 Q184.714 949.098 185.455 949.839 Q186.221 950.556 186.221 951.741 Q186.221 952.902 185.406 953.668 Q184.615 954.409 183.602 954.409 Q182.441 954.409 181.676 953.594 Z" fill="#000000" fill-rule="nonzero" fill-opacity="1" /><path clip-path="url(#clip390)" d="M193.187 946.257 Q193.187 944.75 194.003 944.182 Q194.818 943.589 195.682 943.589 Q196.843 943.589 197.51 944.33 Q198.202 945.047 198.202 946.06 Q198.202 947.072 197.51 947.813 Q196.843 948.53 195.682 948.53 Q195.114 948.53 194.818 948.431 Q195.485 950.753 197.51 952.433 Q199.561 954.113 202.254 954.113 Q205.638 954.113 207.664 950.827 Q208.874 948.703 208.874 943.886 Q208.874 939.637 207.96 937.512 Q206.552 934.276 203.662 934.276 Q199.561 934.276 197.14 937.809 Q196.843 938.253 196.498 938.278 Q196.004 938.278 195.88 938.006 Q195.781 937.71 195.781 936.944 L195.781 921.974 Q195.781 920.763 196.275 920.763 Q196.473 920.763 196.893 920.911 Q200.08 922.32 203.612 922.344 Q207.244 922.344 210.504 920.862 Q210.751 920.714 210.9 920.714 Q211.394 920.714 211.418 921.282 Q211.418 921.48 210.999 922.073 Q210.603 922.641 209.739 923.407 Q208.874 924.148 207.762 924.864 Q206.651 925.58 205.02 926.074 Q203.415 926.544 201.636 926.544 Q199.511 926.544 197.338 925.877 L197.338 935.734 Q199.956 933.164 203.76 933.164 Q207.812 933.164 210.603 936.425 Q213.395 939.686 213.395 944.231 Q213.395 948.999 210.084 952.26 Q206.799 955.521 202.352 955.521 Q198.301 955.521 195.732 952.631 Q193.187 949.74 193.187 946.257 Z" fill="#000000" fill-rule="nonzero" fill-opacity="1" /><path clip-path="url(#clip390)" d="M152.748 760.143 Q152.748 752.708 154.625 748.656 Q157.244 742.629 163.42 742.629 Q164.729 742.629 166.088 742.999 Q167.471 743.345 169.2 744.704 Q170.954 746.063 172.017 748.286 Q174.042 752.584 174.042 760.143 Q174.042 767.53 172.165 771.556 Q169.423 777.436 163.37 777.436 Q161.098 777.436 158.776 776.275 Q156.478 775.114 155.021 772.322 Q152.748 768.147 152.748 760.143 M156.948 759.526 Q156.948 767.159 157.491 770.198 Q158.109 773.483 159.788 774.916 Q161.493 776.324 163.37 776.324 Q165.396 776.324 167.076 774.817 Q168.78 773.286 169.299 770 Q169.867 766.764 169.843 759.526 Q169.843 752.485 169.349 749.669 Q168.682 746.384 166.903 745.074 Q165.149 743.74 163.37 743.74 Q162.703 743.74 161.987 743.938 Q161.295 744.136 160.283 744.704 Q159.27 745.272 158.479 746.68 Q157.713 748.088 157.343 750.213 Q156.948 752.955 156.948 759.526 Z" fill="#000000" fill-rule="nonzero" fill-opacity="1" /><path clip-path="url(#clip390)" d="M181.132 775.509 Q180.366 774.694 180.366 773.631 Q180.366 772.569 181.132 771.803 Q181.898 771.013 183.059 771.013 Q184.171 771.013 184.912 771.754 Q185.678 772.47 185.678 773.656 Q185.678 774.817 184.862 775.583 Q184.072 776.324 183.059 776.324 Q181.898 776.324 181.132 775.509 Z" fill="#000000" fill-rule="nonzero" fill-opacity="1" /><path clip-path="url(#clip390)" d="M192.1 760.143 Q192.1 752.708 193.978 748.656 Q196.596 742.629 202.772 742.629 Q204.082 742.629 205.44 742.999 Q206.824 743.345 208.553 744.704 Q210.307 746.063 211.369 748.286 Q213.395 752.584 213.395 760.143 Q213.395 767.53 211.517 771.556 Q208.775 777.436 202.723 777.436 Q200.45 777.436 198.128 776.275 Q195.831 775.114 194.373 772.322 Q192.1 768.147 192.1 760.143 M196.3 759.526 Q196.3 767.159 196.843 770.198 Q197.461 773.483 199.141 774.916 Q200.845 776.324 202.723 776.324 Q204.749 776.324 206.428 774.817 Q208.133 773.286 208.652 770 Q209.22 766.764 209.195 759.526 Q209.195 752.485 208.701 749.669 Q208.034 746.384 206.255 745.074 Q204.502 743.74 202.723 743.74 Q202.056 743.74 201.339 743.938 Q200.648 744.136 199.635 744.704 Q198.622 745.272 197.832 746.68 Q197.066 748.088 196.695 750.213 Q196.3 752.955 196.3 759.526 Z" fill="#000000" fill-rule="nonzero" fill-opacity="1" /><path clip-path="url(#clip390)" d="M153.291 582.058 Q153.291 574.623 155.169 570.571 Q157.787 564.544 163.963 564.544 Q165.273 564.544 166.631 564.914 Q168.015 565.26 169.744 566.619 Q171.498 567.977 172.56 570.201 Q174.586 574.499 174.586 582.058 Q174.586 589.445 172.708 593.471 Q169.966 599.351 163.914 599.351 Q161.641 599.351 159.319 598.19 Q157.022 597.029 155.564 594.237 Q153.291 590.062 153.291 582.058 M157.491 581.441 Q157.491 589.074 158.035 592.113 Q158.652 595.398 160.332 596.831 Q162.036 598.239 163.914 598.239 Q165.94 598.239 167.619 596.732 Q169.324 595.201 169.843 591.915 Q170.411 588.679 170.386 581.441 Q170.386 574.4 169.892 571.584 Q169.225 568.299 167.446 566.989 Q165.693 565.655 163.914 565.655 Q163.247 565.655 162.531 565.853 Q161.839 566.051 160.826 566.619 Q159.813 567.187 159.023 568.595 Q158.257 570.003 157.886 572.128 Q157.491 574.87 157.491 581.441 Z" fill="#000000" fill-rule="nonzero" fill-opacity="1" /><path clip-path="url(#clip390)" d="M181.676 597.424 Q180.91 596.609 180.91 595.546 Q180.91 594.484 181.676 593.718 Q182.441 592.928 183.602 592.928 Q184.714 592.928 185.455 593.669 Q186.221 594.385 186.221 595.571 Q186.221 596.732 185.406 597.498 Q184.615 598.239 183.602 598.239 Q182.441 598.239 181.676 597.424 Z" fill="#000000" fill-rule="nonzero" fill-opacity="1" /><path clip-path="url(#clip390)" d="M193.187 590.087 Q193.187 588.58 194.003 588.012 Q194.818 587.419 195.682 587.419 Q196.843 587.419 197.51 588.16 Q198.202 588.876 198.202 589.889 Q198.202 590.902 197.51 591.643 Q196.843 592.36 195.682 592.36 Q195.114 592.36 194.818 592.261 Q195.485 594.583 197.51 596.263 Q199.561 597.943 202.254 597.943 Q205.638 597.943 207.664 594.657 Q208.874 592.533 208.874 587.715 Q208.874 583.466 207.96 581.342 Q206.552 578.106 203.662 578.106 Q199.561 578.106 197.14 581.638 Q196.843 582.083 196.498 582.108 Q196.004 582.108 195.88 581.836 Q195.781 581.54 195.781 580.774 L195.781 565.804 Q195.781 564.593 196.275 564.593 Q196.473 564.593 196.893 564.741 Q200.08 566.149 203.612 566.174 Q207.244 566.174 210.504 564.692 Q210.751 564.544 210.9 564.544 Q211.394 564.544 211.418 565.112 Q211.418 565.309 210.999 565.902 Q210.603 566.471 209.739 567.236 Q208.874 567.977 207.762 568.694 Q206.651 569.41 205.02 569.904 Q203.415 570.374 201.636 570.374 Q199.511 570.374 197.338 569.707 L197.338 579.563 Q199.956 576.994 203.76 576.994 Q207.812 576.994 210.603 580.255 Q213.395 583.516 213.395 588.061 Q213.395 592.829 210.084 596.09 Q206.799 599.351 202.352 599.351 Q198.301 599.351 195.732 596.46 Q193.187 593.57 193.187 590.087 Z" fill="#000000" fill-rule="nonzero" fill-opacity="1" /><path clip-path="url(#clip390)" d="M155.268 391.276 L155.268 389.695 Q161.345 389.695 164.482 386.459 Q165.347 386.459 165.495 386.656 Q165.643 386.854 165.643 387.768 L165.643 416.152 Q165.643 417.659 166.384 418.128 Q167.125 418.598 170.361 418.598 L171.967 418.598 L171.967 420.154 Q170.189 420.006 163.766 420.006 Q157.343 420.006 155.589 420.154 L155.589 418.598 L157.195 418.598 Q160.381 418.598 161.147 418.153 Q161.913 417.684 161.913 416.152 L161.913 389.942 Q159.27 391.276 155.268 391.276 Z" fill="#000000" fill-rule="nonzero" fill-opacity="1" /><path clip-path="url(#clip390)" d="M181.132 419.339 Q180.366 418.524 180.366 417.461 Q180.366 416.399 181.132 415.633 Q181.898 414.843 183.059 414.843 Q184.171 414.843 184.912 415.584 Q185.678 416.3 185.678 417.486 Q185.678 418.647 184.862 419.413 Q184.072 420.154 183.059 420.154 Q181.898 420.154 181.132 419.339 Z" fill="#000000" fill-rule="nonzero" fill-opacity="1" /><path clip-path="url(#clip390)" d="M192.1 403.973 Q192.1 396.538 193.978 392.486 Q196.596 386.459 202.772 386.459 Q204.082 386.459 205.44 386.829 Q206.824 387.175 208.553 388.534 Q210.307 389.892 211.369 392.116 Q213.395 396.414 213.395 403.973 Q213.395 411.36 211.517 415.386 Q208.775 421.266 202.723 421.266 Q200.45 421.266 198.128 420.105 Q195.831 418.943 194.373 416.152 Q192.1 411.977 192.1 403.973 M196.3 403.356 Q196.3 410.989 196.843 414.028 Q197.461 417.313 199.141 418.746 Q200.845 420.154 202.723 420.154 Q204.749 420.154 206.428 418.647 Q208.133 417.115 208.652 413.83 Q209.22 410.594 209.195 403.356 Q209.195 396.315 208.701 393.499 Q208.034 390.213 206.255 388.904 Q204.502 387.57 202.723 387.57 Q202.056 387.57 201.339 387.768 Q200.648 387.965 199.635 388.534 Q198.622 389.102 197.832 390.51 Q197.066 391.918 196.695 394.043 Q196.3 396.785 196.3 403.356 Z" fill="#000000" fill-rule="nonzero" fill-opacity="1" /><path clip-path="url(#clip390)" d="M155.811 213.191 L155.811 211.61 Q161.888 211.61 165.026 208.373 Q165.89 208.373 166.038 208.571 Q166.187 208.769 166.187 209.683 L166.187 238.067 Q166.187 239.574 166.928 240.043 Q167.669 240.513 170.905 240.513 L172.511 240.513 L172.511 242.069 Q170.732 241.921 164.309 241.921 Q157.886 241.921 156.132 242.069 L156.132 240.513 L157.738 240.513 Q160.925 240.513 161.691 240.068 Q162.456 239.599 162.456 238.067 L162.456 211.857 Q159.813 213.191 155.811 213.191 Z" fill="#000000" fill-rule="nonzero" fill-opacity="1" /><path clip-path="url(#clip390)" d="M181.676 241.254 Q180.91 240.438 180.91 239.376 Q180.91 238.314 181.676 237.548 Q182.441 236.758 183.602 236.758 Q184.714 236.758 185.455 237.499 Q186.221 238.215 186.221 239.401 Q186.221 240.562 185.406 241.328 Q184.615 242.069 183.602 242.069 Q182.441 242.069 181.676 241.254 Z" fill="#000000" fill-rule="nonzero" fill-opacity="1" /><path clip-path="url(#clip390)" d="M193.187 233.917 Q193.187 232.41 194.003 231.842 Q194.818 231.249 195.682 231.249 Q196.843 231.249 197.51 231.99 Q198.202 232.706 198.202 233.719 Q198.202 234.732 197.51 235.473 Q196.843 236.189 195.682 236.189 Q195.114 236.189 194.818 236.091 Q195.485 238.413 197.51 240.093 Q199.561 241.772 202.254 241.772 Q205.638 241.772 207.664 238.487 Q208.874 236.362 208.874 231.545 Q208.874 227.296 207.96 225.172 Q206.552 221.936 203.662 221.936 Q199.561 221.936 197.14 225.468 Q196.843 225.913 196.498 225.938 Q196.004 225.938 195.88 225.666 Q195.781 225.369 195.781 224.604 L195.781 209.633 Q195.781 208.423 196.275 208.423 Q196.473 208.423 196.893 208.571 Q200.08 209.979 203.612 210.004 Q207.244 210.004 210.504 208.522 Q210.751 208.373 210.9 208.373 Q211.394 208.373 211.418 208.942 Q211.418 209.139 210.999 209.732 Q210.603 210.3 209.739 211.066 Q208.874 211.807 207.762 212.524 Q206.651 213.24 205.02 213.734 Q203.415 214.203 201.636 214.203 Q199.511 214.203 197.338 213.536 L197.338 223.393 Q199.956 220.824 203.76 220.824 Q207.812 220.824 210.603 224.085 Q213.395 227.346 213.395 231.891 Q213.395 236.659 210.084 239.92 Q206.799 243.181 202.352 243.181 Q198.301 243.181 195.732 240.29 Q193.187 237.4 193.187 233.917 Z" fill="#000000" fill-rule="nonzero" fill-opacity="1" /><path clip-path="url(#clip390)" d="M43.8213 851.942 Q44.6586 851.942 46.3011 852.168 Q47.9436 852.393 50.3269 852.941 Q52.7101 853.488 55.2222 854.293 Q57.7342 855.066 60.2463 856.29 Q62.7261 857.514 64.6907 858.963 Q66.6552 860.413 67.8791 862.442 Q69.1029 864.47 69.1029 866.757 Q69.1029 867.82 68.9418 868.85 Q68.7808 869.881 68.2655 871.169 Q67.7502 872.458 66.9129 873.391 Q66.0433 874.325 64.4974 874.97 Q62.9516 875.614 60.9226 875.614 Q58.8292 875.614 56.0273 874.841 Q53.1932 874.036 47.3961 871.846 Q44.401 870.718 42.7585 870.718 Q42.0177 870.718 41.5669 870.879 Q41.0838 871.04 40.9227 871.363 Q40.7295 871.685 40.6973 871.878 Q40.6651 872.039 40.6651 872.361 Q40.6651 874.132 42.5008 875.936 Q44.3366 877.739 48.8454 879.028 Q49.6505 879.285 49.8438 879.446 Q50.037 879.607 50.037 880.09 Q50.0048 880.895 49.3607 880.895 Q49.1674 880.895 48.4267 880.67 Q47.6538 880.445 46.4944 880.026 Q45.3027 879.607 44.0789 878.866 Q42.8229 878.126 41.7279 877.224 Q40.6329 876.29 39.9244 874.97 Q39.2158 873.649 39.2158 872.168 Q39.2158 869.752 40.7939 868.271 Q42.3398 866.757 44.6264 866.757 Q45.8825 866.757 47.9114 867.562 Q51.5829 868.915 53.3542 869.527 Q55.1255 870.139 57.6376 870.783 Q60.1496 871.395 61.8888 871.395 Q64.5296 871.395 66.0755 870.171 Q67.6214 868.947 67.6214 866.499 Q67.6214 864.309 66.0433 862.345 Q64.433 860.348 62.1464 859.028 Q59.8276 857.707 57.2511 856.709 Q54.6424 855.71 52.6779 855.26 Q50.6811 854.777 49.7472 854.777 Q46.4944 854.777 44.3688 856.999 Q43.7569 857.611 43.3704 857.836 Q42.9839 858.062 42.372 858.062 Q41.2448 858.062 40.2464 857.063 Q39.2158 856.033 39.2158 854.841 Q39.2158 853.746 40.3108 852.844 Q41.4058 851.942 43.8213 851.942 Z" fill="#000000" fill-rule="nonzero" fill-opacity="1" /><path clip-path="url(#clip390)" d="M63.8651 822.189 Q65.1275 822.189 65.8489 822.978 Q66.5478 823.767 66.5478 824.668 Q66.5478 825.525 66.0518 825.976 Q65.5559 826.427 64.9246 826.427 Q64.068 826.427 63.324 825.796 Q62.58 825.164 62.4222 824.218 Q61.8361 825.142 61.8361 826.517 Q61.8361 827.419 62.3095 828.208 Q62.7829 828.974 63.3916 829.448 Q64.0003 829.899 64.8795 830.304 Q65.7362 830.688 66.2547 830.846 Q66.7507 830.981 67.2918 831.094 L73.6041 832.672 Q76.6025 833.438 77.662 833.438 Q78.9696 833.438 79.8488 832.807 Q80.7055 832.176 80.7055 830.913 Q80.7055 830.417 80.5702 829.854 Q80.4124 829.29 80.0066 828.569 Q79.5783 827.825 78.9471 827.171 Q78.2933 826.495 77.1886 825.841 Q76.084 825.187 74.6637 824.759 Q74.1677 824.623 74.1677 824.172 Q74.1677 823.609 74.6186 823.609 Q75.0018 823.609 75.8134 823.925 Q76.6025 824.218 77.6395 824.871 Q78.654 825.503 79.5783 826.337 Q80.4801 827.171 81.1113 828.411 Q81.7425 829.651 81.7425 831.003 Q81.7425 832.942 80.7055 834.227 Q79.6685 835.512 78.2257 835.986 Q78.4285 836.098 78.6991 836.256 Q78.9696 836.414 79.5783 836.887 Q80.1644 837.338 80.6153 837.857 Q81.0437 838.375 81.3818 839.187 Q81.7425 839.976 81.7425 840.833 Q81.7425 841.915 81.4269 842.884 Q81.1113 843.831 80.3899 844.507 Q79.6685 845.184 78.6765 845.184 Q77.5719 845.184 76.8054 844.44 Q76.0163 843.673 76.0163 842.636 Q76.0163 841.982 76.3996 841.464 Q76.7828 840.923 77.617 840.923 Q78.5413 840.923 79.2401 841.554 Q79.939 842.185 80.1194 843.087 Q80.7055 842.163 80.7055 840.787 Q80.7055 839.3 79.3979 838.127 Q78.0904 836.955 75.9036 836.391 Q70.6508 834.994 68.3062 834.453 Q65.9391 833.912 64.9246 833.912 Q63.9778 833.912 63.324 834.16 Q62.6702 834.408 62.3771 834.836 Q62.0615 835.242 61.9488 835.625 Q61.8361 835.986 61.8361 836.391 Q61.8361 837.068 62.1066 837.834 Q62.3771 838.578 63.0084 839.48 Q63.6171 840.359 64.8795 841.193 Q66.142 842.027 67.8779 842.591 Q68.3964 842.704 68.3964 843.2 Q68.3739 843.741 67.923 843.741 Q67.5397 843.741 66.7507 843.448 Q65.9391 843.132 64.9246 842.501 Q63.9101 841.847 63.0084 841.013 Q62.0841 840.156 61.4528 838.916 Q60.8216 837.654 60.8216 836.301 Q60.8216 835.693 60.9569 835.106 Q61.0696 834.498 61.4078 833.776 Q61.7459 833.032 62.4899 832.379 Q63.2338 831.725 64.3159 831.319 Q63.7974 831.048 63.3015 830.688 Q62.8055 830.304 62.1968 829.718 Q61.5656 829.11 61.2049 828.276 Q60.8216 827.419 60.8216 826.472 Q60.8216 825.548 61.0696 824.646 Q61.295 823.744 62.039 822.978 Q62.7604 822.189 63.8651 822.189 Z" fill="#000000" fill-rule="nonzero" fill-opacity="1" /><path clip-path="url(#clip390)" d="M68.5865 800.846 Q68.3324 800.846 67.7735 800.642 L18.6886 782.274 Q18.6377 782.274 18.3583 782.147 Q18.0788 782.02 17.901 781.943 Q17.6977 781.867 17.5453 781.715 Q17.3928 781.537 17.3928 781.334 Q17.3928 780.826 18.028 780.826 Q18.0788 780.826 18.6886 780.978 L67.8243 799.398 Q68.7135 799.702 68.9676 799.906 Q69.2217 800.084 69.2217 800.388 Q69.2217 800.846 68.5865 800.846 Z" fill="#000000" fill-rule="nonzero" fill-opacity="1" /><path clip-path="url(#clip390)" d="M68.3621 753.514 L66.3332 753.514 Q66.3332 750.004 65.9145 749.199 Q65.4636 748.393 63.338 748.393 L45.657 748.393 Q43.2094 748.393 42.5975 749.263 Q41.9855 750.1 41.9855 753.514 L39.9244 753.514 L39.2158 744.239 L46.1401 744.239 Q39.2158 741.147 39.2158 734.48 Q39.2158 726.751 45.657 725.688 Q43.145 724.561 41.1804 722.21 Q39.2158 719.827 39.2158 716.123 Q39.2158 711.163 41.6635 709.199 Q43.306 707.75 45.1417 707.46 Q46.9774 707.17 51.7439 707.17 L64.3364 707.17 Q65.7213 707.105 66.0433 706.043 Q66.3332 704.98 66.3332 702.017 L68.3621 702.017 Q68.1689 708.748 68.1689 709.392 Q68.1689 709.907 68.3621 716.864 L66.3332 716.864 Q66.3332 713.353 65.9145 712.548 Q65.4636 711.711 63.338 711.711 L47.9758 711.711 Q44.6264 711.711 42.6619 712.741 Q40.6651 713.772 40.6651 716.606 Q40.6651 720.02 43.5314 722.757 Q46.3977 725.495 51.2286 725.495 L63.338 725.495 Q65.4636 725.495 65.9145 724.69 Q66.3332 723.852 66.3332 720.342 L68.3621 720.342 Q68.1689 727.073 68.1689 727.749 Q68.1689 728.265 68.3621 735.189 L66.3332 735.189 Q66.3332 731.679 65.9145 730.873 Q65.4636 730.036 63.338 730.036 L47.9758 730.036 Q44.6264 730.036 42.6619 731.067 Q40.6651 732.097 40.6651 734.931 Q40.6651 738.345 43.5314 741.083 Q46.3977 743.82 51.2286 743.82 L63.338 743.82 Q65.4636 743.82 65.9145 743.015 Q66.3332 742.178 66.3332 738.699 L68.3621 738.699 Q68.1689 745.43 68.1689 746.075 Q68.1689 746.59 68.3621 753.514 Z" fill="#000000" fill-rule="nonzero" fill-opacity="1" /><path clip-path="url(#clip390)" d="M67.4926 690.411 L58.797 690.411 Q58.0563 690.411 57.7986 690.379 Q57.541 690.347 57.3477 690.154 Q57.1545 689.961 57.1545 689.574 Q57.1545 689.123 57.3477 688.962 Q57.541 688.769 58.2817 688.64 Q62.8227 687.642 65.2382 685.516 Q67.6214 683.358 67.6214 679.461 Q67.6214 675.758 65.9789 673.89 Q64.3364 672.022 61.6311 672.022 Q56.8002 672.022 55.5764 678.882 Q54.7713 682.843 54.256 684.486 Q53.7085 686.128 52.5169 687.577 Q50.198 690.411 46.913 690.411 Q43.628 690.411 41.2126 687.932 Q38.7972 685.42 38.7972 679.88 Q38.7972 676.176 40.6651 673.664 Q40.0854 672.924 39.6023 672.537 Q38.7972 671.668 38.7972 671.217 Q38.7972 670.701 39.1514 670.605 Q39.4735 670.508 40.4075 670.508 L47.0419 670.508 Q47.7826 670.508 48.0402 670.54 Q48.2979 670.573 48.4911 670.766 Q48.6522 670.959 48.6522 671.378 Q48.6522 672.119 48.0402 672.151 Q40.0532 672.666 40.0532 679.88 Q40.0532 683.777 41.5669 685.516 Q43.0483 687.255 45.0773 687.255 Q46.2045 687.255 47.0741 686.74 Q47.9114 686.192 48.4267 685.516 Q48.9098 684.808 49.3929 683.519 Q49.8438 682.231 50.0048 681.458 Q50.1658 680.653 50.4879 679.139 Q51.4863 673.858 53.6441 671.635 Q56.4138 668.866 59.9242 668.866 Q63.8211 668.866 66.462 671.507 Q69.1029 674.147 69.1029 679.461 Q69.1029 683.745 66.2366 686.74 Q66.623 687.126 66.9773 687.416 Q67.2993 687.706 67.4282 687.835 Q67.557 687.932 67.6536 687.964 Q67.718 687.996 67.7824 688.06 Q69.1029 689.381 69.1029 689.703 Q69.1029 690.218 68.7486 690.315 Q68.4266 690.411 67.4926 690.411 Z" fill="#000000" fill-rule="nonzero" fill-opacity="1" /><path clip-path="url(#clip390)" d="M36.0228 631.564 Q36.2933 631.293 36.6766 631.293 Q37.0598 631.293 37.3304 631.564 Q37.6009 631.834 37.6009 632.217 L37.6009 661.119 Q37.6009 661.502 37.3304 661.773 Q37.0598 662.043 36.6766 662.043 Q36.2933 662.043 36.0228 661.773 Q35.7523 661.502 35.7523 661.119 L35.7523 632.217 Q35.7523 631.834 36.0228 631.564 Z" fill="#000000" fill-rule="nonzero" fill-opacity="1" /><path clip-path="url(#clip390)" d="M21.8651 626.473 L20.4223 626.473 Q20.4223 620.927 17.469 618.064 Q17.469 617.275 17.6494 617.14 Q17.8297 617.005 18.6639 617.005 L44.567 617.005 Q45.9422 617.005 46.3706 616.328 Q46.7989 615.652 46.7989 612.699 L46.7989 611.234 L48.2192 611.234 Q48.0839 612.857 48.0839 618.718 Q48.0839 624.58 48.2192 626.18 L46.7989 626.18 L46.7989 624.715 Q46.7989 621.807 46.3931 621.108 Q45.9648 620.409 44.567 620.409 L20.6477 620.409 Q21.8651 622.821 21.8651 626.473 Z" fill="#000000" fill-rule="nonzero" fill-opacity="1" /><polyline clip-path="url(#clip392)" style="stroke:#009af9; stroke-linecap:round; stroke-linejoin:round; stroke-width:4; stroke-opacity:1; fill:none" points="663.209,86.1857 1235.94,810.465 1552.48,451.128 1793.22,686.594 867.728,638.87 1002.92,877.992 2293.23,552.894 2144.8,276.572 308.924,1384.24 1883.81,966.772 "/>
<path clip-path="url(#clip390)" d="M2025.42 1377.32 L2282.64 1377.32 L2282.64 1273.64 L2025.42 1273.64  Z" fill="#ffffff" fill-rule="evenodd" fill-opacity="1"/>
<polyline clip-path="url(#clip390)" style="stroke:#000000; stroke-linecap:round; stroke-linejoin:round; stroke-width:4; stroke-opacity:1; fill:none" points="2025.42,1377.32 2282.64,1377.32 2282.64,1273.64 2025.42,1273.64 2025.42,1377.32 "/>
<polyline clip-path="url(#clip390)" style="stroke:#009af9; stroke-linecap:round; stroke-linejoin:round; stroke-width:4; stroke-opacity:1; fill:none" points="2048.79,1325.48 2189.02,1325.48 "/>
<path clip-path="url(#clip390)" d="M2212.39 1349.03 Q2212.39 1347.97 2213 1347.4 Q2213.65 1346.86 2214.51 1346.86 Q2215.42 1346.86 2216.02 1347.42 Q2216.64 1348.02 2216.64 1348.98 Q2216.64 1350.86 2214.66 1351.11 Q2215.62 1352.02 2217.03 1352.02 Q2218.54 1352.02 2219.75 1350.91 Q2220.98 1349.8 2221.5 1348.73 Q2222.05 1347.67 2222.81 1345.74 Q2223.53 1344.24 2224.07 1342.76 L2216.49 1324.28 Q2215.99 1323.07 2215.23 1322.8 Q2214.46 1322.52 2212.39 1322.52 L2212.39 1320.94 Q2214.66 1321.09 2217.3 1321.09 Q2218.86 1321.09 2222.81 1320.94 L2222.81 1322.52 Q2219.97 1322.52 2219.97 1323.83 Q2219.97 1323.98 2220.27 1324.75 L2225.9 1338.36 L2231.01 1325.91 Q2231.31 1325.19 2231.31 1324.7 Q2231.31 1322.62 2228.94 1322.52 L2228.94 1320.94 Q2232.27 1321.09 2233.33 1321.09 Q2235.41 1321.09 2237.11 1320.94 L2237.11 1322.52 Q2233.73 1322.52 2232.42 1325.76 L2223.5 1347.35 Q2221.08 1353.11 2217.03 1353.13 Q2215.1 1353.13 2213.74 1351.94 Q2212.39 1350.76 2212.39 1349.03 Z" fill="#000000" fill-rule="nonzero" fill-opacity="1" /><path clip-path="url(#clip390)" d="M2242.57 1313.88 L2242.57 1312.3 Q2248.65 1312.3 2251.79 1309.06 Q2252.65 1309.06 2252.8 1309.26 Q2252.95 1309.46 2252.95 1310.37 L2252.95 1338.75 Q2252.95 1340.26 2253.69 1340.73 Q2254.43 1341.2 2257.67 1341.2 L2259.27 1341.2 L2259.27 1342.76 Q2257.49 1342.61 2251.07 1342.61 Q2244.65 1342.61 2242.89 1342.76 L2242.89 1341.2 L2244.5 1341.2 Q2247.69 1341.2 2248.45 1340.75 Q2249.22 1340.28 2249.22 1338.75 L2249.22 1312.54 Q2246.58 1313.88 2242.57 1313.88 Z" fill="#000000" fill-rule="nonzero" fill-opacity="1" /></svg>
