<?xml version="1.0" encoding="utf-8"?>
<svg xmlns="http://www.w3.org/2000/svg" xmlns:xlink="http://www.w3.org/1999/xlink" width="600" height="400" viewBox="0 0 2400 1600">
<defs>
  <clipPath id="clip380">
    <rect x="0" y="0" width="2400" height="1600"/>
  </clipPath>
</defs>
<path clip-path="url(#clip380)" d="M0 1600 L2400 1600 L2400 0 L0 0  Z" fill="#ffffff" fill-rule="evenodd" fill-opacity="1"/>
<defs>
  <clipPath id="clip381">
    <rect x="209" y="47" width="2144" height="1377"/>
  </clipPath>
</defs>
<path clip-path="url(#clip380)" d="M209.894 1423.18 L2352.76 1423.18 L2352.76 47.2441 L209.894 47.2441  Z" fill="#ffffff" fill-rule="evenodd" fill-opacity="1"/>
<polyline clip-path="url(#clip381)" style="stroke:#000000; stroke-linecap:round; stroke-linejoin:round; stroke-width:2; stroke-opacity:0.1; fill:none" points="556.25,1423.18 556.25,47.2441 "/>
<polyline clip-path="url(#clip381)" style="stroke:#000000; stroke-linecap:round; stroke-linejoin:round; stroke-width:2; stroke-opacity:0.1; fill:none" points="1150.1,1423.18 1150.1,47.2441 "/>
<polyline clip-path="url(#clip381)" style="stroke:#000000; stroke-linecap:round; stroke-linejoin:round; stroke-width:2; stroke-opacity:0.1; fill:none" points="1743.94,1423.18 1743.94,47.2441 "/>
<polyline clip-path="url(#clip381)" style="stroke:#000000; stroke-linecap:round; stroke-linejoin:round; stroke-width:2; stroke-opacity:0.1; fill:none" points="2337.79,1423.18 2337.79,47.2441 "/>
<polyline clip-path="url(#clip381)" style="stroke:#000000; stroke-linecap:round; stroke-linejoin:round; stroke-width:2; stroke-opacity:0.1; fill:none" points="209.894,1397.26 2352.76,1397.26 "/>
<polyline clip-path="url(#clip381)" style="stroke:#000000; stroke-linecap:round; stroke-linejoin:round; stroke-width:2; stroke-opacity:0.1; fill:none" points="209.894,1074.88 2352.76,1074.88 "/>
<polyline clip-path="url(#clip381)" style="stroke:#000000; stroke-linecap:round; stroke-linejoin:round; stroke-width:2; stroke-opacity:0.1; fill:none" points="209.894,752.489 2352.76,752.489 "/>
<polyline clip-path="url(#clip381)" style="stroke:#000000; stroke-linecap:round; stroke-linejoin:round; stroke-width:2; stroke-opacity:0.1; fill:none" points="209.894,430.103 2352.76,430.103 "/>
<polyline clip-path="url(#clip381)" style="stroke:#000000; stroke-linecap:round; stroke-linejoin:round; stroke-width:2; stroke-opacity:0.1; fill:none" points="209.894,107.717 2352.76,107.717 "/>
<polyline clip-path="url(#clip380)" style="stroke:#000000; stroke-linecap:round; stroke-linejoin:round; stroke-width:4; stroke-opacity:1; fill:none" points="209.894,1423.18 2352.76,1423.18 "/>
<polyline clip-path="url(#clip380)" style="stroke:#000000; stroke-linecap:round; stroke-linejoin:round; stroke-width:4; stroke-opacity:1; fill:none" points="556.25,1423.18 556.25,1404.28 "/>
<polyline clip-path="url(#clip380)" style="stroke:#000000; stroke-linecap:round; stroke-linejoin:round; stroke-width:4; stroke-opacity:1; fill:none" points="1150.1,1423.18 1150.1,1404.28 "/>
<polyline clip-path="url(#clip380)" style="stroke:#000000; stroke-linecap:round; stroke-linejoin:round; stroke-width:4; stroke-opacity:1; fill:none" points="1743.94,1423.18 1743.94,1404.28 "/>
<polyline clip-path="url(#clip380)" style="stroke:#000000; stroke-linecap:round; stroke-linejoin:round; stroke-width:4; stroke-opacity:1; fill:none" points="2337.79,1423.18 2337.79,1404.28 "/>
<path clip-path="url(#clip380)" d="M560.03 1472.22 Q560.326 1472.51 560.326 1472.93 Q560.326 1473.35 560.03 1473.65 Q559.733 1473.94 559.313 1473.94 L527.643 1473.94 Q527.223 1473.94 526.927 1473.65 Q526.631 1473.35 526.631 1472.93 Q526.631 1472.51 526.927 1472.22 Q527.223 1471.92 527.643 1471.92 L559.313 1471.92 Q559.733 1471.92 560.03 1472.22 Z" fill="#000000" fill-rule="nonzero" fill-opacity="1" /><path clip-path="url(#clip380)" d="M565.662 1485.58 Q565.662 1484.67 565.736 1484.39 Q565.835 1484.12 566.23 1483.7 L575.938 1472.88 Q581.25 1466.9 581.25 1461.69 Q581.25 1458.31 579.471 1455.89 Q577.717 1453.47 574.481 1453.47 Q572.258 1453.47 570.38 1454.82 Q568.503 1456.18 567.638 1458.6 Q567.786 1458.55 568.305 1458.55 Q569.565 1458.55 570.257 1459.34 Q570.973 1460.14 570.973 1461.2 Q570.973 1462.56 570.084 1463.22 Q569.219 1463.87 568.355 1463.87 Q568.009 1463.87 567.539 1463.79 Q567.095 1463.72 566.378 1463.03 Q565.662 1462.31 565.662 1461.05 Q565.662 1457.52 568.33 1454.7 Q571.023 1451.88 575.123 1451.88 Q579.768 1451.88 582.806 1454.65 Q585.869 1457.39 585.869 1461.69 Q585.869 1463.2 585.4 1464.58 Q584.955 1465.94 584.338 1467 Q583.745 1468.07 582.114 1469.77 Q580.484 1471.47 579.175 1472.68 Q577.865 1473.9 574.926 1476.46 L569.565 1481.68 L578.681 1481.68 Q583.127 1481.68 583.473 1481.28 Q583.967 1480.57 584.585 1476.79 L585.869 1476.79 L584.436 1485.58 L565.662 1485.58 Z" fill="#000000" fill-rule="nonzero" fill-opacity="1" /><path clip-path="url(#clip380)" d="M1154.64 1472.22 Q1154.94 1472.51 1154.94 1472.93 Q1154.94 1473.35 1154.64 1473.65 Q1154.34 1473.94 1153.92 1473.94 L1122.25 1473.94 Q1121.83 1473.94 1121.54 1473.65 Q1121.24 1473.35 1121.24 1472.93 Q1121.24 1472.51 1121.54 1472.22 Q1121.83 1471.92 1122.25 1471.92 L1153.92 1471.92 Q1154.34 1471.92 1154.64 1472.22 Z" fill="#000000" fill-rule="nonzero" fill-opacity="1" /><path clip-path="url(#clip380)" d="M1162.25 1456.7 L1162.25 1455.12 Q1168.33 1455.12 1171.46 1451.88 Q1172.33 1451.88 1172.48 1452.08 Q1172.62 1452.28 1172.62 1453.19 L1172.62 1481.58 Q1172.62 1483.08 1173.37 1483.55 Q1174.11 1484.02 1177.34 1484.02 L1178.95 1484.02 L1178.95 1485.58 Q1177.17 1485.43 1170.75 1485.43 Q1164.32 1485.43 1162.57 1485.58 L1162.57 1484.02 L1164.18 1484.02 Q1167.36 1484.02 1168.13 1483.58 Q1168.89 1483.11 1168.89 1481.58 L1168.89 1455.37 Q1166.25 1456.7 1162.25 1456.7 Z" fill="#000000" fill-rule="nonzero" fill-opacity="1" /><path clip-path="url(#clip380)" d="M1733.29 1469.4 Q1733.29 1461.96 1735.17 1457.91 Q1737.79 1451.88 1743.97 1451.88 Q1745.27 1451.88 1746.63 1452.26 Q1748.02 1452.6 1749.75 1453.96 Q1751.5 1455.32 1752.56 1457.54 Q1754.59 1461.84 1754.59 1469.4 Q1754.59 1476.79 1752.71 1480.81 Q1749.97 1486.69 1743.92 1486.69 Q1741.64 1486.69 1739.32 1485.53 Q1737.02 1484.37 1735.57 1481.58 Q1733.29 1477.4 1733.29 1469.4 M1737.49 1468.78 Q1737.49 1476.41 1738.04 1479.45 Q1738.65 1482.74 1740.33 1484.17 Q1742.04 1485.58 1743.92 1485.58 Q1745.94 1485.58 1747.62 1484.07 Q1749.33 1482.54 1749.84 1479.26 Q1750.41 1476.02 1750.39 1468.78 Q1750.39 1461.74 1749.89 1458.92 Q1749.23 1455.64 1747.45 1454.33 Q1745.69 1453 1743.92 1453 Q1743.25 1453 1742.53 1453.19 Q1741.84 1453.39 1740.83 1453.96 Q1739.82 1454.53 1739.02 1455.94 Q1738.26 1457.34 1737.89 1459.47 Q1737.49 1462.21 1737.49 1468.78 Z" fill="#000000" fill-rule="nonzero" fill-opacity="1" /><path clip-path="url(#clip380)" d="M2329.44 1456.7 L2329.44 1455.12 Q2335.51 1455.12 2338.65 1451.88 Q2339.52 1451.88 2339.66 1452.08 Q2339.81 1452.28 2339.81 1453.19 L2339.81 1481.58 Q2339.81 1483.08 2340.55 1483.55 Q2341.29 1484.02 2344.53 1484.02 L2346.14 1484.02 L2346.14 1485.58 Q2344.36 1485.43 2337.93 1485.43 Q2331.51 1485.43 2329.76 1485.58 L2329.76 1484.02 L2331.36 1484.02 Q2334.55 1484.02 2335.32 1483.58 Q2336.08 1483.11 2336.08 1481.58 L2336.08 1455.37 Q2333.44 1456.7 2329.44 1456.7 Z" fill="#000000" fill-rule="nonzero" fill-opacity="1" /><path clip-path="url(#clip380)" d="M1143.42 1555.46 L1143.42 1553.43 Q1146.93 1553.43 1147.74 1553.01 Q1148.54 1552.56 1148.54 1550.44 L1148.54 1532.76 Q1148.54 1530.31 1147.67 1529.7 Q1146.84 1529.08 1143.42 1529.08 L1143.42 1527.02 L1152.7 1526.32 L1152.7 1533.24 Q1155.79 1526.32 1162.46 1526.32 Q1170.19 1526.32 1171.25 1532.76 Q1172.38 1530.24 1174.73 1528.28 Q1177.11 1526.32 1180.81 1526.32 Q1185.77 1526.32 1187.74 1528.76 Q1189.19 1530.41 1189.48 1532.24 Q1189.77 1534.08 1189.77 1538.84 L1189.77 1551.44 Q1189.83 1552.82 1190.89 1553.14 Q1191.96 1553.43 1194.92 1553.43 L1194.92 1555.46 Q1188.19 1555.27 1187.54 1555.27 Q1187.03 1555.27 1180.07 1555.46 L1180.07 1553.43 Q1183.58 1553.43 1184.39 1553.01 Q1185.23 1552.56 1185.23 1550.44 L1185.23 1535.08 Q1185.23 1531.73 1184.2 1529.76 Q1183.16 1527.76 1180.33 1527.76 Q1176.92 1527.76 1174.18 1530.63 Q1171.44 1533.5 1171.44 1538.33 L1171.44 1550.44 Q1171.44 1552.56 1172.25 1553.01 Q1173.08 1553.43 1176.59 1553.43 L1176.59 1555.46 Q1169.86 1555.27 1169.19 1555.27 Q1168.67 1555.27 1161.75 1555.46 L1161.75 1553.43 Q1165.26 1553.43 1166.06 1553.01 Q1166.9 1552.56 1166.9 1550.44 L1166.9 1535.08 Q1166.9 1531.73 1165.87 1529.76 Q1164.84 1527.76 1162.01 1527.76 Q1158.59 1527.76 1155.85 1530.63 Q1153.12 1533.5 1153.12 1538.33 L1153.12 1550.44 Q1153.12 1552.56 1153.92 1553.01 Q1154.76 1553.43 1158.24 1553.43 L1158.24 1555.46 Q1151.51 1555.27 1150.86 1555.27 Q1150.35 1555.27 1143.42 1555.46 Z" fill="#000000" fill-rule="nonzero" fill-opacity="1" /><path clip-path="url(#clip380)" d="M1198.6 1549.18 Q1198.6 1543.58 1205.2 1540.61 Q1209.17 1538.71 1217.35 1538.23 L1217.35 1535.82 Q1217.35 1531.73 1215.19 1529.57 Q1213.06 1527.38 1210.36 1527.38 Q1205.53 1527.38 1203.21 1530.41 Q1205.17 1530.47 1205.88 1531.47 Q1206.59 1532.43 1206.59 1533.43 Q1206.59 1534.75 1205.75 1535.62 Q1204.95 1536.46 1203.56 1536.46 Q1202.24 1536.46 1201.37 1535.65 Q1200.5 1534.82 1200.5 1533.37 Q1200.5 1530.15 1203.4 1528.02 Q1206.33 1525.9 1210.49 1525.9 Q1215.9 1525.9 1219.5 1529.54 Q1220.63 1530.66 1221.18 1532.11 Q1221.76 1533.56 1221.82 1534.53 Q1221.89 1535.46 1221.89 1537.33 L1221.89 1550.5 Q1221.89 1550.89 1222.02 1551.53 Q1222.14 1552.18 1222.72 1553.01 Q1223.34 1553.82 1224.33 1553.82 Q1226.72 1553.82 1226.69 1549.6 L1226.69 1545.9 L1228.36 1545.9 L1228.36 1549.6 Q1228.36 1553.11 1226.49 1554.5 Q1224.66 1555.85 1222.95 1555.85 Q1220.76 1555.85 1219.37 1554.24 Q1217.99 1552.63 1217.8 1550.44 Q1216.8 1552.95 1214.51 1554.59 Q1212.26 1556.2 1209.17 1556.2 Q1206.78 1556.2 1204.53 1555.59 Q1202.31 1555.01 1200.44 1553.37 Q1198.6 1551.69 1198.6 1549.18 M1203.69 1549.12 Q1203.69 1551.56 1205.43 1553.14 Q1207.17 1554.72 1209.62 1554.72 Q1212.39 1554.72 1214.87 1552.6 Q1217.35 1550.44 1217.35 1546.22 L1217.35 1539.62 Q1210.03 1539.87 1206.85 1542.8 Q1203.69 1545.7 1203.69 1549.12 Z" fill="#000000" fill-rule="nonzero" fill-opacity="1" /><path clip-path="url(#clip380)" d="M1231.27 1554.59 L1231.27 1545.9 Q1231.27 1545.16 1231.3 1544.9 Q1231.33 1544.64 1231.52 1544.45 Q1231.72 1544.25 1232.1 1544.25 Q1232.55 1544.25 1232.71 1544.45 Q1232.91 1544.64 1233.04 1545.38 Q1234.04 1549.92 1236.16 1552.34 Q1238.32 1554.72 1242.22 1554.72 Q1245.92 1554.72 1247.79 1553.08 Q1249.66 1551.44 1249.66 1548.73 Q1249.66 1543.9 1242.8 1542.68 Q1238.83 1541.87 1237.19 1541.36 Q1235.55 1540.81 1234.1 1539.62 Q1231.27 1537.3 1231.27 1534.01 Q1231.27 1530.73 1233.75 1528.31 Q1236.26 1525.9 1241.8 1525.9 Q1245.5 1525.9 1248.01 1527.76 Q1248.75 1527.18 1249.14 1526.7 Q1250.01 1525.9 1250.46 1525.9 Q1250.98 1525.9 1251.07 1526.25 Q1251.17 1526.57 1251.17 1527.51 L1251.17 1534.14 Q1251.17 1534.88 1251.14 1535.14 Q1251.1 1535.4 1250.91 1535.59 Q1250.72 1535.75 1250.3 1535.75 Q1249.56 1535.75 1249.53 1535.14 Q1249.01 1527.15 1241.8 1527.15 Q1237.9 1527.15 1236.16 1528.67 Q1234.42 1530.15 1234.42 1532.18 Q1234.42 1533.3 1234.94 1534.17 Q1235.48 1535.01 1236.16 1535.53 Q1236.87 1536.01 1238.16 1536.49 Q1239.45 1536.94 1240.22 1537.1 Q1241.02 1537.27 1242.54 1537.59 Q1247.82 1538.59 1250.04 1540.74 Q1252.81 1543.51 1252.81 1547.02 Q1252.81 1550.92 1250.17 1553.56 Q1247.53 1556.2 1242.22 1556.2 Q1237.93 1556.2 1234.94 1553.34 Q1234.55 1553.72 1234.26 1554.08 Q1233.97 1554.4 1233.84 1554.53 Q1233.75 1554.66 1233.71 1554.75 Q1233.68 1554.82 1233.62 1554.88 Q1232.3 1556.2 1231.97 1556.2 Q1231.46 1556.2 1231.36 1555.85 Q1231.27 1555.53 1231.27 1554.59 Z" fill="#000000" fill-rule="nonzero" fill-opacity="1" /><path clip-path="url(#clip380)" d="M1256.71 1554.59 L1256.71 1545.9 Q1256.71 1545.16 1256.74 1544.9 Q1256.78 1544.64 1256.97 1544.45 Q1257.16 1544.25 1257.55 1544.25 Q1258 1544.25 1258.16 1544.45 Q1258.35 1544.64 1258.48 1545.38 Q1259.48 1549.92 1261.61 1552.34 Q1263.76 1554.72 1267.66 1554.72 Q1271.37 1554.72 1273.23 1553.08 Q1275.1 1551.44 1275.1 1548.73 Q1275.1 1543.9 1268.24 1542.68 Q1264.28 1541.87 1262.64 1541.36 Q1261 1540.81 1259.55 1539.62 Q1256.71 1537.3 1256.71 1534.01 Q1256.71 1530.73 1259.19 1528.31 Q1261.7 1525.9 1267.24 1525.9 Q1270.95 1525.9 1273.46 1527.76 Q1274.2 1527.18 1274.59 1526.7 Q1275.46 1525.9 1275.91 1525.9 Q1276.42 1525.9 1276.52 1526.25 Q1276.62 1526.57 1276.62 1527.51 L1276.62 1534.14 Q1276.62 1534.88 1276.58 1535.14 Q1276.55 1535.4 1276.36 1535.59 Q1276.16 1535.75 1275.75 1535.75 Q1275 1535.75 1274.97 1535.14 Q1274.46 1527.15 1267.24 1527.15 Q1263.35 1527.15 1261.61 1528.67 Q1259.87 1530.15 1259.87 1532.18 Q1259.87 1533.3 1260.38 1534.17 Q1260.93 1535.01 1261.61 1535.53 Q1262.32 1536.01 1263.6 1536.49 Q1264.89 1536.94 1265.67 1537.1 Q1266.47 1537.27 1267.98 1537.59 Q1273.27 1538.59 1275.49 1540.74 Q1278.26 1543.51 1278.26 1547.02 Q1278.26 1550.92 1275.62 1553.56 Q1272.98 1556.2 1267.66 1556.2 Q1263.38 1556.2 1260.38 1553.34 Q1260 1553.72 1259.71 1554.08 Q1259.42 1554.4 1259.29 1554.53 Q1259.19 1554.66 1259.16 1554.75 Q1259.13 1554.82 1259.06 1554.88 Q1257.74 1556.2 1257.42 1556.2 Q1256.91 1556.2 1256.81 1555.85 Q1256.71 1555.53 1256.71 1554.59 Z" fill="#000000" fill-rule="nonzero" fill-opacity="1" /><path clip-path="url(#clip380)" d="M1296.95 1568.34 Q1296.95 1568.05 1297.18 1567.41 L1318.22 1511.2 Q1318.22 1511.14 1318.36 1510.82 Q1318.51 1510.5 1318.6 1510.29 Q1318.68 1510.06 1318.86 1509.89 Q1319.06 1509.71 1319.29 1509.71 Q1319.88 1509.71 1319.88 1510.44 Q1319.88 1510.5 1319.7 1511.2 L1298.61 1567.47 Q1298.26 1568.49 1298.02 1568.78 Q1297.82 1569.07 1297.47 1569.07 Q1296.95 1569.07 1296.95 1568.34 Z" fill="#000000" fill-rule="nonzero" fill-opacity="1" /><path clip-path="url(#clip380)" d="M1348.02 1555.46 L1348.02 1553.43 Q1351.53 1553.43 1352.34 1553.01 Q1353.17 1552.56 1353.17 1550.44 L1353.17 1516.14 Q1353.17 1513.69 1352.31 1513.08 Q1351.47 1512.47 1348.02 1512.47 L1348.02 1510.41 L1357.52 1509.7 L1357.52 1541.36 L1366.83 1533.3 Q1368.28 1532.05 1368.28 1530.73 Q1368.28 1529.21 1366.38 1529.08 L1366.38 1527.02 Q1369.15 1527.22 1373.75 1527.22 Q1376.46 1527.22 1378.36 1527.02 L1378.36 1529.08 Q1374.21 1529.28 1370.05 1532.63 Q1369.12 1533.37 1366.89 1535.3 Q1364.7 1537.2 1364.7 1537.39 Q1364.7 1537.46 1364.77 1537.62 Q1364.87 1537.78 1364.99 1537.91 Q1365.12 1538.04 1365.12 1538.1 L1373.5 1549.92 Q1375.2 1552.31 1376.46 1552.89 Q1377.72 1553.43 1379.91 1553.43 L1379.91 1555.46 Q1377.07 1555.27 1374.14 1555.27 Q1372.56 1555.27 1367.02 1555.46 L1367.02 1553.43 Q1369.41 1553.43 1369.41 1551.89 Q1369.41 1550.82 1364.06 1543.45 Q1363.67 1542.93 1362.8 1541.81 Q1362 1540.61 1361.55 1540.03 L1357.33 1543.64 L1357.33 1550.44 Q1357.33 1552.56 1358.13 1553.01 Q1358.97 1553.43 1362.48 1553.43 L1362.48 1555.46 Q1358.52 1555.27 1355.24 1555.27 Q1354.56 1555.27 1348.02 1555.46 Z" fill="#000000" fill-rule="nonzero" fill-opacity="1" /><path clip-path="url(#clip380)" d="M1379.52 1560.68 Q1379.52 1558.55 1381.13 1556.72 Q1382.78 1554.88 1385.61 1554.08 Q1382.71 1552.24 1382.71 1548.22 Q1382.71 1545.12 1384.74 1542.74 Q1381.65 1540.16 1381.65 1535.94 Q1381.65 1532.05 1384.74 1529.18 Q1387.83 1526.32 1392.34 1526.32 Q1396.3 1526.32 1399.33 1528.7 Q1402.49 1525.61 1406.32 1525.57 Q1408.03 1525.57 1408.83 1526.64 Q1409.67 1527.7 1409.67 1528.83 Q1409.67 1529.83 1409.02 1530.31 Q1408.41 1530.79 1407.77 1530.79 Q1406.96 1530.79 1406.38 1530.28 Q1405.84 1529.73 1405.84 1528.89 Q1405.84 1527.51 1406.9 1527.09 Q1406.71 1527.02 1406.25 1527.02 Q1403.03 1527.02 1400.3 1529.6 Q1403 1532.11 1403 1536.01 Q1403 1539.91 1399.91 1542.77 Q1396.82 1545.64 1392.34 1545.64 Q1388.64 1545.64 1385.8 1543.58 Q1384.68 1544.9 1384.68 1546.7 Q1384.68 1548.34 1385.67 1549.63 Q1386.67 1550.92 1388.19 1551.11 Q1388.64 1551.18 1393.11 1551.18 Q1395.76 1551.18 1397.2 1551.24 Q1398.65 1551.31 1400.71 1551.76 Q1402.81 1552.18 1404.45 1553.01 Q1408.73 1555.4 1408.77 1560.55 Q1408.77 1564.32 1404.42 1566.67 Q1400.1 1569.05 1394.11 1569.05 Q1388.06 1569.05 1383.77 1566.64 Q1379.52 1564.25 1379.52 1560.68 M1382.97 1560.68 Q1382.97 1563.38 1386.16 1565.45 Q1389.35 1567.54 1394.18 1567.54 Q1398.91 1567.54 1402.1 1565.48 Q1405.32 1563.45 1405.32 1560.68 Q1405.32 1558.71 1404.19 1557.46 Q1403.07 1556.2 1400.75 1555.69 Q1398.46 1555.2 1396.85 1555.11 Q1395.24 1555.01 1392.28 1555.01 L1388.38 1555.01 Q1386.13 1555.14 1384.55 1556.78 Q1382.97 1558.42 1382.97 1560.68 M1386.58 1536.01 Q1386.58 1544.13 1392.34 1544.13 Q1395.24 1544.13 1397.01 1541.48 Q1398.07 1539.71 1398.07 1535.94 Q1398.07 1527.83 1392.34 1527.83 Q1389.44 1527.83 1387.64 1530.47 Q1386.58 1532.24 1386.58 1536.01 Z" fill="#000000" fill-rule="nonzero" fill-opacity="1" /><polyline clip-path="url(#clip380)" style="stroke:#000000; stroke-linecap:round; stroke-linejoin:round; stroke-width:4; stroke-opacity:1; fill:none" points="209.894,1423.18 209.894,47.2441 "/>
<polyline clip-path="url(#clip380)" style="stroke:#000000; stroke-linecap:round; stroke-linejoin:round; stroke-width:4; stroke-opacity:1; fill:none" points="209.894,1397.26 228.792,1397.26 "/>
<polyline clip-path="url(#clip380)" style="stroke:#000000; stroke-linecap:round; stroke-linejoin:round; stroke-width:4; stroke-opacity:1; fill:none" points="209.894,1074.88 228.792,1074.88 "/>
<polyline clip-path="url(#clip380)" style="stroke:#000000; stroke-linecap:round; stroke-linejoin:round; stroke-width:4; stroke-opacity:1; fill:none" points="209.894,752.489 228.792,752.489 "/>
<polyline clip-path="url(#clip380)" style="stroke:#000000; stroke-linecap:round; stroke-linejoin:round; stroke-width:4; stroke-opacity:1; fill:none" points="209.894,430.103 228.792,430.103 "/>
<polyline clip-path="url(#clip380)" style="stroke:#000000; stroke-linecap:round; stroke-linejoin:round; stroke-width:4; stroke-opacity:1; fill:none" points="209.894,107.717 228.792,107.717 "/>
<path clip-path="url(#clip380)" d="M147.659 1401.18 Q147.956 1401.47 147.956 1401.89 Q147.956 1402.31 147.659 1402.61 Q147.363 1402.91 146.943 1402.91 L115.273 1402.91 Q114.853 1402.91 114.557 1402.61 Q114.26 1402.31 114.26 1401.89 Q114.26 1401.47 114.557 1401.18 Q114.853 1400.88 115.273 1400.88 L146.943 1400.88 Q147.363 1400.88 147.659 1401.18 Z" fill="#000000" fill-rule="nonzero" fill-opacity="1" /><path clip-path="url(#clip380)" d="M152.896 1407.72 Q152.896 1406.22 153.761 1405.5 Q154.625 1404.78 155.737 1404.78 Q156.898 1404.78 157.713 1405.55 Q158.553 1406.29 158.553 1407.6 Q158.553 1409.01 157.565 1409.8 Q156.602 1410.59 155.218 1410.39 Q156.429 1412.42 158.652 1413.33 Q160.9 1414.25 162.975 1414.25 Q165.149 1414.25 166.903 1412.37 Q168.682 1410.49 168.682 1405.9 Q168.682 1401.99 167.15 1399.74 Q165.643 1397.5 162.654 1397.5 L160.431 1397.5 Q159.665 1397.5 159.443 1397.42 Q159.22 1397.35 159.22 1396.93 Q159.22 1396.43 159.986 1396.34 Q160.752 1396.34 161.962 1396.19 Q164.902 1396.09 166.458 1393.54 Q167.866 1391.17 167.866 1387.79 Q167.866 1384.7 166.384 1383.42 Q164.927 1382.11 163.025 1382.11 Q161.246 1382.11 159.294 1382.85 Q157.343 1383.59 156.281 1385.24 Q159.418 1385.24 159.418 1387.79 Q159.418 1388.9 158.702 1389.64 Q158.01 1390.36 156.849 1390.36 Q155.737 1390.36 154.996 1389.67 Q154.255 1388.95 154.255 1387.74 Q154.255 1384.85 156.824 1382.85 Q159.418 1380.85 163.222 1380.85 Q166.977 1380.85 169.744 1382.82 Q172.535 1384.8 172.535 1387.84 Q172.535 1390.83 170.559 1393.27 Q168.583 1395.72 165.446 1396.73 Q169.299 1397.5 171.597 1400.11 Q173.894 1402.71 173.894 1405.9 Q173.894 1409.85 170.781 1412.76 Q167.669 1415.65 163.123 1415.65 Q158.924 1415.65 155.91 1413.38 Q152.896 1411.11 152.896 1407.72 Z" fill="#000000" fill-rule="nonzero" fill-opacity="1" /><path clip-path="url(#clip380)" d="M148.054 1078.79 Q148.351 1079.09 148.351 1079.51 Q148.351 1079.93 148.054 1080.22 Q147.758 1080.52 147.338 1080.52 L115.668 1080.52 Q115.248 1080.52 114.952 1080.22 Q114.655 1079.93 114.655 1079.51 Q114.655 1079.09 114.952 1078.79 Q115.248 1078.49 115.668 1078.49 L147.338 1078.49 Q147.758 1078.49 148.054 1078.79 Z" fill="#000000" fill-rule="nonzero" fill-opacity="1" /><path clip-path="url(#clip380)" d="M153.687 1092.16 Q153.687 1091.24 153.761 1090.97 Q153.86 1090.7 154.255 1090.28 L163.963 1079.46 Q169.275 1073.48 169.275 1068.27 Q169.275 1064.88 167.496 1062.46 Q165.742 1060.04 162.506 1060.04 Q160.283 1060.04 158.405 1061.4 Q156.528 1062.76 155.663 1065.18 Q155.811 1065.13 156.33 1065.13 Q157.59 1065.13 158.282 1065.92 Q158.998 1066.71 158.998 1067.77 Q158.998 1069.13 158.109 1069.8 Q157.244 1070.44 156.379 1070.44 Q156.034 1070.44 155.564 1070.37 Q155.12 1070.29 154.403 1069.6 Q153.687 1068.88 153.687 1067.62 Q153.687 1064.09 156.355 1061.28 Q159.047 1058.46 163.148 1058.46 Q167.792 1058.46 170.831 1061.23 Q173.894 1063.97 173.894 1068.27 Q173.894 1069.77 173.425 1071.16 Q172.98 1072.52 172.362 1073.58 Q171.77 1074.64 170.139 1076.35 Q168.509 1078.05 167.199 1079.26 Q165.89 1080.47 162.95 1083.04 L157.59 1088.25 L166.705 1088.25 Q171.152 1088.25 171.498 1087.86 Q171.992 1087.14 172.609 1083.36 L173.894 1083.36 L172.461 1092.16 L153.687 1092.16 Z" fill="#000000" fill-rule="nonzero" fill-opacity="1" /><path clip-path="url(#clip380)" d="M149.586 756.405 Q149.882 756.701 149.882 757.121 Q149.882 757.541 149.586 757.837 Q149.29 758.134 148.87 758.134 L117.2 758.134 Q116.78 758.134 116.483 757.837 Q116.187 757.541 116.187 757.121 Q116.187 756.701 116.483 756.405 Q116.78 756.108 117.2 756.108 L148.87 756.108 Q149.29 756.108 149.586 756.405 Z" fill="#000000" fill-rule="nonzero" fill-opacity="1" /><path clip-path="url(#clip380)" d="M157.195 740.891 L157.195 739.31 Q163.272 739.31 166.409 736.074 Q167.274 736.074 167.422 736.271 Q167.57 736.469 167.57 737.383 L167.57 765.767 Q167.57 767.274 168.311 767.743 Q169.052 768.213 172.288 768.213 L173.894 768.213 L173.894 769.769 Q172.115 769.621 165.693 769.621 Q159.27 769.621 157.516 769.769 L157.516 768.213 L159.121 768.213 Q162.308 768.213 163.074 767.768 Q163.84 767.299 163.84 765.767 L163.84 739.557 Q161.197 740.891 157.195 740.891 Z" fill="#000000" fill-rule="nonzero" fill-opacity="1" /><path clip-path="url(#clip380)" d="M152.6 431.202 Q152.6 423.766 154.477 419.715 Q157.096 413.687 163.272 413.687 Q164.581 413.687 165.94 414.058 Q167.323 414.404 169.052 415.763 Q170.806 417.121 171.868 419.344 Q173.894 423.643 173.894 431.202 Q173.894 438.588 172.017 442.615 Q169.275 448.494 163.222 448.494 Q160.95 448.494 158.627 447.333 Q156.33 446.172 154.872 443.381 Q152.6 439.206 152.6 431.202 M156.799 430.585 Q156.799 438.218 157.343 441.256 Q157.96 444.542 159.64 445.975 Q161.345 447.383 163.222 447.383 Q165.248 447.383 166.928 445.876 Q168.632 444.344 169.151 441.059 Q169.719 437.823 169.694 430.585 Q169.694 423.544 169.2 420.728 Q168.533 417.442 166.755 416.133 Q165.001 414.799 163.222 414.799 Q162.555 414.799 161.839 414.997 Q161.147 415.194 160.134 415.763 Q159.121 416.331 158.331 417.739 Q157.565 419.147 157.195 421.271 Q156.799 424.013 156.799 430.585 Z" fill="#000000" fill-rule="nonzero" fill-opacity="1" /><path clip-path="url(#clip380)" d="M157.195 96.1183 L157.195 94.5373 Q163.272 94.5373 166.409 91.3011 Q167.274 91.3011 167.422 91.4988 Q167.57 91.6964 167.57 92.6104 L167.57 120.995 Q167.57 122.501 168.311 122.971 Q169.052 123.44 172.288 123.44 L173.894 123.44 L173.894 124.997 Q172.115 124.848 165.693 124.848 Q159.27 124.848 157.516 124.997 L157.516 123.44 L159.121 123.44 Q162.308 123.44 163.074 122.996 Q163.84 122.526 163.84 120.995 L163.84 94.7843 Q161.197 96.1183 157.195 96.1183 Z" fill="#000000" fill-rule="nonzero" fill-opacity="1" /><path clip-path="url(#clip380)" d="M43.8213 851.942 Q44.6586 851.942 46.3011 852.168 Q47.9436 852.393 50.3269 852.941 Q52.7101 853.488 55.2222 854.293 Q57.7342 855.066 60.2463 856.29 Q62.7261 857.514 64.6907 858.963 Q66.6552 860.413 67.8791 862.442 Q69.1029 864.47 69.1029 866.757 Q69.1029 867.82 68.9418 868.85 Q68.7808 869.881 68.2655 871.169 Q67.7502 872.458 66.9129 873.391 Q66.0433 874.325 64.4974 874.97 Q62.9516 875.614 60.9226 875.614 Q58.8292 875.614 56.0273 874.841 Q53.1932 874.036 47.3961 871.846 Q44.401 870.718 42.7585 870.718 Q42.0177 870.718 41.5669 870.879 Q41.0838 871.04 40.9227 871.363 Q40.7295 871.685 40.6973 871.878 Q40.6651 872.039 40.6651 872.361 Q40.6651 874.132 42.5008 875.936 Q44.3366 877.739 48.8454 879.028 Q49.6505 879.285 49.8438 879.446 Q50.037 879.607 50.037 880.09 Q50.0048 880.895 49.3607 880.895 Q49.1674 880.895 48.4267 880.67 Q47.6538 880.445 46.4944 880.026 Q45.3027 879.607 44.0789 878.866 Q42.8229 878.126 41.7279 877.224 Q40.6329 876.29 39.9244 874.97 Q39.2158 873.649 39.2158 872.168 Q39.2158 869.752 40.7939 868.271 Q42.3398 866.757 44.6264 866.757 Q45.8825 866.757 47.9114 867.562 Q51.5829 868.915 53.3542 869.527 Q55.1255 870.139 57.6376 870.783 Q60.1496 871.395 61.8888 871.395 Q64.5296 871.395 66.0755 870.171 Q67.6214 868.947 67.6214 866.499 Q67.6214 864.309 66.0433 862.345 Q64.433 860.348 62.1464 859.028 Q59.8276 857.707 57.2511 856.709 Q54.6424 855.71 52.6779 855.26 Q50.6811 854.777 49.7472 854.777 Q46.4944 854.777 44.3688 856.999 Q43.7569 857.611 43.3704 857.836 Q42.9839 858.062 42.372 858.062 Q41.2448 858.062 40.2464 857.063 Q39.2158 856.033 39.2158 854.841 Q39.2158 853.746 40.3108 852.844 Q41.4058 851.942 43.8213 851.942 Z" fill="#000000" fill-rule="nonzero" fill-opacity="1" /><path clip-path="url(#clip380)" d="M63.8651 822.189 Q65.1275 822.189 65.8489 822.978 Q66.5478 823.767 66.5478 824.668 Q66.5478 825.525 66.0518 825.976 Q65.5559 826.427 64.9246 826.427 Q64.068 826.427 63.324 825.796 Q62.58 825.164 62.4222 824.218 Q61.8361 825.142 61.8361 826.517 Q61.8361 827.419 62.3095 828.208 Q62.7829 828.974 63.3916 829.448 Q64.0003 829.899 64.8795 830.304 Q65.7362 830.688 66.2547 830.846 Q66.7507 830.981 67.2918 831.094 L73.6041 832.672 Q76.6025 833.438 77.662 833.438 Q78.9696 833.438 79.8488 832.807 Q80.7055 832.176 80.7055 830.913 Q80.7055 830.417 80.5702 829.854 Q80.4124 829.29 80.0066 828.569 Q79.5783 827.825 78.9471 827.171 Q78.2933 826.495 77.1886 825.841 Q76.084 825.187 74.6637 824.759 Q74.1677 824.623 74.1677 824.172 Q74.1677 823.609 74.6186 823.609 Q75.0018 823.609 75.8134 823.925 Q76.6025 824.218 77.6395 824.871 Q78.654 825.503 79.5783 826.337 Q80.4801 827.171 81.1113 828.411 Q81.7425 829.651 81.7425 831.003 Q81.7425 832.942 80.7055 834.227 Q79.6685 835.512 78.2257 835.986 Q78.4285 836.098 78.6991 836.256 Q78.9696 836.414 79.5783 836.887 Q80.1644 837.338 80.6153 837.857 Q81.0437 838.375 81.3818 839.187 Q81.7425 839.976 81.7425 840.833 Q81.7425 841.915 81.4269 842.884 Q81.1113 843.831 80.3899 844.507 Q79.6685 845.184 78.6765 845.184 Q77.5719 845.184 76.8054 844.44 Q76.0163 843.673 76.0163 842.636 Q76.0163 841.982 76.3996 841.464 Q76.7828 840.923 77.617 840.923 Q78.5413 840.923 79.2401 841.554 Q79.939 842.185 80.1194 843.087 Q80.7055 842.163 80.7055 840.787 Q80.7055 839.3 79.3979 838.127 Q78.0904 836.955 75.9036 836.391 Q70.6508 834.994 68.3062 834.453 Q65.9391 833.912 64.9246 833.912 Q63.9778 833.912 63.324 834.16 Q62.6702 834.408 62.3771 834.836 Q62.0615 835.242 61.9488 835.625 Q61.8361 835.986 61.8361 836.391 Q61.8361 837.068 62.1066 837.834 Q62.3771 838.578 63.0084 839.48 Q63.6171 840.359 64.8795 841.193 Q66.142 842.027 67.8779 842.591 Q68.3964 842.704 68.3964 843.2 Q68.3739 843.741 67.923 843.741 Q67.5397 843.741 66.7507 843.448 Q65.9391 843.132 64.9246 842.501 Q63.9101 841.847 63.0084 841.013 Q62.0841 840.156 61.4528 838.916 Q60.8216 837.654 60.8216 836.301 Q60.8216 835.693 60.9569 835.106 Q61.0696 834.498 61.4078 833.776 Q61.7459 833.032 62.4899 832.379 Q63.2338 831.725 64.3159 831.319 Q63.7974 831.048 63.3015 830.688 Q62.8055 830.304 62.1968 829.718 Q61.5656 829.11 61.2049 828.276 Q60.8216 827.419 60.8216 826.472 Q60.8216 825.548 61.0696 824.646 Q61.295 823.744 62.039 822.978 Q62.7604 822.189 63.8651 822.189 Z" fill="#000000" fill-rule="nonzero" fill-opacity="1" /><path clip-path="url(#clip380)" d="M68.5865 800.846 Q68.3324 800.846 67.7735 800.642 L18.6886 782.274 Q18.6377 782.274 18.3583 782.147 Q18.0788 782.02 17.901 781.943 Q17.6977 781.867 17.5453 781.715 Q17.3928 781.537 17.3928 781.334 Q17.3928 780.826 18.028 780.826 Q18.0788 780.826 18.6886 780.978 L67.8243 799.398 Q68.7135 799.702 68.9676 799.906 Q69.2217 800.084 69.2217 800.388 Q69.2217 800.846 68.5865 800.846 Z" fill="#000000" fill-rule="nonzero" fill-opacity="1" /><path clip-path="url(#clip380)" d="M68.3621 753.514 L66.3332 753.514 Q66.3332 750.004 65.9145 749.199 Q65.4636 748.393 63.338 748.393 L45.657 748.393 Q43.2094 748.393 42.5975 749.263 Q41.9855 750.1 41.9855 753.514 L39.9244 753.514 L39.2158 744.239 L46.1401 744.239 Q39.2158 741.147 39.2158 734.48 Q39.2158 726.751 45.657 725.688 Q43.145 724.561 41.1804 722.21 Q39.2158 719.827 39.2158 716.123 Q39.2158 711.163 41.6635 709.199 Q43.306 707.75 45.1417 707.46 Q46.9774 707.17 51.7439 707.17 L64.3364 707.17 Q65.7213 707.105 66.0433 706.043 Q66.3332 704.98 66.3332 702.017 L68.3621 702.017 Q68.1689 708.748 68.1689 709.392 Q68.1689 709.907 68.3621 716.864 L66.3332 716.864 Q66.3332 713.353 65.9145 712.548 Q65.4636 711.711 63.338 711.711 L47.9758 711.711 Q44.6264 711.711 42.6619 712.741 Q40.6651 713.772 40.6651 716.606 Q40.6651 720.02 43.5314 722.757 Q46.3977 725.495 51.2286 725.495 L63.338 725.495 Q65.4636 725.495 65.9145 724.69 Q66.3332 723.852 66.3332 720.342 L68.3621 720.342 Q68.1689 727.073 68.1689 727.749 Q68.1689 728.265 68.3621 735.189 L66.3332 735.189 Q66.3332 731.679 65.9145 730.873 Q65.4636 730.036 63.338 730.036 L47.9758 730.036 Q44.6264 730.036 42.6619 731.067 Q40.6651 732.097 40.6651 734.931 Q40.6651 738.345 43.5314 741.083 Q46.3977 743.82 51.2286 743.82 L63.338 743.82 Q65.4636 743.82 65.9145 743.015 Q66.3332 742.178 66.3332 738.699 L68.3621 738.699 Q68.1689 745.43 68.1689 746.075 Q68.1689 746.59 68.3621 753.514 Z" fill="#000000" fill-rule="nonzero" fill-opacity="1" /><path clip-path="url(#clip380)" d="M67.4926 690.411 L58.797 690.411 Q58.0563 690.411 57.7986 690.379 Q57.541 690.347 57.3477 690.154 Q57.1545 689.961 57.1545 689.574 Q57.1545 689.123 57.3477 688.962 Q57.541 688.769 58.2817 688.64 Q62.8227 687.642 65.2382 685.516 Q67.6214 683.358 67.6214 679.461 Q67.6214 675.758 65.9789 673.89 Q64.3364 672.022 61.6311 672.022 Q56.8002 672.022 55.5764 678.882 Q54.7713 682.843 54.256 684.486 Q53.7085 686.128 52.5169 687.577 Q50.198 690.411 46.913 690.411 Q43.628 690.411 41.2126 687.932 Q38.7972 685.42 38.7972 679.88 Q38.7972 676.176 40.6651 673.664 Q40.0854 672.924 39.6023 672.537 Q38.7972 671.668 38.7972 671.217 Q38.7972 670.701 39.1514 670.605 Q39.4735 670.508 40.4075 670.508 L47.0419 670.508 Q47.7826 670.508 48.0402 670.54 Q48.2979 670.573 48.4911 670.766 Q48.6522 670.959 48.6522 671.378 Q48.6522 672.119 48.0402 672.151 Q40.0532 672.666 40.0532 679.88 Q40.0532 683.777 41.5669 685.516 Q43.0483 687.255 45.0773 687.255 Q46.2045 687.255 47.0741 686.74 Q47.9114 686.192 48.4267 685.516 Q48.9098 684.808 49.3929 683.519 Q49.8438 682.231 50.0048 681.458 Q50.1658 680.653 50.4879 679.139 Q51.4863 673.858 53.6441 671.635 Q56.4138 668.866 59.9242 668.866 Q63.8211 668.866 66.462 671.507 Q69.1029 674.147 69.1029 679.461 Q69.1029 683.745 66.2366 686.74 Q66.623 687.126 66.9773 687.416 Q67.2993 687.706 67.4282 687.835 Q67.557 687.932 67.6536 687.964 Q67.718 687.996 67.7824 688.06 Q69.1029 689.381 69.1029 689.703 Q69.1029 690.218 68.7486 690.315 Q68.4266 690.411 67.4926 690.411 Z" fill="#000000" fill-rule="nonzero" fill-opacity="1" /><path clip-path="url(#clip380)" d="M36.0228 631.564 Q36.2933 631.293 36.6766 631.293 Q37.0598 631.293 37.3304 631.564 Q37.6009 631.834 37.6009 632.217 L37.6009 661.119 Q37.6009 661.502 37.3304 661.773 Q37.0598 662.043 36.6766 662.043 Q36.2933 662.043 36.0228 661.773 Q35.7523 661.502 35.7523 661.119 L35.7523 632.217 Q35.7523 631.834 36.0228 631.564 Z" fill="#000000" fill-rule="nonzero" fill-opacity="1" /><path clip-path="url(#clip380)" d="M21.8651 626.473 L20.4223 626.473 Q20.4223 620.927 17.469 618.064 Q17.469 617.275 17.6494 617.14 Q17.8297 617.005 18.6639 617.005 L44.567 617.005 Q45.9422 617.005 46.3706 616.328 Q46.7989 615.652 46.7989 612.699 L46.7989 611.234 L48.2192 611.234 Q48.0839 612.857 48.0839 618.718 Q48.0839 624.58 48.2192 626.18 L46.7989 626.18 L46.7989 624.715 Q46.7989 621.807 46.3931 621.108 Q45.9648 620.409 44.567 620.409 L20.6477 620.409 Q21.8651 622.821 21.8651 626.473 Z" fill="#000000" fill-rule="nonzero" fill-opacity="1" /><polyline clip-path="url(#clip381)" style="stroke:#009af9; stroke-linecap:round; stroke-linejoin:round; stroke-width:4; stroke-opacity:1; fill:none" points="1458.41,643.171 2114.03,577.095 270.541,834.453 999.006,520.721 1581.53,1384.24 2292.11,217.143 1830.49,565.044 1236.06,808.568 1821.38,86.1857 1461.97,229.302 "/>
<path clip-path="url(#clip380)" d="M281.323 196.789 L542.496 196.789 L542.496 93.1086 L281.323 93.1086  Z" fill="#ffffff" fill-rule="evenodd" fill-opacity="1"/>
<polyline clip-path="url(#clip380)" style="stroke:#000000; stroke-linecap:round; stroke-linejoin:round; stroke-width:4; stroke-opacity:1; fill:none" points="281.323,196.789 542.496,196.789 542.496,93.1086 281.323,93.1086 281.323,196.789 "/>
<polyline clip-path="url(#clip380)" style="stroke:#009af9; stroke-linecap:round; stroke-linejoin:round; stroke-width:4; stroke-opacity:1; fill:none" points="305.132,144.949 447.99,144.949 "/>
<path clip-path="url(#clip380)" d="M471.799 168.503 Q471.799 167.441 472.417 166.873 Q473.059 166.329 473.924 166.329 Q474.838 166.329 475.431 166.898 Q476.048 167.49 476.048 168.454 Q476.048 170.331 474.072 170.578 Q475.036 171.492 476.444 171.492 Q477.951 171.492 479.161 170.381 Q480.396 169.269 480.915 168.207 Q481.458 167.145 482.224 165.218 Q482.941 163.711 483.484 162.229 L475.9 143.751 Q475.406 142.54 474.64 142.268 Q473.874 141.997 471.799 141.997 L471.799 140.416 Q474.072 140.564 476.715 140.564 Q478.272 140.564 482.224 140.416 L482.224 141.997 Q479.383 141.997 479.383 143.306 Q479.383 143.454 479.68 144.22 L485.312 157.831 L490.426 145.381 Q490.722 144.665 490.722 144.17 Q490.722 142.095 488.351 141.997 L488.351 140.416 Q491.686 140.564 492.748 140.564 Q494.823 140.564 496.527 140.416 L496.527 141.997 Q493.143 141.997 491.834 145.233 L482.916 166.823 Q480.495 172.579 476.444 172.604 Q474.517 172.604 473.158 171.418 Q471.799 170.233 471.799 168.503 Z" fill="#000000" fill-rule="nonzero" fill-opacity="1" /><path clip-path="url(#clip380)" d="M501.987 133.35 L501.987 131.769 Q508.064 131.769 511.201 128.533 Q512.066 128.533 512.214 128.731 Q512.362 128.928 512.362 129.843 L512.362 158.227 Q512.362 159.734 513.103 160.203 Q513.845 160.672 517.081 160.672 L518.686 160.672 L518.686 162.229 Q516.908 162.08 510.485 162.08 Q504.062 162.08 502.308 162.229 L502.308 160.672 L503.914 160.672 Q507.101 160.672 507.866 160.228 Q508.632 159.758 508.632 158.227 L508.632 132.016 Q505.989 133.35 501.987 133.35 Z" fill="#000000" fill-rule="nonzero" fill-opacity="1" /></svg>
