<?xml version="1.0" encoding="utf-8"?>
<svg xmlns="http://www.w3.org/2000/svg" xmlns:xlink="http://www.w3.org/1999/xlink" width="600" height="400" viewBox="0 0 2400 1600">
<defs>
  <clipPath id="clip710">
    <rect x="0" y="0" width="2400" height="1600"/>
  </clipPath>
</defs>
<path clip-path="url(#clip710)" d="M0 1600 L2400 1600 L2400 0 L0 0  Z" fill="#ffffff" fill-rule="evenodd" fill-opacity="1"/>
<defs>
  <clipPath id="clip711">
    <rect x="480" y="0" width="1681" height="1600"/>
  </clipPath>
</defs>
<path clip-path="url(#clip710)" d="M249.395 1423.18 L2352.76 1423.18 L2352.76 47.2441 L249.395 47.2441  Z" fill="#ffffff" fill-rule="evenodd" fill-opacity="1"/>
<defs>
  <clipPath id="clip712">
    <rect x="249" y="47" width="2104" height="1377"/>
  </clipPath>
</defs>
<polyline clip-path="url(#clip712)" style="stroke:#000000; stroke-linecap:round; stroke-linejoin:round; stroke-width:2; stroke-opacity:0.1; fill:none" points="477.324,1423.18 477.324,47.2441 "/>
<polyline clip-path="url(#clip712)" style="stroke:#000000; stroke-linecap:round; stroke-linejoin:round; stroke-width:2; stroke-opacity:0.1; fill:none" points="985.223,1423.18 985.223,47.2441 "/>
<polyline clip-path="url(#clip712)" style="stroke:#000000; stroke-linecap:round; stroke-linejoin:round; stroke-width:2; stroke-opacity:0.1; fill:none" points="1493.12,1423.18 1493.12,47.2441 "/>
<polyline clip-path="url(#clip712)" style="stroke:#000000; stroke-linecap:round; stroke-linejoin:round; stroke-width:2; stroke-opacity:0.1; fill:none" points="2001.02,1423.18 2001.02,47.2441 "/>
<polyline clip-path="url(#clip712)" style="stroke:#000000; stroke-linecap:round; stroke-linejoin:round; stroke-width:2; stroke-opacity:0.1; fill:none" points="249.395,1115.12 2352.76,1115.12 "/>
<polyline clip-path="url(#clip712)" style="stroke:#000000; stroke-linecap:round; stroke-linejoin:round; stroke-width:2; stroke-opacity:0.1; fill:none" points="249.395,806.498 2352.76,806.498 "/>
<polyline clip-path="url(#clip712)" style="stroke:#000000; stroke-linecap:round; stroke-linejoin:round; stroke-width:2; stroke-opacity:0.1; fill:none" points="249.395,497.871 2352.76,497.871 "/>
<polyline clip-path="url(#clip712)" style="stroke:#000000; stroke-linecap:round; stroke-linejoin:round; stroke-width:2; stroke-opacity:0.1; fill:none" points="249.395,189.244 2352.76,189.244 "/>
<polyline clip-path="url(#clip710)" style="stroke:#000000; stroke-linecap:round; stroke-linejoin:round; stroke-width:4; stroke-opacity:1; fill:none" points="249.395,1423.18 2352.76,1423.18 "/>
<polyline clip-path="url(#clip710)" style="stroke:#000000; stroke-linecap:round; stroke-linejoin:round; stroke-width:4; stroke-opacity:1; fill:none" points="477.324,1423.18 477.324,1404.28 "/>
<polyline clip-path="url(#clip710)" style="stroke:#000000; stroke-linecap:round; stroke-linejoin:round; stroke-width:4; stroke-opacity:1; fill:none" points="985.223,1423.18 985.223,1404.28 "/>
<polyline clip-path="url(#clip710)" style="stroke:#000000; stroke-linecap:round; stroke-linejoin:round; stroke-width:4; stroke-opacity:1; fill:none" points="1493.12,1423.18 1493.12,1404.28 "/>
<polyline clip-path="url(#clip710)" style="stroke:#000000; stroke-linecap:round; stroke-linejoin:round; stroke-width:4; stroke-opacity:1; fill:none" points="2001.02,1423.18 2001.02,1404.28 "/>
<path clip-path="url(#clip710)" d="M461.156 1472.22 Q461.452 1472.51 461.452 1472.93 Q461.452 1473.35 461.156 1473.65 Q460.859 1473.94 460.44 1473.94 L428.77 1473.94 Q428.35 1473.94 428.053 1473.65 Q427.757 1473.35 427.757 1472.93 Q427.757 1472.51 428.053 1472.22 Q428.35 1471.92 428.77 1471.92 L460.44 1471.92 Q460.859 1471.92 461.156 1472.22 Z" fill="#000000" fill-rule="nonzero" fill-opacity="1" /><path clip-path="url(#clip710)" d="M468.765 1456.7 L468.765 1455.12 Q474.842 1455.12 477.979 1451.88 Q478.844 1451.88 478.992 1452.08 Q479.14 1452.28 479.14 1453.19 L479.14 1481.58 Q479.14 1483.08 479.881 1483.55 Q480.622 1484.02 483.858 1484.02 L485.464 1484.02 L485.464 1485.58 Q483.685 1485.43 477.263 1485.43 Q470.84 1485.43 469.086 1485.58 L469.086 1484.02 L470.691 1484.02 Q473.878 1484.02 474.644 1483.58 Q475.41 1483.11 475.41 1481.58 L475.41 1455.37 Q472.767 1456.7 468.765 1456.7 Z" fill="#000000" fill-rule="nonzero" fill-opacity="1" /><path clip-path="url(#clip710)" d="M494.629 1484.76 Q493.863 1483.95 493.863 1482.89 Q493.863 1481.82 494.629 1481.06 Q495.395 1480.27 496.556 1480.27 Q497.667 1480.27 498.409 1481.01 Q499.174 1481.73 499.174 1482.91 Q499.174 1484.07 498.359 1484.84 Q497.569 1485.58 496.556 1485.58 Q495.395 1485.58 494.629 1484.76 Z" fill="#000000" fill-rule="nonzero" fill-opacity="1" /><path clip-path="url(#clip710)" d="M505.597 1469.4 Q505.597 1461.96 507.475 1457.91 Q510.093 1451.88 516.269 1451.88 Q517.578 1451.88 518.937 1452.26 Q520.32 1452.6 522.05 1453.96 Q523.804 1455.32 524.866 1457.54 Q526.892 1461.84 526.892 1469.4 Q526.892 1476.79 525.014 1480.81 Q522.272 1486.69 516.22 1486.69 Q513.947 1486.69 511.625 1485.53 Q509.327 1484.37 507.87 1481.58 Q505.597 1477.4 505.597 1469.4 M509.797 1468.78 Q509.797 1476.41 510.34 1479.45 Q510.958 1482.74 512.638 1484.17 Q514.342 1485.58 516.22 1485.58 Q518.245 1485.58 519.925 1484.07 Q521.63 1482.54 522.149 1479.26 Q522.717 1476.02 522.692 1468.78 Q522.692 1461.74 522.198 1458.92 Q521.531 1455.64 519.752 1454.33 Q517.998 1453 516.22 1453 Q515.553 1453 514.836 1453.19 Q514.145 1453.39 513.132 1453.96 Q512.119 1454.53 511.328 1455.94 Q510.563 1457.34 510.192 1459.47 Q509.797 1462.21 509.797 1468.78 Z" fill="#000000" fill-rule="nonzero" fill-opacity="1" /><path clip-path="url(#clip710)" d="M969.326 1472.22 Q969.623 1472.51 969.623 1472.93 Q969.623 1473.35 969.326 1473.65 Q969.03 1473.94 968.61 1473.94 L936.94 1473.94 Q936.52 1473.94 936.224 1473.65 Q935.927 1473.35 935.927 1472.93 Q935.927 1472.51 936.224 1472.22 Q936.52 1471.92 936.94 1471.92 L968.61 1471.92 Q969.03 1471.92 969.326 1472.22 Z" fill="#000000" fill-rule="nonzero" fill-opacity="1" /><path clip-path="url(#clip710)" d="M974.415 1469.4 Q974.415 1461.96 976.293 1457.91 Q978.911 1451.88 985.087 1451.88 Q986.396 1451.88 987.755 1452.26 Q989.138 1452.6 990.868 1453.96 Q992.621 1455.32 993.684 1457.54 Q995.709 1461.84 995.709 1469.4 Q995.709 1476.79 993.832 1480.81 Q991.09 1486.69 985.038 1486.69 Q982.765 1486.69 980.443 1485.53 Q978.145 1484.37 976.688 1481.58 Q974.415 1477.4 974.415 1469.4 M978.615 1468.78 Q978.615 1476.41 979.158 1479.45 Q979.776 1482.74 981.456 1484.17 Q983.16 1485.58 985.038 1485.58 Q987.063 1485.58 988.743 1484.07 Q990.448 1482.54 990.966 1479.26 Q991.535 1476.02 991.51 1468.78 Q991.51 1461.74 991.016 1458.92 Q990.349 1455.64 988.57 1454.33 Q986.816 1453 985.038 1453 Q984.371 1453 983.654 1453.19 Q982.962 1453.39 981.95 1453.96 Q980.937 1454.53 980.146 1455.94 Q979.38 1457.34 979.01 1459.47 Q978.615 1462.21 978.615 1468.78 Z" fill="#000000" fill-rule="nonzero" fill-opacity="1" /><path clip-path="url(#clip710)" d="M1002.8 1484.76 Q1002.03 1483.95 1002.03 1482.89 Q1002.03 1481.82 1002.8 1481.06 Q1003.57 1480.27 1004.73 1480.27 Q1005.84 1480.27 1006.58 1481.01 Q1007.34 1481.73 1007.34 1482.91 Q1007.34 1484.07 1006.53 1484.84 Q1005.74 1485.58 1004.73 1485.58 Q1003.57 1485.58 1002.8 1484.76 Z" fill="#000000" fill-rule="nonzero" fill-opacity="1" /><path clip-path="url(#clip710)" d="M1014.31 1477.43 Q1014.31 1475.92 1015.13 1475.35 Q1015.94 1474.76 1016.81 1474.76 Q1017.97 1474.76 1018.63 1475.5 Q1019.33 1476.22 1019.33 1477.23 Q1019.33 1478.24 1018.63 1478.98 Q1017.97 1479.7 1016.81 1479.7 Q1016.24 1479.7 1015.94 1479.6 Q1016.61 1481.92 1018.63 1483.6 Q1020.68 1485.28 1023.38 1485.28 Q1026.76 1485.28 1028.79 1482 Q1030 1479.87 1030 1475.06 Q1030 1470.81 1029.08 1468.68 Q1027.68 1465.45 1024.79 1465.45 Q1020.68 1465.45 1018.26 1468.98 Q1017.97 1469.42 1017.62 1469.45 Q1017.13 1469.45 1017 1469.18 Q1016.9 1468.88 1016.9 1468.11 L1016.9 1453.14 Q1016.9 1451.93 1017.4 1451.93 Q1017.6 1451.93 1018.02 1452.08 Q1021.2 1453.49 1024.74 1453.51 Q1028.37 1453.51 1031.63 1452.03 Q1031.88 1451.88 1032.02 1451.88 Q1032.52 1451.88 1032.54 1452.45 Q1032.54 1452.65 1032.12 1453.24 Q1031.73 1453.81 1030.86 1454.58 Q1030 1455.32 1028.89 1456.03 Q1027.77 1456.75 1026.14 1457.25 Q1024.54 1457.71 1022.76 1457.71 Q1020.64 1457.71 1018.46 1457.05 L1018.46 1466.9 Q1021.08 1464.33 1024.88 1464.33 Q1028.94 1464.33 1031.73 1467.6 Q1034.52 1470.86 1034.52 1475.4 Q1034.52 1480.17 1031.21 1483.43 Q1027.92 1486.69 1023.48 1486.69 Q1019.42 1486.69 1016.86 1483.8 Q1014.31 1480.91 1014.31 1477.43 Z" fill="#000000" fill-rule="nonzero" fill-opacity="1" /><path clip-path="url(#clip710)" d="M1462.8 1469.4 Q1462.8 1461.96 1464.68 1457.91 Q1467.29 1451.88 1473.47 1451.88 Q1474.78 1451.88 1476.14 1452.26 Q1477.52 1452.6 1479.25 1453.96 Q1481 1455.32 1482.07 1457.54 Q1484.09 1461.84 1484.09 1469.4 Q1484.09 1476.79 1482.21 1480.81 Q1479.47 1486.69 1473.42 1486.69 Q1471.15 1486.69 1468.83 1485.53 Q1466.53 1484.37 1465.07 1481.58 Q1462.8 1477.4 1462.8 1469.4 M1467 1468.78 Q1467 1476.41 1467.54 1479.45 Q1468.16 1482.74 1469.84 1484.17 Q1471.54 1485.58 1473.42 1485.58 Q1475.45 1485.58 1477.13 1484.07 Q1478.83 1482.54 1479.35 1479.26 Q1479.92 1476.02 1479.89 1468.78 Q1479.89 1461.74 1479.4 1458.92 Q1478.73 1455.64 1476.95 1454.33 Q1475.2 1453 1473.42 1453 Q1472.75 1453 1472.04 1453.19 Q1471.35 1453.39 1470.33 1453.96 Q1469.32 1454.53 1468.53 1455.94 Q1467.76 1457.34 1467.39 1459.47 Q1467 1462.21 1467 1468.78 Z" fill="#000000" fill-rule="nonzero" fill-opacity="1" /><path clip-path="url(#clip710)" d="M1491.18 1484.76 Q1490.42 1483.95 1490.42 1482.89 Q1490.42 1481.82 1491.18 1481.06 Q1491.95 1480.27 1493.11 1480.27 Q1494.22 1480.27 1494.96 1481.01 Q1495.73 1481.73 1495.73 1482.91 Q1495.73 1484.07 1494.91 1484.84 Q1494.12 1485.58 1493.11 1485.58 Q1491.95 1485.58 1491.18 1484.76 Z" fill="#000000" fill-rule="nonzero" fill-opacity="1" /><path clip-path="url(#clip710)" d="M1502.15 1469.4 Q1502.15 1461.96 1504.03 1457.91 Q1506.65 1451.88 1512.82 1451.88 Q1514.13 1451.88 1515.49 1452.26 Q1516.87 1452.6 1518.6 1453.96 Q1520.36 1455.32 1521.42 1457.54 Q1523.44 1461.84 1523.44 1469.4 Q1523.44 1476.79 1521.57 1480.81 Q1518.83 1486.69 1512.77 1486.69 Q1510.5 1486.69 1508.18 1485.53 Q1505.88 1484.37 1504.42 1481.58 Q1502.15 1477.4 1502.15 1469.4 M1506.35 1468.78 Q1506.35 1476.41 1506.89 1479.45 Q1507.51 1482.74 1509.19 1484.17 Q1510.9 1485.58 1512.77 1485.58 Q1514.8 1485.58 1516.48 1484.07 Q1518.18 1482.54 1518.7 1479.26 Q1519.27 1476.02 1519.25 1468.78 Q1519.25 1461.74 1518.75 1458.92 Q1518.08 1455.64 1516.31 1454.33 Q1514.55 1453 1512.77 1453 Q1512.11 1453 1511.39 1453.19 Q1510.7 1453.39 1509.68 1453.96 Q1508.67 1454.53 1507.88 1455.94 Q1507.12 1457.34 1506.75 1459.47 Q1506.35 1462.21 1506.35 1468.78 Z" fill="#000000" fill-rule="nonzero" fill-opacity="1" /><path clip-path="url(#clip710)" d="M1970.97 1469.4 Q1970.97 1461.96 1972.85 1457.91 Q1975.46 1451.88 1981.64 1451.88 Q1982.95 1451.88 1984.31 1452.26 Q1985.69 1452.6 1987.42 1453.96 Q1989.17 1455.32 1990.24 1457.54 Q1992.26 1461.84 1992.26 1469.4 Q1992.26 1476.79 1990.39 1480.81 Q1987.64 1486.69 1981.59 1486.69 Q1979.32 1486.69 1977 1485.53 Q1974.7 1484.37 1973.24 1481.58 Q1970.97 1477.4 1970.97 1469.4 M1975.17 1468.78 Q1975.17 1476.41 1975.71 1479.45 Q1976.33 1482.74 1978.01 1484.17 Q1979.71 1485.58 1981.59 1485.58 Q1983.62 1485.58 1985.3 1484.07 Q1987 1482.54 1987.52 1479.26 Q1988.09 1476.02 1988.06 1468.78 Q1988.06 1461.74 1987.57 1458.92 Q1986.9 1455.64 1985.12 1454.33 Q1983.37 1453 1981.59 1453 Q1980.92 1453 1980.21 1453.19 Q1979.52 1453.39 1978.5 1453.96 Q1977.49 1454.53 1976.7 1455.94 Q1975.93 1457.34 1975.56 1459.47 Q1975.17 1462.21 1975.17 1468.78 Z" fill="#000000" fill-rule="nonzero" fill-opacity="1" /><path clip-path="url(#clip710)" d="M1999.35 1484.76 Q1998.59 1483.95 1998.59 1482.89 Q1998.59 1481.82 1999.35 1481.06 Q2000.12 1480.27 2001.28 1480.27 Q2002.39 1480.27 2003.13 1481.01 Q2003.9 1481.73 2003.9 1482.91 Q2003.9 1484.07 2003.08 1484.84 Q2002.29 1485.58 2001.28 1485.58 Q2000.12 1485.58 1999.35 1484.76 Z" fill="#000000" fill-rule="nonzero" fill-opacity="1" /><path clip-path="url(#clip710)" d="M2010.86 1477.43 Q2010.86 1475.92 2011.68 1475.35 Q2012.49 1474.76 2013.36 1474.76 Q2014.52 1474.76 2015.19 1475.5 Q2015.88 1476.22 2015.88 1477.23 Q2015.88 1478.24 2015.19 1478.98 Q2014.52 1479.7 2013.36 1479.7 Q2012.79 1479.7 2012.49 1479.6 Q2013.16 1481.92 2015.19 1483.6 Q2017.24 1485.28 2019.93 1485.28 Q2023.31 1485.28 2025.34 1482 Q2026.55 1479.87 2026.55 1475.06 Q2026.55 1470.81 2025.64 1468.68 Q2024.23 1465.45 2021.34 1465.45 Q2017.24 1465.45 2014.82 1468.98 Q2014.52 1469.42 2014.17 1469.45 Q2013.68 1469.45 2013.56 1469.18 Q2013.46 1468.88 2013.46 1468.11 L2013.46 1453.14 Q2013.46 1451.93 2013.95 1451.93 Q2014.15 1451.93 2014.57 1452.08 Q2017.76 1453.49 2021.29 1453.51 Q2024.92 1453.51 2028.18 1452.03 Q2028.43 1451.88 2028.58 1451.88 Q2029.07 1451.88 2029.1 1452.45 Q2029.1 1452.65 2028.68 1453.24 Q2028.28 1453.81 2027.42 1454.58 Q2026.55 1455.32 2025.44 1456.03 Q2024.33 1456.75 2022.7 1457.25 Q2021.09 1457.71 2019.31 1457.71 Q2017.19 1457.71 2015.01 1457.05 L2015.01 1466.9 Q2017.63 1464.33 2021.44 1464.33 Q2025.49 1464.33 2028.28 1467.6 Q2031.07 1470.86 2031.07 1475.4 Q2031.07 1480.17 2027.76 1483.43 Q2024.48 1486.69 2020.03 1486.69 Q2015.98 1486.69 2013.41 1483.8 Q2010.86 1480.91 2010.86 1477.43 Z" fill="#000000" fill-rule="nonzero" fill-opacity="1" /><path clip-path="url(#clip710)" d="M1163.17 1555.46 L1163.17 1553.43 Q1166.68 1553.43 1167.49 1553.01 Q1168.29 1552.56 1168.29 1550.44 L1168.29 1532.76 Q1168.29 1530.31 1167.42 1529.7 Q1166.59 1529.08 1163.17 1529.08 L1163.17 1527.02 L1172.45 1526.32 L1172.45 1533.24 Q1175.54 1526.32 1182.21 1526.32 Q1189.94 1526.32 1191 1532.76 Q1192.13 1530.24 1194.48 1528.28 Q1196.86 1526.32 1200.56 1526.32 Q1205.52 1526.32 1207.49 1528.76 Q1208.94 1530.41 1209.23 1532.24 Q1209.52 1534.08 1209.52 1538.84 L1209.52 1551.44 Q1209.58 1552.82 1210.64 1553.14 Q1211.71 1553.43 1214.67 1553.43 L1214.67 1555.46 Q1207.94 1555.27 1207.29 1555.27 Q1206.78 1555.27 1199.82 1555.46 L1199.82 1553.43 Q1203.33 1553.43 1204.14 1553.01 Q1204.98 1552.56 1204.98 1550.44 L1204.98 1535.08 Q1204.98 1531.73 1203.95 1529.76 Q1202.91 1527.76 1200.08 1527.76 Q1196.67 1527.76 1193.93 1530.63 Q1191.19 1533.5 1191.19 1538.33 L1191.19 1550.44 Q1191.19 1552.56 1192 1553.01 Q1192.83 1553.43 1196.34 1553.43 L1196.34 1555.46 Q1189.61 1555.27 1188.94 1555.27 Q1188.42 1555.27 1181.5 1555.46 L1181.5 1553.43 Q1185.01 1553.43 1185.81 1553.01 Q1186.65 1552.56 1186.65 1550.44 L1186.65 1535.08 Q1186.65 1531.73 1185.62 1529.76 Q1184.59 1527.76 1181.76 1527.76 Q1178.34 1527.76 1175.6 1530.63 Q1172.87 1533.5 1172.87 1538.33 L1172.87 1550.44 Q1172.87 1552.56 1173.67 1553.01 Q1174.51 1553.43 1177.99 1553.43 L1177.99 1555.46 Q1171.26 1555.27 1170.61 1555.27 Q1170.1 1555.27 1163.17 1555.46 Z" fill="#000000" fill-rule="nonzero" fill-opacity="1" /><path clip-path="url(#clip710)" d="M1218.35 1549.18 Q1218.35 1543.58 1224.95 1540.61 Q1228.92 1538.71 1237.1 1538.23 L1237.1 1535.82 Q1237.1 1531.73 1234.94 1529.57 Q1232.81 1527.38 1230.11 1527.38 Q1225.28 1527.38 1222.96 1530.41 Q1224.92 1530.47 1225.63 1531.47 Q1226.34 1532.43 1226.34 1533.43 Q1226.34 1534.75 1225.5 1535.62 Q1224.7 1536.46 1223.31 1536.46 Q1221.99 1536.46 1221.12 1535.65 Q1220.25 1534.82 1220.25 1533.37 Q1220.25 1530.15 1223.15 1528.02 Q1226.08 1525.9 1230.24 1525.9 Q1235.65 1525.9 1239.25 1529.54 Q1240.38 1530.66 1240.93 1532.11 Q1241.51 1533.56 1241.57 1534.53 Q1241.64 1535.46 1241.64 1537.33 L1241.64 1550.5 Q1241.64 1550.89 1241.77 1551.53 Q1241.89 1552.18 1242.47 1553.01 Q1243.09 1553.82 1244.08 1553.82 Q1246.47 1553.82 1246.44 1549.6 L1246.44 1545.9 L1248.11 1545.9 L1248.11 1549.6 Q1248.11 1553.11 1246.24 1554.5 Q1244.41 1555.85 1242.7 1555.85 Q1240.51 1555.85 1239.12 1554.24 Q1237.74 1552.63 1237.55 1550.44 Q1236.55 1552.95 1234.26 1554.59 Q1232.01 1556.2 1228.92 1556.2 Q1226.53 1556.2 1224.28 1555.59 Q1222.06 1555.01 1220.19 1553.37 Q1218.35 1551.69 1218.35 1549.18 M1223.44 1549.12 Q1223.44 1551.56 1225.18 1553.14 Q1226.92 1554.72 1229.37 1554.72 Q1232.14 1554.72 1234.62 1552.6 Q1237.1 1550.44 1237.1 1546.22 L1237.1 1539.62 Q1229.78 1539.87 1226.6 1542.8 Q1223.44 1545.7 1223.44 1549.12 Z" fill="#000000" fill-rule="nonzero" fill-opacity="1" /><path clip-path="url(#clip710)" d="M1251.02 1554.59 L1251.02 1545.9 Q1251.02 1545.16 1251.05 1544.9 Q1251.08 1544.64 1251.27 1544.45 Q1251.47 1544.25 1251.85 1544.25 Q1252.3 1544.25 1252.47 1544.45 Q1252.66 1544.64 1252.79 1545.38 Q1253.79 1549.92 1255.91 1552.34 Q1258.07 1554.72 1261.97 1554.72 Q1265.67 1554.72 1267.54 1553.08 Q1269.41 1551.44 1269.41 1548.73 Q1269.41 1543.9 1262.55 1542.68 Q1258.58 1541.87 1256.94 1541.36 Q1255.3 1540.81 1253.85 1539.62 Q1251.02 1537.3 1251.02 1534.01 Q1251.02 1530.73 1253.5 1528.31 Q1256.01 1525.9 1261.55 1525.9 Q1265.25 1525.9 1267.76 1527.76 Q1268.5 1527.18 1268.89 1526.7 Q1269.76 1525.9 1270.21 1525.9 Q1270.73 1525.9 1270.82 1526.25 Q1270.92 1526.57 1270.92 1527.51 L1270.92 1534.14 Q1270.92 1534.88 1270.89 1535.14 Q1270.85 1535.4 1270.66 1535.59 Q1270.47 1535.75 1270.05 1535.75 Q1269.31 1535.75 1269.28 1535.14 Q1268.76 1527.15 1261.55 1527.15 Q1257.65 1527.15 1255.91 1528.67 Q1254.17 1530.15 1254.17 1532.18 Q1254.17 1533.3 1254.69 1534.17 Q1255.23 1535.01 1255.91 1535.53 Q1256.62 1536.01 1257.91 1536.49 Q1259.2 1536.94 1259.97 1537.1 Q1260.77 1537.27 1262.29 1537.59 Q1267.57 1538.59 1269.79 1540.74 Q1272.56 1543.51 1272.56 1547.02 Q1272.56 1550.92 1269.92 1553.56 Q1267.28 1556.2 1261.97 1556.2 Q1257.68 1556.2 1254.69 1553.34 Q1254.3 1553.72 1254.01 1554.08 Q1253.72 1554.4 1253.59 1554.53 Q1253.5 1554.66 1253.46 1554.75 Q1253.43 1554.82 1253.37 1554.88 Q1252.05 1556.2 1251.72 1556.2 Q1251.21 1556.2 1251.11 1555.85 Q1251.02 1555.53 1251.02 1554.59 Z" fill="#000000" fill-rule="nonzero" fill-opacity="1" /><path clip-path="url(#clip710)" d="M1276.46 1554.59 L1276.46 1545.9 Q1276.46 1545.16 1276.49 1544.9 Q1276.53 1544.64 1276.72 1544.45 Q1276.91 1544.25 1277.3 1544.25 Q1277.75 1544.25 1277.91 1544.45 Q1278.1 1544.64 1278.23 1545.38 Q1279.23 1549.92 1281.36 1552.34 Q1283.52 1554.72 1287.41 1554.72 Q1291.12 1554.72 1292.98 1553.08 Q1294.85 1551.44 1294.85 1548.73 Q1294.85 1543.9 1287.99 1542.68 Q1284.03 1541.87 1282.39 1541.36 Q1280.75 1540.81 1279.3 1539.62 Q1276.46 1537.3 1276.46 1534.01 Q1276.46 1530.73 1278.94 1528.31 Q1281.45 1525.9 1286.99 1525.9 Q1290.7 1525.9 1293.21 1527.76 Q1293.95 1527.18 1294.34 1526.7 Q1295.21 1525.9 1295.66 1525.9 Q1296.17 1525.9 1296.27 1526.25 Q1296.37 1526.57 1296.37 1527.51 L1296.37 1534.14 Q1296.37 1534.88 1296.33 1535.14 Q1296.3 1535.4 1296.11 1535.59 Q1295.91 1535.75 1295.5 1535.75 Q1294.76 1535.75 1294.72 1535.14 Q1294.21 1527.15 1286.99 1527.15 Q1283.1 1527.15 1281.36 1528.67 Q1279.62 1530.15 1279.62 1532.18 Q1279.62 1533.3 1280.13 1534.17 Q1280.68 1535.01 1281.36 1535.53 Q1282.07 1536.01 1283.35 1536.49 Q1284.64 1536.94 1285.42 1537.1 Q1286.22 1537.27 1287.73 1537.59 Q1293.02 1538.59 1295.24 1540.74 Q1298.01 1543.51 1298.01 1547.02 Q1298.01 1550.92 1295.37 1553.56 Q1292.73 1556.2 1287.41 1556.2 Q1283.13 1556.2 1280.13 1553.34 Q1279.75 1553.72 1279.46 1554.08 Q1279.17 1554.4 1279.04 1554.53 Q1278.94 1554.66 1278.91 1554.75 Q1278.88 1554.82 1278.81 1554.88 Q1277.49 1556.2 1277.17 1556.2 Q1276.66 1556.2 1276.56 1555.85 Q1276.46 1555.53 1276.46 1554.59 Z" fill="#000000" fill-rule="nonzero" fill-opacity="1" /><path clip-path="url(#clip710)" d="M1316.7 1568.34 Q1316.7 1568.05 1316.93 1567.41 L1337.97 1511.2 Q1337.97 1511.14 1338.11 1510.82 Q1338.26 1510.5 1338.35 1510.29 Q1338.43 1510.06 1338.61 1509.89 Q1338.81 1509.71 1339.05 1509.71 Q1339.63 1509.71 1339.63 1510.44 Q1339.63 1510.5 1339.45 1511.2 L1318.36 1567.47 Q1318.01 1568.49 1317.77 1568.78 Q1317.57 1569.07 1317.22 1569.07 Q1316.7 1569.07 1316.7 1568.34 Z" fill="#000000" fill-rule="nonzero" fill-opacity="1" /><path clip-path="url(#clip710)" d="M1367.77 1555.46 L1367.77 1553.43 Q1371.28 1553.43 1372.09 1553.01 Q1372.93 1552.56 1372.93 1550.44 L1372.93 1516.14 Q1372.93 1513.69 1372.06 1513.08 Q1371.22 1512.47 1367.77 1512.47 L1367.77 1510.41 L1377.27 1509.7 L1377.27 1541.36 L1386.58 1533.3 Q1388.03 1532.05 1388.03 1530.73 Q1388.03 1529.21 1386.13 1529.08 L1386.13 1527.02 Q1388.9 1527.22 1393.5 1527.22 Q1396.21 1527.22 1398.11 1527.02 L1398.11 1529.08 Q1393.96 1529.28 1389.8 1532.63 Q1388.87 1533.37 1386.64 1535.3 Q1384.45 1537.2 1384.45 1537.39 Q1384.45 1537.46 1384.52 1537.62 Q1384.62 1537.78 1384.74 1537.91 Q1384.87 1538.04 1384.87 1538.1 L1393.25 1549.92 Q1394.95 1552.31 1396.21 1552.89 Q1397.47 1553.43 1399.66 1553.43 L1399.66 1555.46 Q1396.82 1555.27 1393.89 1555.27 Q1392.31 1555.27 1386.77 1555.46 L1386.77 1553.43 Q1389.16 1553.43 1389.16 1551.89 Q1389.16 1550.82 1383.81 1543.45 Q1383.42 1542.93 1382.55 1541.81 Q1381.75 1540.61 1381.3 1540.03 L1377.08 1543.64 L1377.08 1550.44 Q1377.08 1552.56 1377.88 1553.01 Q1378.72 1553.43 1382.23 1553.43 L1382.23 1555.46 Q1378.27 1555.27 1374.99 1555.27 Q1374.31 1555.27 1367.77 1555.46 Z" fill="#000000" fill-rule="nonzero" fill-opacity="1" /><path clip-path="url(#clip710)" d="M1399.27 1560.68 Q1399.27 1558.55 1400.88 1556.72 Q1402.53 1554.88 1405.36 1554.08 Q1402.46 1552.24 1402.46 1548.22 Q1402.46 1545.12 1404.49 1542.74 Q1401.4 1540.16 1401.4 1535.94 Q1401.4 1532.05 1404.49 1529.18 Q1407.58 1526.32 1412.09 1526.32 Q1416.05 1526.32 1419.08 1528.7 Q1422.24 1525.61 1426.07 1525.57 Q1427.78 1525.57 1428.58 1526.64 Q1429.42 1527.7 1429.42 1528.83 Q1429.42 1529.83 1428.77 1530.31 Q1428.16 1530.79 1427.52 1530.79 Q1426.71 1530.79 1426.13 1530.28 Q1425.59 1529.73 1425.59 1528.89 Q1425.59 1527.51 1426.65 1527.09 Q1426.46 1527.02 1426 1527.02 Q1422.78 1527.02 1420.05 1529.6 Q1422.75 1532.11 1422.75 1536.01 Q1422.75 1539.91 1419.66 1542.77 Q1416.57 1545.64 1412.09 1545.64 Q1408.39 1545.64 1405.55 1543.58 Q1404.43 1544.9 1404.43 1546.7 Q1404.43 1548.34 1405.42 1549.63 Q1406.42 1550.92 1407.94 1551.11 Q1408.39 1551.18 1412.86 1551.18 Q1415.51 1551.18 1416.95 1551.24 Q1418.4 1551.31 1420.47 1551.76 Q1422.56 1552.18 1424.2 1553.01 Q1428.48 1555.4 1428.52 1560.55 Q1428.52 1564.32 1424.17 1566.67 Q1419.85 1569.05 1413.86 1569.05 Q1407.81 1569.05 1403.52 1566.64 Q1399.27 1564.25 1399.27 1560.68 M1402.72 1560.68 Q1402.72 1563.38 1405.91 1565.45 Q1409.1 1567.54 1413.93 1567.54 Q1418.66 1567.54 1421.85 1565.48 Q1425.07 1563.45 1425.07 1560.68 Q1425.07 1558.71 1423.94 1557.46 Q1422.82 1556.2 1420.5 1555.69 Q1418.21 1555.2 1416.6 1555.11 Q1414.99 1555.01 1412.03 1555.01 L1408.13 1555.01 Q1405.88 1555.14 1404.3 1556.78 Q1402.72 1558.42 1402.72 1560.68 M1406.33 1536.01 Q1406.33 1544.13 1412.09 1544.13 Q1414.99 1544.13 1416.76 1541.48 Q1417.82 1539.71 1417.82 1535.94 Q1417.82 1527.83 1412.09 1527.83 Q1409.19 1527.83 1407.39 1530.47 Q1406.33 1532.24 1406.33 1536.01 Z" fill="#000000" fill-rule="nonzero" fill-opacity="1" /><polyline clip-path="url(#clip710)" style="stroke:#000000; stroke-linecap:round; stroke-linejoin:round; stroke-width:4; stroke-opacity:1; fill:none" points="249.395,1423.18 249.395,47.2441 "/>
<polyline clip-path="url(#clip710)" style="stroke:#000000; stroke-linecap:round; stroke-linejoin:round; stroke-width:4; stroke-opacity:1; fill:none" points="249.395,1115.12 268.292,1115.12 "/>
<polyline clip-path="url(#clip710)" style="stroke:#000000; stroke-linecap:round; stroke-linejoin:round; stroke-width:4; stroke-opacity:1; fill:none" points="249.395,806.498 268.292,806.498 "/>
<polyline clip-path="url(#clip710)" style="stroke:#000000; stroke-linecap:round; stroke-linejoin:round; stroke-width:4; stroke-opacity:1; fill:none" points="249.395,497.871 268.292,497.871 "/>
<polyline clip-path="url(#clip710)" style="stroke:#000000; stroke-linecap:round; stroke-linejoin:round; stroke-width:4; stroke-opacity:1; fill:none" points="249.395,189.244 268.292,189.244 "/>
<path clip-path="url(#clip710)" d="M147.659 1119.04 Q147.956 1119.34 147.956 1119.76 Q147.956 1120.18 147.659 1120.47 Q147.363 1120.77 146.943 1120.77 L115.273 1120.77 Q114.853 1120.77 114.557 1120.47 Q114.26 1120.18 114.26 1119.76 Q114.26 1119.34 114.557 1119.04 Q114.853 1118.74 115.273 1118.74 L146.943 1118.74 Q147.363 1118.74 147.659 1119.04 Z" fill="#000000" fill-rule="nonzero" fill-opacity="1" /><path clip-path="url(#clip710)" d="M155.268 1103.53 L155.268 1101.95 Q161.345 1101.95 164.482 1098.71 Q165.347 1098.71 165.495 1098.91 Q165.643 1099.1 165.643 1100.02 L165.643 1128.4 Q165.643 1129.91 166.384 1130.38 Q167.125 1130.85 170.361 1130.85 L171.967 1130.85 L171.967 1132.4 Q170.189 1132.26 163.766 1132.26 Q157.343 1132.26 155.589 1132.4 L155.589 1130.85 L157.195 1130.85 Q160.381 1130.85 161.147 1130.4 Q161.913 1129.93 161.913 1128.4 L161.913 1102.19 Q159.27 1103.53 155.268 1103.53 Z" fill="#000000" fill-rule="nonzero" fill-opacity="1" /><path clip-path="url(#clip710)" d="M181.132 1131.59 Q180.366 1130.77 180.366 1129.71 Q180.366 1128.65 181.132 1127.88 Q181.898 1127.09 183.059 1127.09 Q184.171 1127.09 184.912 1127.83 Q185.678 1128.55 185.678 1129.74 Q185.678 1130.9 184.862 1131.66 Q184.072 1132.4 183.059 1132.4 Q181.898 1132.4 181.132 1131.59 Z" fill="#000000" fill-rule="nonzero" fill-opacity="1" /><path clip-path="url(#clip710)" d="M192.1 1116.22 Q192.1 1108.79 193.978 1104.74 Q196.596 1098.71 202.772 1098.71 Q204.082 1098.71 205.44 1099.08 Q206.824 1099.43 208.553 1100.78 Q210.307 1102.14 211.369 1104.37 Q213.395 1108.67 213.395 1116.22 Q213.395 1123.61 211.517 1127.64 Q208.775 1133.52 202.723 1133.52 Q200.45 1133.52 198.128 1132.36 Q195.831 1131.19 194.373 1128.4 Q192.1 1124.23 192.1 1116.22 M196.3 1115.61 Q196.3 1123.24 196.843 1126.28 Q197.461 1129.56 199.141 1131 Q200.845 1132.4 202.723 1132.4 Q204.749 1132.4 206.428 1130.9 Q208.133 1129.37 208.652 1126.08 Q209.22 1122.84 209.195 1115.61 Q209.195 1108.57 208.701 1105.75 Q208.034 1102.46 206.255 1101.16 Q204.502 1099.82 202.723 1099.82 Q202.056 1099.82 201.339 1100.02 Q200.648 1100.22 199.635 1100.78 Q198.622 1101.35 197.832 1102.76 Q197.066 1104.17 196.695 1106.29 Q196.3 1109.04 196.3 1115.61 Z" fill="#000000" fill-rule="nonzero" fill-opacity="1" /><path clip-path="url(#clip710)" d="M148.203 810.413 Q148.499 810.71 148.499 811.13 Q148.499 811.55 148.203 811.846 Q147.906 812.143 147.486 812.143 L115.816 812.143 Q115.397 812.143 115.1 811.846 Q114.804 811.55 114.804 811.13 Q114.804 810.71 115.1 810.413 Q115.397 810.117 115.816 810.117 L147.486 810.117 Q147.906 810.117 148.203 810.413 Z" fill="#000000" fill-rule="nonzero" fill-opacity="1" /><path clip-path="url(#clip710)" d="M153.291 807.597 Q153.291 800.161 155.169 796.11 Q157.787 790.082 163.963 790.082 Q165.273 790.082 166.631 790.453 Q168.015 790.799 169.744 792.158 Q171.498 793.516 172.56 795.74 Q174.586 800.038 174.586 807.597 Q174.586 814.983 172.708 819.01 Q169.966 824.89 163.914 824.89 Q161.641 824.89 159.319 823.728 Q157.022 822.567 155.564 819.776 Q153.291 815.601 153.291 807.597 M157.491 806.98 Q157.491 814.613 158.035 817.651 Q158.652 820.937 160.332 822.37 Q162.036 823.778 163.914 823.778 Q165.94 823.778 167.619 822.271 Q169.324 820.739 169.843 817.454 Q170.411 814.218 170.386 806.98 Q170.386 799.939 169.892 797.123 Q169.225 793.837 167.446 792.528 Q165.693 791.194 163.914 791.194 Q163.247 791.194 162.531 791.392 Q161.839 791.589 160.826 792.158 Q159.813 792.726 159.023 794.134 Q158.257 795.542 157.886 797.666 Q157.491 800.409 157.491 806.98 Z" fill="#000000" fill-rule="nonzero" fill-opacity="1" /><path clip-path="url(#clip710)" d="M181.676 822.963 Q180.91 822.147 180.91 821.085 Q180.91 820.023 181.676 819.257 Q182.441 818.467 183.602 818.467 Q184.714 818.467 185.455 819.208 Q186.221 819.924 186.221 821.11 Q186.221 822.271 185.406 823.037 Q184.615 823.778 183.602 823.778 Q182.441 823.778 181.676 822.963 Z" fill="#000000" fill-rule="nonzero" fill-opacity="1" /><path clip-path="url(#clip710)" d="M193.187 815.626 Q193.187 814.119 194.003 813.551 Q194.818 812.958 195.682 812.958 Q196.843 812.958 197.51 813.699 Q198.202 814.415 198.202 815.428 Q198.202 816.441 197.51 817.182 Q196.843 817.898 195.682 817.898 Q195.114 817.898 194.818 817.8 Q195.485 820.122 197.51 821.802 Q199.561 823.481 202.254 823.481 Q205.638 823.481 207.664 820.196 Q208.874 818.071 208.874 813.254 Q208.874 809.005 207.96 806.881 Q206.552 803.645 203.662 803.645 Q199.561 803.645 197.14 807.177 Q196.843 807.622 196.498 807.647 Q196.004 807.647 195.88 807.375 Q195.781 807.078 195.781 806.313 L195.781 791.342 Q195.781 790.132 196.275 790.132 Q196.473 790.132 196.893 790.28 Q200.08 791.688 203.612 791.713 Q207.244 791.713 210.504 790.231 Q210.751 790.082 210.9 790.082 Q211.394 790.082 211.418 790.651 Q211.418 790.848 210.999 791.441 Q210.603 792.009 209.739 792.775 Q208.874 793.516 207.762 794.233 Q206.651 794.949 205.02 795.443 Q203.415 795.912 201.636 795.912 Q199.511 795.912 197.338 795.245 L197.338 805.102 Q199.956 802.533 203.76 802.533 Q207.812 802.533 210.603 805.794 Q213.395 809.055 213.395 813.6 Q213.395 818.368 210.084 821.629 Q206.799 824.89 202.352 824.89 Q198.301 824.89 195.732 821.999 Q193.187 819.109 193.187 815.626 Z" fill="#000000" fill-rule="nonzero" fill-opacity="1" /><path clip-path="url(#clip710)" d="M152.748 498.97 Q152.748 491.534 154.625 487.483 Q157.244 481.455 163.42 481.455 Q164.729 481.455 166.088 481.826 Q167.471 482.172 169.2 483.531 Q170.954 484.889 172.017 487.112 Q174.042 491.411 174.042 498.97 Q174.042 506.356 172.165 510.383 Q169.423 516.262 163.37 516.262 Q161.098 516.262 158.776 515.101 Q156.478 513.94 155.021 511.149 Q152.748 506.974 152.748 498.97 M156.948 498.353 Q156.948 505.986 157.491 509.024 Q158.109 512.31 159.788 513.743 Q161.493 515.151 163.37 515.151 Q165.396 515.151 167.076 513.644 Q168.78 512.112 169.299 508.827 Q169.867 505.591 169.843 498.353 Q169.843 491.312 169.349 488.496 Q168.682 485.21 166.903 483.901 Q165.149 482.567 163.37 482.567 Q162.703 482.567 161.987 482.765 Q161.295 482.962 160.283 483.531 Q159.27 484.099 158.479 485.507 Q157.713 486.915 157.343 489.039 Q156.948 491.781 156.948 498.353 Z" fill="#000000" fill-rule="nonzero" fill-opacity="1" /><path clip-path="url(#clip710)" d="M181.132 514.336 Q180.366 513.52 180.366 512.458 Q180.366 511.396 181.132 510.63 Q181.898 509.84 183.059 509.84 Q184.171 509.84 184.912 510.581 Q185.678 511.297 185.678 512.483 Q185.678 513.644 184.862 514.41 Q184.072 515.151 183.059 515.151 Q181.898 515.151 181.132 514.336 Z" fill="#000000" fill-rule="nonzero" fill-opacity="1" /><path clip-path="url(#clip710)" d="M192.1 498.97 Q192.1 491.534 193.978 487.483 Q196.596 481.455 202.772 481.455 Q204.082 481.455 205.44 481.826 Q206.824 482.172 208.553 483.531 Q210.307 484.889 211.369 487.112 Q213.395 491.411 213.395 498.97 Q213.395 506.356 211.517 510.383 Q208.775 516.262 202.723 516.262 Q200.45 516.262 198.128 515.101 Q195.831 513.94 194.373 511.149 Q192.1 506.974 192.1 498.97 M196.3 498.353 Q196.3 505.986 196.843 509.024 Q197.461 512.31 199.141 513.743 Q200.845 515.151 202.723 515.151 Q204.749 515.151 206.428 513.644 Q208.133 512.112 208.652 508.827 Q209.22 505.591 209.195 498.353 Q209.195 491.312 208.701 488.496 Q208.034 485.21 206.255 483.901 Q204.502 482.567 202.723 482.567 Q202.056 482.567 201.339 482.765 Q200.648 482.962 199.635 483.531 Q198.622 484.099 197.832 485.507 Q197.066 486.915 196.695 489.039 Q196.3 491.781 196.3 498.353 Z" fill="#000000" fill-rule="nonzero" fill-opacity="1" /><path clip-path="url(#clip710)" d="M153.291 190.343 Q153.291 182.907 155.169 178.856 Q157.787 172.828 163.963 172.828 Q165.273 172.828 166.631 173.199 Q168.015 173.545 169.744 174.903 Q171.498 176.262 172.56 178.485 Q174.586 182.784 174.586 190.343 Q174.586 197.729 172.708 201.756 Q169.966 207.635 163.914 207.635 Q161.641 207.635 159.319 206.474 Q157.022 205.313 155.564 202.522 Q153.291 198.347 153.291 190.343 M157.491 189.725 Q157.491 197.359 158.035 200.397 Q158.652 203.683 160.332 205.116 Q162.036 206.524 163.914 206.524 Q165.94 206.524 167.619 205.017 Q169.324 203.485 169.843 200.2 Q170.411 196.964 170.386 189.725 Q170.386 182.685 169.892 179.869 Q169.225 176.583 167.446 175.274 Q165.693 173.94 163.914 173.94 Q163.247 173.94 162.531 174.138 Q161.839 174.335 160.826 174.903 Q159.813 175.472 159.023 176.88 Q158.257 178.288 157.886 180.412 Q157.491 183.154 157.491 189.725 Z" fill="#000000" fill-rule="nonzero" fill-opacity="1" /><path clip-path="url(#clip710)" d="M181.676 205.709 Q180.91 204.893 180.91 203.831 Q180.91 202.769 181.676 202.003 Q182.441 201.213 183.602 201.213 Q184.714 201.213 185.455 201.954 Q186.221 202.67 186.221 203.856 Q186.221 205.017 185.406 205.783 Q184.615 206.524 183.602 206.524 Q182.441 206.524 181.676 205.709 Z" fill="#000000" fill-rule="nonzero" fill-opacity="1" /><path clip-path="url(#clip710)" d="M193.187 198.372 Q193.187 196.865 194.003 196.297 Q194.818 195.704 195.682 195.704 Q196.843 195.704 197.51 196.445 Q198.202 197.161 198.202 198.174 Q198.202 199.187 197.51 199.928 Q196.843 200.644 195.682 200.644 Q195.114 200.644 194.818 200.546 Q195.485 202.868 197.51 204.547 Q199.561 206.227 202.254 206.227 Q205.638 206.227 207.664 202.942 Q208.874 200.817 208.874 196 Q208.874 191.751 207.96 189.627 Q206.552 186.391 203.662 186.391 Q199.561 186.391 197.14 189.923 Q196.843 190.368 196.498 190.392 Q196.004 190.392 195.88 190.121 Q195.781 189.824 195.781 189.058 L195.781 174.088 Q195.781 172.878 196.275 172.878 Q196.473 172.878 196.893 173.026 Q200.08 174.434 203.612 174.459 Q207.244 174.459 210.504 172.977 Q210.751 172.828 210.9 172.828 Q211.394 172.828 211.418 173.397 Q211.418 173.594 210.999 174.187 Q210.603 174.755 209.739 175.521 Q208.874 176.262 207.762 176.979 Q206.651 177.695 205.02 178.189 Q203.415 178.658 201.636 178.658 Q199.511 178.658 197.338 177.991 L197.338 187.848 Q199.956 185.279 203.76 185.279 Q207.812 185.279 210.603 188.54 Q213.395 191.801 213.395 196.346 Q213.395 201.114 210.084 204.375 Q206.799 207.635 202.352 207.635 Q198.301 207.635 195.732 204.745 Q193.187 201.855 193.187 198.372 Z" fill="#000000" fill-rule="nonzero" fill-opacity="1" /><path clip-path="url(#clip710)" d="M43.8213 851.942 Q44.6586 851.942 46.3011 852.168 Q47.9436 852.393 50.3269 852.941 Q52.7101 853.488 55.2222 854.293 Q57.7342 855.066 60.2463 856.29 Q62.7261 857.514 64.6907 858.963 Q66.6552 860.413 67.8791 862.442 Q69.1029 864.47 69.1029 866.757 Q69.1029 867.82 68.9418 868.85 Q68.7808 869.881 68.2655 871.169 Q67.7502 872.458 66.9129 873.391 Q66.0433 874.325 64.4974 874.97 Q62.9516 875.614 60.9226 875.614 Q58.8292 875.614 56.0273 874.841 Q53.1932 874.036 47.3961 871.846 Q44.401 870.718 42.7585 870.718 Q42.0177 870.718 41.5669 870.879 Q41.0838 871.04 40.9227 871.363 Q40.7295 871.685 40.6973 871.878 Q40.6651 872.039 40.6651 872.361 Q40.6651 874.132 42.5008 875.936 Q44.3366 877.739 48.8454 879.028 Q49.6505 879.285 49.8438 879.446 Q50.037 879.607 50.037 880.09 Q50.0048 880.895 49.3607 880.895 Q49.1674 880.895 48.4267 880.67 Q47.6538 880.445 46.4944 880.026 Q45.3027 879.607 44.0789 878.866 Q42.8229 878.126 41.7279 877.224 Q40.6329 876.29 39.9244 874.97 Q39.2158 873.649 39.2158 872.168 Q39.2158 869.752 40.7939 868.271 Q42.3398 866.757 44.6264 866.757 Q45.8825 866.757 47.9114 867.562 Q51.5829 868.915 53.3542 869.527 Q55.1255 870.139 57.6376 870.783 Q60.1496 871.395 61.8888 871.395 Q64.5296 871.395 66.0755 870.171 Q67.6214 868.947 67.6214 866.499 Q67.6214 864.309 66.0433 862.345 Q64.433 860.348 62.1464 859.028 Q59.8276 857.707 57.2511 856.709 Q54.6424 855.71 52.6779 855.26 Q50.6811 854.777 49.7472 854.777 Q46.4944 854.777 44.3688 856.999 Q43.7569 857.611 43.3704 857.836 Q42.9839 858.062 42.372 858.062 Q41.2448 858.062 40.2464 857.063 Q39.2158 856.033 39.2158 854.841 Q39.2158 853.746 40.3108 852.844 Q41.4058 851.942 43.8213 851.942 Z" fill="#000000" fill-rule="nonzero" fill-opacity="1" /><path clip-path="url(#clip710)" d="M63.8651 822.189 Q65.1275 822.189 65.8489 822.978 Q66.5478 823.767 66.5478 824.668 Q66.5478 825.525 66.0518 825.976 Q65.5559 826.427 64.9246 826.427 Q64.068 826.427 63.324 825.796 Q62.58 825.164 62.4222 824.218 Q61.8361 825.142 61.8361 826.517 Q61.8361 827.419 62.3095 828.208 Q62.7829 828.974 63.3916 829.448 Q64.0003 829.899 64.8795 830.304 Q65.7362 830.688 66.2547 830.846 Q66.7507 830.981 67.2918 831.094 L73.6041 832.672 Q76.6025 833.438 77.662 833.438 Q78.9696 833.438 79.8488 832.807 Q80.7055 832.176 80.7055 830.913 Q80.7055 830.417 80.5702 829.854 Q80.4124 829.29 80.0066 828.569 Q79.5783 827.825 78.9471 827.171 Q78.2933 826.495 77.1886 825.841 Q76.084 825.187 74.6637 824.759 Q74.1677 824.623 74.1677 824.172 Q74.1677 823.609 74.6186 823.609 Q75.0018 823.609 75.8134 823.925 Q76.6025 824.218 77.6395 824.871 Q78.654 825.503 79.5783 826.337 Q80.4801 827.171 81.1113 828.411 Q81.7425 829.651 81.7425 831.003 Q81.7425 832.942 80.7055 834.227 Q79.6685 835.512 78.2257 835.986 Q78.4285 836.098 78.6991 836.256 Q78.9696 836.414 79.5783 836.887 Q80.1644 837.338 80.6153 837.857 Q81.0437 838.375 81.3818 839.187 Q81.7425 839.976 81.7425 840.833 Q81.7425 841.915 81.4269 842.884 Q81.1113 843.831 80.3899 844.507 Q79.6685 845.184 78.6765 845.184 Q77.5719 845.184 76.8054 844.44 Q76.0163 843.673 76.0163 842.636 Q76.0163 841.982 76.3996 841.464 Q76.7828 840.923 77.617 840.923 Q78.5413 840.923 79.2401 841.554 Q79.939 842.185 80.1194 843.087 Q80.7055 842.163 80.7055 840.787 Q80.7055 839.3 79.3979 838.127 Q78.0904 836.955 75.9036 836.391 Q70.6508 834.994 68.3062 834.453 Q65.9391 833.912 64.9246 833.912 Q63.9778 833.912 63.324 834.16 Q62.6702 834.408 62.3771 834.836 Q62.0615 835.242 61.9488 835.625 Q61.8361 835.986 61.8361 836.391 Q61.8361 837.068 62.1066 837.834 Q62.3771 838.578 63.0084 839.48 Q63.6171 840.359 64.8795 841.193 Q66.142 842.027 67.8779 842.591 Q68.3964 842.704 68.3964 843.2 Q68.3739 843.741 67.923 843.741 Q67.5397 843.741 66.7507 843.448 Q65.9391 843.132 64.9246 842.501 Q63.9101 841.847 63.0084 841.013 Q62.0841 840.156 61.4528 838.916 Q60.8216 837.654 60.8216 836.301 Q60.8216 835.693 60.9569 835.106 Q61.0696 834.498 61.4078 833.776 Q61.7459 833.032 62.4899 832.379 Q63.2338 831.725 64.3159 831.319 Q63.7974 831.048 63.3015 830.688 Q62.8055 830.304 62.1968 829.718 Q61.5656 829.11 61.2049 828.276 Q60.8216 827.419 60.8216 826.472 Q60.8216 825.548 61.0696 824.646 Q61.295 823.744 62.039 822.978 Q62.7604 822.189 63.8651 822.189 Z" fill="#000000" fill-rule="nonzero" fill-opacity="1" /><path clip-path="url(#clip710)" d="M68.5865 800.846 Q68.3324 800.846 67.7735 800.642 L18.6886 782.274 Q18.6377 782.274 18.3583 782.147 Q18.0788 782.02 17.901 781.943 Q17.6977 781.867 17.5453 781.715 Q17.3928 781.537 17.3928 781.334 Q17.3928 780.826 18.028 780.826 Q18.0788 780.826 18.6886 780.978 L67.8243 799.398 Q68.7135 799.702 68.9676 799.906 Q69.2217 800.084 69.2217 800.388 Q69.2217 800.846 68.5865 800.846 Z" fill="#000000" fill-rule="nonzero" fill-opacity="1" /><path clip-path="url(#clip710)" d="M68.3621 753.514 L66.3332 753.514 Q66.3332 750.004 65.9145 749.199 Q65.4636 748.393 63.338 748.393 L45.657 748.393 Q43.2094 748.393 42.5975 749.263 Q41.9855 750.1 41.9855 753.514 L39.9244 753.514 L39.2158 744.239 L46.1401 744.239 Q39.2158 741.147 39.2158 734.48 Q39.2158 726.751 45.657 725.688 Q43.145 724.561 41.1804 722.21 Q39.2158 719.827 39.2158 716.123 Q39.2158 711.163 41.6635 709.199 Q43.306 707.75 45.1417 707.46 Q46.9774 707.17 51.7439 707.17 L64.3364 707.17 Q65.7213 707.105 66.0433 706.043 Q66.3332 704.98 66.3332 702.017 L68.3621 702.017 Q68.1689 708.748 68.1689 709.392 Q68.1689 709.907 68.3621 716.864 L66.3332 716.864 Q66.3332 713.353 65.9145 712.548 Q65.4636 711.711 63.338 711.711 L47.9758 711.711 Q44.6264 711.711 42.6619 712.741 Q40.6651 713.772 40.6651 716.606 Q40.6651 720.02 43.5314 722.757 Q46.3977 725.495 51.2286 725.495 L63.338 725.495 Q65.4636 725.495 65.9145 724.69 Q66.3332 723.852 66.3332 720.342 L68.3621 720.342 Q68.1689 727.073 68.1689 727.749 Q68.1689 728.265 68.3621 735.189 L66.3332 735.189 Q66.3332 731.679 65.9145 730.873 Q65.4636 730.036 63.338 730.036 L47.9758 730.036 Q44.6264 730.036 42.6619 731.067 Q40.6651 732.097 40.6651 734.931 Q40.6651 738.345 43.5314 741.083 Q46.3977 743.82 51.2286 743.82 L63.338 743.82 Q65.4636 743.82 65.9145 743.015 Q66.3332 742.178 66.3332 738.699 L68.3621 738.699 Q68.1689 745.43 68.1689 746.075 Q68.1689 746.59 68.3621 753.514 Z" fill="#000000" fill-rule="nonzero" fill-opacity="1" /><path clip-path="url(#clip710)" d="M67.4926 690.411 L58.797 690.411 Q58.0563 690.411 57.7986 690.379 Q57.541 690.347 57.3477 690.154 Q57.1545 689.961 57.1545 689.574 Q57.1545 689.123 57.3477 688.962 Q57.541 688.769 58.2817 688.64 Q62.8227 687.642 65.2382 685.516 Q67.6214 683.358 67.6214 679.461 Q67.6214 675.758 65.9789 673.89 Q64.3364 672.022 61.6311 672.022 Q56.8002 672.022 55.5764 678.882 Q54.7713 682.843 54.256 684.486 Q53.7085 686.128 52.5169 687.577 Q50.198 690.411 46.913 690.411 Q43.628 690.411 41.2126 687.932 Q38.7972 685.42 38.7972 679.88 Q38.7972 676.176 40.6651 673.664 Q40.0854 672.924 39.6023 672.537 Q38.7972 671.668 38.7972 671.217 Q38.7972 670.701 39.1514 670.605 Q39.4735 670.508 40.4075 670.508 L47.0419 670.508 Q47.7826 670.508 48.0402 670.54 Q48.2979 670.573 48.4911 670.766 Q48.6522 670.959 48.6522 671.378 Q48.6522 672.119 48.0402 672.151 Q40.0532 672.666 40.0532 679.88 Q40.0532 683.777 41.5669 685.516 Q43.0483 687.255 45.0773 687.255 Q46.2045 687.255 47.0741 686.74 Q47.9114 686.192 48.4267 685.516 Q48.9098 684.808 49.3929 683.519 Q49.8438 682.231 50.0048 681.458 Q50.1658 680.653 50.4879 679.139 Q51.4863 673.858 53.6441 671.635 Q56.4138 668.866 59.9242 668.866 Q63.8211 668.866 66.462 671.507 Q69.1029 674.147 69.1029 679.461 Q69.1029 683.745 66.2366 686.74 Q66.623 687.126 66.9773 687.416 Q67.2993 687.706 67.4282 687.835 Q67.557 687.932 67.6536 687.964 Q67.718 687.996 67.7824 688.06 Q69.1029 689.381 69.1029 689.703 Q69.1029 690.218 68.7486 690.315 Q68.4266 690.411 67.4926 690.411 Z" fill="#000000" fill-rule="nonzero" fill-opacity="1" /><path clip-path="url(#clip710)" d="M36.0228 631.564 Q36.2933 631.293 36.6766 631.293 Q37.0598 631.293 37.3304 631.564 Q37.6009 631.834 37.6009 632.217 L37.6009 661.119 Q37.6009 661.502 37.3304 661.773 Q37.0598 662.043 36.6766 662.043 Q36.2933 662.043 36.0228 661.773 Q35.7523 661.502 35.7523 661.119 L35.7523 632.217 Q35.7523 631.834 36.0228 631.564 Z" fill="#000000" fill-rule="nonzero" fill-opacity="1" /><path clip-path="url(#clip710)" d="M21.8651 626.473 L20.4223 626.473 Q20.4223 620.927 17.469 618.064 Q17.469 617.275 17.6494 617.14 Q17.8297 617.005 18.6639 617.005 L44.567 617.005 Q45.9422 617.005 46.3706 616.328 Q46.7989 615.652 46.7989 612.699 L46.7989 611.234 L48.2192 611.234 Q48.0839 612.857 48.0839 618.718 Q48.0839 624.58 48.2192 626.18 L46.7989 626.18 L46.7989 624.715 Q46.7989 621.807 46.3931 621.108 Q45.9648 620.409 44.567 620.409 L20.6477 620.409 Q21.8651 622.821 21.8651 626.473 Z" fill="#000000" fill-rule="nonzero" fill-opacity="1" /><polyline clip-path="url(#clip712)" style="stroke:#009af9; stroke-linecap:round; stroke-linejoin:round; stroke-width:4; stroke-opacity:1; fill:none" points="1338.09,421.924 1384.94,686.489 1378.15,1384.24 2293.23,86.7724 1136.93,86.1857 569.628,1099.16 370.521,1048.23 636.098,392.76 480.054,403.477 308.924,695.367 "/>
<path clip-path="url(#clip710)" d="M319.507 196.789 L576.73 196.789 L576.73 93.1086 L319.507 93.1086  Z" fill="#ffffff" fill-rule="evenodd" fill-opacity="1"/>
<polyline clip-path="url(#clip710)" style="stroke:#000000; stroke-linecap:round; stroke-linejoin:round; stroke-width:4; stroke-opacity:1; fill:none" points="319.507,196.789 576.73,196.789 576.73,93.1086 319.507,93.1086 319.507,196.789 "/>
<polyline clip-path="url(#clip710)" style="stroke:#009af9; stroke-linecap:round; stroke-linejoin:round; stroke-width:4; stroke-opacity:1; fill:none" points="342.877,144.949 483.102,144.949 "/>
<path clip-path="url(#clip710)" d="M506.472 168.503 Q506.472 167.441 507.09 166.873 Q507.732 166.329 508.597 166.329 Q509.511 166.329 510.104 166.898 Q510.721 167.49 510.721 168.454 Q510.721 170.331 508.745 170.578 Q509.708 171.492 511.116 171.492 Q512.623 171.492 513.834 170.381 Q515.069 169.269 515.588 168.207 Q516.131 167.145 516.897 165.218 Q517.613 163.711 518.157 162.229 L510.573 143.751 Q510.079 142.54 509.313 142.268 Q508.547 141.997 506.472 141.997 L506.472 140.416 Q508.745 140.564 511.388 140.564 Q512.944 140.564 516.897 140.416 L516.897 141.997 Q514.056 141.997 514.056 143.306 Q514.056 143.454 514.353 144.22 L519.985 157.831 L525.099 145.381 Q525.395 144.665 525.395 144.17 Q525.395 142.095 523.023 141.997 L523.023 140.416 Q526.358 140.564 527.421 140.564 Q529.496 140.564 531.2 140.416 L531.2 141.997 Q527.816 141.997 526.507 145.233 L517.589 166.823 Q515.168 172.579 511.116 172.604 Q509.19 172.604 507.831 171.418 Q506.472 170.233 506.472 168.503 Z" fill="#000000" fill-rule="nonzero" fill-opacity="1" /><path clip-path="url(#clip710)" d="M536.66 133.35 L536.66 131.769 Q542.737 131.769 545.874 128.533 Q546.739 128.533 546.887 128.731 Q547.035 128.928 547.035 129.843 L547.035 158.227 Q547.035 159.734 547.776 160.203 Q548.517 160.672 551.753 160.672 L553.359 160.672 L553.359 162.229 Q551.581 162.08 545.158 162.08 Q538.735 162.08 536.981 162.229 L536.981 160.672 L538.587 160.672 Q541.773 160.672 542.539 160.228 Q543.305 159.758 543.305 158.227 L543.305 132.016 Q540.662 133.35 536.66 133.35 Z" fill="#000000" fill-rule="nonzero" fill-opacity="1" /></svg>
